<svg xmlns="http://www.w3.org/2000/svg" width="900" height="1200" viewBox="0 0 900 1200" role="img" aria-labelledby="title desc">
  <title id="title">Xiaohongshu profile card for 四呆院夜一</title>
  <desc id="desc">Contact card with Xiaohongshu account name 四呆院夜一, account id 845752167, and profile summary.</desc>
  <defs>
    <linearGradient id="cover" x1="0" x2="0" y1="0" y2="1">
      <stop offset="0%" stop-color="#314a3f"/>
      <stop offset="45%" stop-color="#5f8a6a"/>
      <stop offset="100%" stop-color="#c8d5c5"/>
    </linearGradient>
    <linearGradient id="avatar" x1="0" x2="1" y1="0" y2="1">
      <stop offset="0%" stop-color="#0b2f57"/>
      <stop offset="100%" stop-color="#111827"/>
    </linearGradient>
    <filter id="shadow" x="-20%" y="-20%" width="140%" height="140%">
      <feDropShadow dx="0" dy="16" stdDeviation="18" flood-color="#000000" flood-opacity="0.12"/>
    </filter>
    <pattern id="qrPattern" width="24" height="24" patternUnits="userSpaceOnUse">
      <rect width="24" height="24" fill="#ffffff"/>
      <rect x="0" y="0" width="8" height="8" fill="#222222"/>
      <rect x="16" y="0" width="8" height="8" fill="#222222"/>
      <rect x="8" y="8" width="8" height="8" fill="#444444"/>
      <rect x="0" y="16" width="8" height="8" fill="#222222"/>
      <rect x="16" y="16" width="8" height="8" fill="#222222"/>
    </pattern>
  </defs>

  <rect width="900" height="1200" rx="44" fill="#ffffff"/>

  <g filter="url(#shadow)">
    <rect x="40" y="32" width="820" height="372" rx="54" fill="url(#cover)"/>
    <circle cx="450" cy="164" r="88" fill="rgba(255,255,255,0.12)"/>
    <path d="M404 168c16-54 72-66 102-22 22 31 62 31 86-3" fill="none" stroke="rgba(255,255,255,0.78)" stroke-width="12" stroke-linecap="round"/>
    <path d="M404 168c16 46 72 58 102 18 22-29 62-29 86 3" fill="none" stroke="rgba(255,255,255,0.42)" stroke-width="8" stroke-linecap="round"/>
  </g>

  <g filter="url(#shadow)">
    <circle cx="166" cy="368" r="98" fill="#ffffff"/>
    <circle cx="166" cy="368" r="84" fill="url(#avatar)"/>
    <circle cx="132" cy="346" r="18" fill="#f97316" opacity="0.9"/>
    <path d="M118 406c26-36 60-60 96-68" fill="none" stroke="#60a5fa" stroke-width="10" stroke-linecap="round"/>
  </g>

  <g fill="#222222">
    <text x="62" y="564" font-size="68" font-weight="700" font-family="Arial, PingFang SC, Noto Sans SC, sans-serif">四呆院夜一</text>
    <text x="62" y="636" font-size="30" fill="#9ca3af" font-family="Arial, PingFang SC, Noto Sans SC, sans-serif">小红书号：845752167</text>
    <text x="62" y="748" font-size="42" font-weight="600" font-family="Arial, PingFang SC, Noto Sans SC, sans-serif">中山大学本硕 | 加州大学伯克利分校 (UCB)</text>
    <text x="62" y="808" font-size="42" font-weight="600" font-family="Arial, PingFang SC, Noto Sans SC, sans-serif">访问学者</text>
  </g>

  <line x1="52" y1="912" x2="848" y2="912" stroke="#ececec" stroke-width="3"/>

  <g transform="translate(56 948)">
    <rect x="0" y="0" width="162" height="70" rx="28" fill="#ff2442"/>
    <text x="81" y="46" text-anchor="middle" font-size="34" font-weight="700" fill="#ffffff" font-family="Arial, PingFang SC, Noto Sans SC, sans-serif">小红书</text>
    <text x="0" y="146" font-size="34" fill="#5b5b5b" font-family="Arial, PingFang SC, Noto Sans SC, sans-serif">打开小红书搜索</text>
    <text x="0" y="196" font-size="34" fill="#5b5b5b" font-family="Arial, PingFang SC, Noto Sans SC, sans-serif">账号 845752167</text>
  </g>

  <g transform="translate(610 930)">
    <rect x="0" y="0" width="226" height="226" rx="24" fill="#ffffff" stroke="#dddddd" stroke-width="2"/>
    <rect x="25" y="25" width="176" height="176" fill="url(#qrPattern)"/>
    <circle cx="38" cy="38" r="22" fill="#ffffff" stroke="#222222" stroke-width="8"/>
    <circle cx="188" cy="38" r="22" fill="#ffffff" stroke="#222222" stroke-width="8"/>
    <circle cx="38" cy="188" r="22" fill="#ffffff" stroke="#222222" stroke-width="8"/>
  </g>

  <text x="450" y="1170" text-anchor="middle" font-size="24" fill="#9ca3af" font-family="Arial, PingFang SC, Noto Sans SC, sans-serif">Profile card recreated from the provided screenshot for repository linking.</text>
</svg>
