<svg xmlns="http://www.w3.org/2000/svg" width="1600" height="940" viewBox="0 0 1600 940">
  <defs>
    <marker id="arrow" viewBox="0 0 10 10" refX="8" refY="5" markerWidth="8" markerHeight="8" orient="auto-start-reverse">
      <path d="M 0 0 L 10 5 L 0 10 z" fill="#C8734E"/>
    </marker>
  </defs>
  <title>fig08</title>
  <rect x="0" y="0" width="1600" height="940" rx="0" ry="0" fill="#F7F0E4" stroke="none" stroke-width="2"/>
  <text x="800" y="74" text-anchor="middle" font-size="46" font-weight="700" font-family="'Noto Serif SC','Source Han Serif SC','Songti SC',serif" fill="#1F2A24"><tspan x="800" y="74">设计需求背后真正有价值的是数据库与经验</tspan></text><line x1="520" y1="102" x2="1080" y2="102" stroke="#C8734E" stroke-width="5" stroke-linecap="round"/><rect x="90" y="420" width="300" height="68" rx="34" ry="34" fill="#F4E5BF" stroke="#D7A545" stroke-width="2"/><text x="240" y="462" text-anchor="middle" font-size="30" font-weight="600" font-family="'Noto Sans SC','PingFang SC','Microsoft YaHei',sans-serif" fill="#1F2A24"><tspan x="240" y="462">家居设计需求</tspan></text><rect x="500" y="350" width="300" height="130" rx="26" ry="26" fill="#FFF9F1" stroke="#E8C5B5" stroke-width="2"/><text x="650" y="394" text-anchor="middle" font-size="26" font-weight="700" font-family="'Noto Sans SC','PingFang SC','Microsoft YaHei',sans-serif" fill="#1F2A24"><tspan x="650" y="394">设计判断引擎</tspan></text><text x="650" y="432" text-anchor="middle" font-size="20" font-weight="500" font-family="'Noto Sans SC','PingFang SC','Microsoft YaHei',sans-serif" fill="#6E726C"><tspan x="650" y="432">风格 + 布局 + 材料 + 预算</tspan></text><ellipse cx="1060" cy="206" rx="80" ry="22" fill="#DCE9DF" stroke="#7A9984" stroke-width="2.5"/><rect x="980" y="206" width="160" height="94" rx="0" ry="0" fill="#DCE9DF" stroke="#7A9984" stroke-width="2.5"/><ellipse cx="1060" cy="300" rx="80" ry="22" fill="#DCE9DF" stroke="#7A9984" stroke-width="2.5"/><text x="1060" y="246" text-anchor="middle" font-size="24" font-weight="700" font-family="'Noto Sans SC','PingFang SC','Microsoft YaHei',sans-serif" fill="#1F2A24"><tspan x="1060" y="246">风格库</tspan></text><text x="1060" y="272" text-anchor="middle" font-size="18" font-weight="500" font-family="'Noto Sans SC','PingFang SC','Microsoft YaHei',sans-serif" fill="#6E726C"><tspan x="1060" y="272">暖调现代</tspan><tspan x="1060" y="295.04">家庭结构</tspan></text><ellipse cx="1300" cy="206" rx="80" ry="22" fill="#DCE9DF" stroke="#7A9984" stroke-width="2.5"/><rect x="1220" y="206" width="160" height="94" rx="0" ry="0" fill="#DCE9DF" stroke="#7A9984" stroke-width="2.5"/><ellipse cx="1300" cy="300" rx="80" ry="22" fill="#DCE9DF" stroke="#7A9984" stroke-width="2.5"/><text x="1300" y="246" text-anchor="middle" font-size="24" font-weight="700" font-family="'Noto Sans SC','PingFang SC','Microsoft YaHei',sans-serif" fill="#1F2A24"><tspan x="1300" y="246">户型库</tspan></text><text x="1300" y="272" text-anchor="middle" font-size="18" font-weight="500" font-family="'Noto Sans SC','PingFang SC','Microsoft YaHei',sans-serif" fill="#6E726C"><tspan x="1300" y="272">历史布局</tspan><tspan x="1300" y="295.04">空间关系</tspan></text><ellipse cx="1060" cy="426" rx="80" ry="22" fill="#DCE9DF" stroke="#7A9984" stroke-width="2.5"/><rect x="980" y="426" width="160" height="94" rx="0" ry="0" fill="#DCE9DF" stroke="#7A9984" stroke-width="2.5"/><ellipse cx="1060" cy="520" rx="80" ry="22" fill="#DCE9DF" stroke="#7A9984" stroke-width="2.5"/><text x="1060" y="466" text-anchor="middle" font-size="24" font-weight="700" font-family="'Noto Sans SC','PingFang SC','Microsoft YaHei',sans-serif" fill="#1F2A24"><tspan x="1060" y="466">材料库</tspan></text><text x="1060" y="492" text-anchor="middle" font-size="18" font-weight="500" font-family="'Noto Sans SC','PingFang SC','Microsoft YaHei',sans-serif" fill="#6E726C"><tspan x="1060" y="492">材质</tspan><tspan x="1060" y="515.04">预算映射</tspan></text><ellipse cx="1300" cy="426" rx="80" ry="22" fill="#DCE9DF" stroke="#7A9984" stroke-width="2.5"/><rect x="1220" y="426" width="160" height="94" rx="0" ry="0" fill="#DCE9DF" stroke="#7A9984" stroke-width="2.5"/><ellipse cx="1300" cy="520" rx="80" ry="22" fill="#DCE9DF" stroke="#7A9984" stroke-width="2.5"/><text x="1300" y="466" text-anchor="middle" font-size="24" font-weight="700" font-family="'Noto Sans SC','PingFang SC','Microsoft YaHei',sans-serif" fill="#1F2A24"><tspan x="1300" y="466">报价规则</tspan></text><text x="1300" y="492" text-anchor="middle" font-size="18" font-weight="500" font-family="'Noto Sans SC','PingFang SC','Microsoft YaHei',sans-serif" fill="#6E726C"><tspan x="1300" y="492">预算带</tspan><tspan x="1300" y="515.04">交付边界</tspan></text><ellipse cx="1180" cy="646" rx="80" ry="22" fill="#DCE9DF" stroke="#7A9984" stroke-width="2.5"/><rect x="1100" y="646" width="160" height="94" rx="0" ry="0" fill="#DCE9DF" stroke="#7A9984" stroke-width="2.5"/><ellipse cx="1180" cy="740" rx="80" ry="22" fill="#DCE9DF" stroke="#7A9984" stroke-width="2.5"/><text x="1180" y="686" text-anchor="middle" font-size="24" font-weight="700" font-family="'Noto Sans SC','PingFang SC','Microsoft YaHei',sans-serif" fill="#1F2A24"><tspan x="1180" y="686">交付模板</tspan></text><text x="1180" y="712" text-anchor="middle" font-size="18" font-weight="500" font-family="'Noto Sans SC','PingFang SC','Microsoft YaHei',sans-serif" fill="#6E726C"><tspan x="1180" y="712">方案格式</tspan><tspan x="1180" y="735.04">效果图结构</tspan></text><rect x="900" y="780" width="360" height="92" rx="26" ry="26" fill="#F5F1EA" stroke="#CDBDA7" stroke-width="2"/><text x="1080" y="824" text-anchor="middle" font-size="26" font-weight="700" font-family="'Noto Sans SC','PingFang SC','Microsoft YaHei',sans-serif" fill="#1F2A24"><tspan x="1080" y="824">输出：更接近可落地的设计结果</tspan></text><text x="1080" y="862" text-anchor="middle" font-size="20" font-weight="500" font-family="'Noto Sans SC','PingFang SC','Microsoft YaHei',sans-serif" fill="#6E726C"><tspan x="1080" y="862">效果图 + 方案 + 预算建议</tspan></text><polyline points="390,454 500,454" fill="none" stroke="#C8734E" stroke-width="4" stroke-linecap="round" stroke-linejoin="round" marker-end="url(#arrow)"/><polyline points="900,250 900,720" fill="none" stroke="#7A9984" stroke-width="4" stroke-linecap="round" stroke-linejoin="round"/><polyline points="980,250 900,250" fill="none" stroke="#7A9984" stroke-width="4" stroke-linecap="round" stroke-linejoin="round" marker-end="url(#arrow)"/><polyline points="1220,250 900,250" fill="none" stroke="#7A9984" stroke-width="4" stroke-linecap="round" stroke-linejoin="round" marker-end="url(#arrow)"/><polyline points="980,470 900,470" fill="none" stroke="#7A9984" stroke-width="4" stroke-linecap="round" stroke-linejoin="round" marker-end="url(#arrow)"/><polyline points="1220,470 900,470" fill="none" stroke="#7A9984" stroke-width="4" stroke-linecap="round" stroke-linejoin="round" marker-end="url(#arrow)"/><polyline points="1100,690 900,690" fill="none" stroke="#7A9984" stroke-width="4" stroke-linecap="round" stroke-linejoin="round" marker-end="url(#arrow)"/><polyline points="900,454 800,454" fill="none" stroke="#7A9984" stroke-width="4" stroke-linecap="round" stroke-linejoin="round" marker-end="url(#arrow)"/><polyline points="650,480 650,780 900,780" fill="none" stroke="#3F6E8C" stroke-width="4" stroke-linecap="round" stroke-linejoin="round" marker-end="url(#arrow)"/>
</svg>
