<svg xmlns="http://www.w3.org/2000/svg" width="1600" height="940" viewBox="0 0 1600 940">
  <defs>
    <marker id="arrow" viewBox="0 0 10 10" refX="8" refY="5" markerWidth="8" markerHeight="8" orient="auto-start-reverse">
      <path d="M 0 0 L 10 5 L 0 10 z" fill="#C8734E"/>
    </marker>
  </defs>
  <title>fig06b</title>
  <rect x="0" y="0" width="1600" height="940" rx="0" ry="0" fill="#F7F0E4" stroke="none" stroke-width="2"/>
  <text x="800" y="74" text-anchor="middle" font-size="46" font-weight="700" font-family="'Noto Serif SC','Source Han Serif SC','Songti SC',serif" fill="#1F2A24"><tspan x="800" y="74">提案市场：需求发 brief，供给方返回提案</tspan></text><line x1="520" y1="102" x2="1080" y2="102" stroke="#C8734E" stroke-width="5" stroke-linecap="round"/><rect x="110" y="360" width="138" height="132" rx="34" ry="34" fill="#DDEAF3" stroke="#3F6E8C" stroke-width="2.5"/><rect x="140" y="380" width="78" height="54" rx="16" ry="16" fill="#FFF9F1" stroke="#3F6E8C" stroke-width="3"/><circle cx="166" cy="407" r="8" fill="#3F6E8C" stroke="none" stroke-width="2"/><circle cx="192" cy="407" r="8" fill="#3F6E8C" stroke="none" stroke-width="2"/><line x1="164" y1="434" x2="194" y2="434" stroke="#3F6E8C" stroke-width="3" stroke-linecap="round"/><line x1="179" y1="380" x2="179" y2="366" stroke="#3F6E8C" stroke-width="3" stroke-linecap="round"/><circle cx="179" cy="362" r="5" fill="#3F6E8C" stroke="none" stroke-width="2"/><text x="179" y="474" text-anchor="middle" font-size="22" font-weight="700" font-family="'Noto Sans SC','PingFang SC','Microsoft YaHei',sans-serif" fill="#1F2A24"><tspan x="179" y="474">需求侧大管家</tspan></text><rect x="360" y="180" width="360" height="500" rx="30" ry="30" fill="#FFF9F1" stroke="#CDBDA7" stroke-width="2"/><rect x="360" y="180" width="360" height="14" rx="30" ry="30" fill="#C8734E" stroke="none" stroke-width="2"/><text x="388" y="232" text-anchor="start" font-size="28" font-weight="700" font-family="'Noto Sans SC','PingFang SC','Microsoft YaHei',sans-serif" fill="#1F2A24"><tspan x="388" y="232">需求池 / brief</tspan></text><text x="388" y="272" text-anchor="start" font-size="22" font-weight="500" font-family="'Noto Sans SC','PingFang SC','Microsoft YaHei',sans-serif" fill="#6E726C"><tspan x="388" y="272">目标</tspan><tspan x="388" y="301.92">预算</tspan><tspan x="388" y="331.84000000000003">交付物</tspan><tspan x="388" y="361.76">截止时间</tspan></text><rect x="820" y="220" width="170" height="96" rx="26" ry="26" fill="#FFF9F1" stroke="#CDBDA7" stroke-width="2"/><text x="905" y="264" text-anchor="middle" font-size="26" font-weight="700" font-family="'Noto Sans SC','PingFang SC','Microsoft YaHei',sans-serif" fill="#1F2A24"><tspan x="905" y="264">提案 A</tspan></text><text x="905" y="302" text-anchor="middle" font-size="20" font-weight="500" font-family="'Noto Sans SC','PingFang SC','Microsoft YaHei',sans-serif" fill="#6E726C"><tspan x="905" y="302">方案 / 报价</tspan></text><rect x="820" y="390" width="170" height="96" rx="26" ry="26" fill="#FFF9F1" stroke="#CDBDA7" stroke-width="2"/><text x="905" y="434" text-anchor="middle" font-size="26" font-weight="700" font-family="'Noto Sans SC','PingFang SC','Microsoft YaHei',sans-serif" fill="#1F2A24"><tspan x="905" y="434">提案 B</tspan></text><text x="905" y="472" text-anchor="middle" font-size="20" font-weight="500" font-family="'Noto Sans SC','PingFang SC','Microsoft YaHei',sans-serif" fill="#6E726C"><tspan x="905" y="472">方案 / 报价</tspan></text><rect x="820" y="560" width="170" height="96" rx="26" ry="26" fill="#FFF9F1" stroke="#CDBDA7" stroke-width="2"/><text x="905" y="604" text-anchor="middle" font-size="26" font-weight="700" font-family="'Noto Sans SC','PingFang SC','Microsoft YaHei',sans-serif" fill="#1F2A24"><tspan x="905" y="604">提案 C</tspan></text><text x="905" y="642" text-anchor="middle" font-size="20" font-weight="500" font-family="'Noto Sans SC','PingFang SC','Microsoft YaHei',sans-serif" fill="#6E726C"><tspan x="905" y="642">方案 / 报价</tspan></text><rect x="1110" y="202" width="138" height="132" rx="34" ry="34" fill="#DDEAF3" stroke="#3F6E8C" stroke-width="2.5"/><rect x="1140" y="222" width="78" height="54" rx="16" ry="16" fill="#FFF9F1" stroke="#3F6E8C" stroke-width="3"/><circle cx="1166" cy="249" r="8" fill="#3F6E8C" stroke="none" stroke-width="2"/><circle cx="1192" cy="249" r="8" fill="#3F6E8C" stroke="none" stroke-width="2"/><line x1="1164" y1="276" x2="1194" y2="276" stroke="#3F6E8C" stroke-width="3" stroke-linecap="round"/><line x1="1179" y1="222" x2="1179" y2="208" stroke="#3F6E8C" stroke-width="3" stroke-linecap="round"/><circle cx="1179" cy="204" r="5" fill="#3F6E8C" stroke="none" stroke-width="2"/><text x="1179" y="316" text-anchor="middle" font-size="22" font-weight="700" font-family="'Noto Sans SC','PingFang SC','Microsoft YaHei',sans-serif" fill="#1F2A24"><tspan x="1179" y="316">供给方 Agent A</tspan></text><rect x="1110" y="372" width="138" height="132" rx="34" ry="34" fill="#DDEAF3" stroke="#3F6E8C" stroke-width="2.5"/><rect x="1140" y="392" width="78" height="54" rx="16" ry="16" fill="#FFF9F1" stroke="#3F6E8C" stroke-width="3"/><circle cx="1166" cy="419" r="8" fill="#3F6E8C" stroke="none" stroke-width="2"/><circle cx="1192" cy="419" r="8" fill="#3F6E8C" stroke="none" stroke-width="2"/><line x1="1164" y1="446" x2="1194" y2="446" stroke="#3F6E8C" stroke-width="3" stroke-linecap="round"/><line x1="1179" y1="392" x2="1179" y2="378" stroke="#3F6E8C" stroke-width="3" stroke-linecap="round"/><circle cx="1179" cy="374" r="5" fill="#3F6E8C" stroke="none" stroke-width="2"/><text x="1179" y="486" text-anchor="middle" font-size="22" font-weight="700" font-family="'Noto Sans SC','PingFang SC','Microsoft YaHei',sans-serif" fill="#1F2A24"><tspan x="1179" y="486">供给方 Agent B</tspan></text><rect x="1110" y="542" width="138" height="132" rx="34" ry="34" fill="#DDEAF3" stroke="#3F6E8C" stroke-width="2.5"/><rect x="1140" y="562" width="78" height="54" rx="16" ry="16" fill="#FFF9F1" stroke="#3F6E8C" stroke-width="3"/><circle cx="1166" cy="589" r="8" fill="#3F6E8C" stroke="none" stroke-width="2"/><circle cx="1192" cy="589" r="8" fill="#3F6E8C" stroke="none" stroke-width="2"/><line x1="1164" y1="616" x2="1194" y2="616" stroke="#3F6E8C" stroke-width="3" stroke-linecap="round"/><line x1="1179" y1="562" x2="1179" y2="548" stroke="#3F6E8C" stroke-width="3" stroke-linecap="round"/><circle cx="1179" cy="544" r="5" fill="#3F6E8C" stroke="none" stroke-width="2"/><text x="1179" y="656" text-anchor="middle" font-size="22" font-weight="700" font-family="'Noto Sans SC','PingFang SC','Microsoft YaHei',sans-serif" fill="#1F2A24"><tspan x="1179" y="656">供给方 Agent C</tspan></text><rect x="360" y="750" width="360" height="92" rx="26" ry="26" fill="#F5F1EA" stroke="#CDBDA7" stroke-width="2"/><text x="540" y="794" text-anchor="middle" font-size="26" font-weight="700" font-family="'Noto Sans SC','PingFang SC','Microsoft YaHei',sans-serif" fill="#1F2A24"><tspan x="540" y="794">需求确认</tspan></text><text x="540" y="832" text-anchor="middle" font-size="20" font-weight="500" font-family="'Noto Sans SC','PingFang SC','Microsoft YaHei',sans-serif" fill="#6E726C"><tspan x="540" y="832">整理材料包，再中选供给方</tspan></text><polyline points="248,426 360,426" fill="none" stroke="#C8734E" stroke-width="4" stroke-linecap="round" stroke-linejoin="round" marker-end="url(#arrow)"/><polyline points="720,268 820,268" fill="none" stroke="#3F6E8C" stroke-width="4" stroke-linecap="round" stroke-linejoin="round" marker-end="url(#arrow)"/><polyline points="720,438 820,438" fill="none" stroke="#3F6E8C" stroke-width="4" stroke-linecap="round" stroke-linejoin="round" marker-end="url(#arrow)"/><polyline points="720,608 820,608" fill="none" stroke="#3F6E8C" stroke-width="4" stroke-linecap="round" stroke-linejoin="round" marker-end="url(#arrow)"/><polyline points="990,268 1110,268" fill="none" stroke="#3F6E8C" stroke-width="4" stroke-linecap="round" stroke-linejoin="round" marker-end="url(#arrow)"/><polyline points="990,438 1110,438" fill="none" stroke="#3F6E8C" stroke-width="4" stroke-linecap="round" stroke-linejoin="round" marker-end="url(#arrow)"/><polyline points="990,608 1110,608" fill="none" stroke="#3F6E8C" stroke-width="4" stroke-linecap="round" stroke-linejoin="round" marker-end="url(#arrow)"/><polyline points="905,486 905,750 720,750" fill="none" stroke="#C8734E" stroke-width="4" stroke-linecap="round" stroke-linejoin="round" marker-end="url(#arrow)"/>
</svg>
