<svg xmlns="http://www.w3.org/2000/svg" width="1600" height="940" viewBox="0 0 1600 940">
  <defs>
    <marker id="arrow" viewBox="0 0 10 10" refX="8" refY="5" markerWidth="8" markerHeight="8" orient="auto-start-reverse">
      <path d="M 0 0 L 10 5 L 0 10 z" fill="#C8734E"/>
    </marker>
  </defs>
  <title>fig05</title>
  <rect x="0" y="0" width="1600" height="940" rx="0" ry="0" fill="#F7F0E4" stroke="none" stroke-width="2"/>
  <text x="800" y="74" text-anchor="middle" font-size="46" font-weight="700" font-family="'Noto Serif SC','Source Han Serif SC','Songti SC',serif" fill="#1F2A24"><tspan x="800" y="74">多入口专用 Agent 与单一大管家的上下文差异</tspan></text><line x1="520" y1="102" x2="1080" y2="102" stroke="#C8734E" stroke-width="5" stroke-linecap="round"/><rect x="60" y="160" width="700" height="620" rx="30" ry="30" fill="#FFF9F1" stroke="#CDBDA7" stroke-width="2"/><rect x="60" y="160" width="700" height="14" rx="30" ry="30" fill="#B9645D" stroke="none" stroke-width="2"/><text x="88" y="212" text-anchor="start" font-size="28" font-weight="700" font-family="'Noto Sans SC','PingFang SC','Microsoft YaHei',sans-serif" fill="#1F2A24"><tspan x="88" y="212">左侧：多个专用入口</tspan></text><rect x="840" y="160" width="700" height="620" rx="30" ry="30" fill="#FFF9F1" stroke="#CDBDA7" stroke-width="2"/><rect x="840" y="160" width="700" height="14" rx="30" ry="30" fill="#7A9984" stroke="none" stroke-width="2"/><text x="868" y="212" text-anchor="start" font-size="28" font-weight="700" font-family="'Noto Sans SC','PingFang SC','Microsoft YaHei',sans-serif" fill="#1F2A24"><tspan x="868" y="212">右侧：一个大管家统一调度</tspan></text><rect x="330" y="240" width="130" height="130" rx="34" ry="34" fill="#F4E5BF" stroke="#D7A545" stroke-width="2.5"/><circle cx="395" cy="274" r="22" fill="#FFF9F1" stroke="#D7A545" stroke-width="3"/><path d="M 361 340 Q 395 300 429 340" fill="none" stroke="#D7A545" stroke-width="3" stroke-linecap="round" stroke-linejoin="round"/><line x1="395" y1="296" x2="395" y2="330" stroke="#D7A545" stroke-width="3" stroke-linecap="round"/><text x="395" y="352" text-anchor="middle" font-size="22" font-weight="700" font-family="'Noto Sans SC','PingFang SC','Microsoft YaHei',sans-serif" fill="#1F2A24"><tspan x="395" y="352">主人</tspan></text><rect x="130" y="470" width="138" height="132" rx="34" ry="34" fill="#DDEAF3" stroke="#3F6E8C" stroke-width="2.5"/><rect x="160" y="490" width="78" height="54" rx="16" ry="16" fill="#FFF9F1" stroke="#3F6E8C" stroke-width="3"/><circle cx="186" cy="517" r="8" fill="#3F6E8C" stroke="none" stroke-width="2"/><circle cx="212" cy="517" r="8" fill="#3F6E8C" stroke="none" stroke-width="2"/><line x1="184" y1="544" x2="214" y2="544" stroke="#3F6E8C" stroke-width="3" stroke-linecap="round"/><line x1="199" y1="490" x2="199" y2="476" stroke="#3F6E8C" stroke-width="3" stroke-linecap="round"/><circle cx="199" cy="472" r="5" fill="#3F6E8C" stroke="none" stroke-width="2"/><text x="199" y="584" text-anchor="middle" font-size="22" font-weight="700" font-family="'Noto Sans SC','PingFang SC','Microsoft YaHei',sans-serif" fill="#1F2A24"><tspan x="199" y="584">视频 Agent</tspan></text><rect x="310" y="470" width="138" height="132" rx="34" ry="34" fill="#DDEAF3" stroke="#3F6E8C" stroke-width="2.5"/><rect x="340" y="490" width="78" height="54" rx="16" ry="16" fill="#FFF9F1" stroke="#3F6E8C" stroke-width="3"/><circle cx="366" cy="517" r="8" fill="#3F6E8C" stroke="none" stroke-width="2"/><circle cx="392" cy="517" r="8" fill="#3F6E8C" stroke="none" stroke-width="2"/><line x1="364" y1="544" x2="394" y2="544" stroke="#3F6E8C" stroke-width="3" stroke-linecap="round"/><line x1="379" y1="490" x2="379" y2="476" stroke="#3F6E8C" stroke-width="3" stroke-linecap="round"/><circle cx="379" cy="472" r="5" fill="#3F6E8C" stroke="none" stroke-width="2"/><text x="379" y="584" text-anchor="middle" font-size="22" font-weight="700" font-family="'Noto Sans SC','PingFang SC','Microsoft YaHei',sans-serif" fill="#1F2A24"><tspan x="379" y="584">邮件 Agent</tspan></text><rect x="490" y="470" width="138" height="132" rx="34" ry="34" fill="#DDEAF3" stroke="#3F6E8C" stroke-width="2.5"/><rect x="520" y="490" width="78" height="54" rx="16" ry="16" fill="#FFF9F1" stroke="#3F6E8C" stroke-width="3"/><circle cx="546" cy="517" r="8" fill="#3F6E8C" stroke="none" stroke-width="2"/><circle cx="572" cy="517" r="8" fill="#3F6E8C" stroke="none" stroke-width="2"/><line x1="544" y1="544" x2="574" y2="544" stroke="#3F6E8C" stroke-width="3" stroke-linecap="round"/><line x1="559" y1="490" x2="559" y2="476" stroke="#3F6E8C" stroke-width="3" stroke-linecap="round"/><circle cx="559" cy="472" r="5" fill="#3F6E8C" stroke="none" stroke-width="2"/><text x="559" y="584" text-anchor="middle" font-size="22" font-weight="700" font-family="'Noto Sans SC','PingFang SC','Microsoft YaHei',sans-serif" fill="#1F2A24"><tspan x="559" y="584">投放 Agent</tspan></text><polyline points="396,370 196,470" fill="none" stroke="#B9645D" stroke-width="4" stroke-linecap="round" stroke-linejoin="round" marker-end="url(#arrow)"/><polyline points="396,370 380,470" fill="none" stroke="#B9645D" stroke-width="4" stroke-linecap="round" stroke-linejoin="round" marker-end="url(#arrow)"/><polyline points="396,370 564,470" fill="none" stroke="#B9645D" stroke-width="4" stroke-linecap="round" stroke-linejoin="round" marker-end="url(#arrow)"/><rect x="120" y="380" width="150" height="46" rx="23" ry="23" fill="#F0D4D1" stroke="#DDA9A2" stroke-width="2"/><text x="195" y="411" text-anchor="middle" font-size="20" font-weight="600" font-family="'Noto Sans SC','PingFang SC','Microsoft YaHei',sans-serif" fill="#1F2A24"><tspan x="195" y="411">重复喂素材</tspan></text><rect x="300" y="380" width="150" height="46" rx="23" ry="23" fill="#F0D4D1" stroke="#DDA9A2" stroke-width="2"/><text x="375" y="411" text-anchor="middle" font-size="20" font-weight="600" font-family="'Noto Sans SC','PingFang SC','Microsoft YaHei',sans-serif" fill="#1F2A24"><tspan x="375" y="411">重复同步预算</tspan></text><rect x="480" y="380" width="150" height="46" rx="23" ry="23" fill="#F0D4D1" stroke="#DDA9A2" stroke-width="2"/><text x="555" y="411" text-anchor="middle" font-size="20" font-weight="600" font-family="'Noto Sans SC','PingFang SC','Microsoft YaHei',sans-serif" fill="#1F2A24"><tspan x="555" y="411">重复同步规则</tspan></text><rect x="940" y="260" width="130" height="130" rx="34" ry="34" fill="#F4E5BF" stroke="#D7A545" stroke-width="2.5"/><circle cx="1005" cy="294" r="22" fill="#FFF9F1" stroke="#D7A545" stroke-width="3"/><path d="M 971 360 Q 1005 320 1039 360" fill="none" stroke="#D7A545" stroke-width="3" stroke-linecap="round" stroke-linejoin="round"/><line x1="1005" y1="316" x2="1005" y2="350" stroke="#D7A545" stroke-width="3" stroke-linecap="round"/><text x="1005" y="372" text-anchor="middle" font-size="22" font-weight="700" font-family="'Noto Sans SC','PingFang SC','Microsoft YaHei',sans-serif" fill="#1F2A24"><tspan x="1005" y="372">主人</tspan></text><rect x="1140" y="250" width="138" height="132" rx="34" ry="34" fill="#DDEAF3" stroke="#3F6E8C" stroke-width="2.5"/><rect x="1170" y="270" width="78" height="54" rx="16" ry="16" fill="#FFF9F1" stroke="#3F6E8C" stroke-width="3"/><circle cx="1196" cy="297" r="8" fill="#3F6E8C" stroke="none" stroke-width="2"/><circle cx="1222" cy="297" r="8" fill="#3F6E8C" stroke="none" stroke-width="2"/><line x1="1194" y1="324" x2="1224" y2="324" stroke="#3F6E8C" stroke-width="3" stroke-linecap="round"/><line x1="1209" y1="270" x2="1209" y2="256" stroke="#3F6E8C" stroke-width="3" stroke-linecap="round"/><circle cx="1209" cy="252" r="5" fill="#3F6E8C" stroke="none" stroke-width="2"/><text x="1209" y="364" text-anchor="middle" font-size="22" font-weight="700" font-family="'Noto Sans SC','PingFang SC','Microsoft YaHei',sans-serif" fill="#1F2A24"><tspan x="1209" y="364">大管家</tspan></text><rect x="930" y="560" width="138" height="132" rx="34" ry="34" fill="#DDEAF3" stroke="#3F6E8C" stroke-width="2.5"/><rect x="960" y="580" width="78" height="54" rx="16" ry="16" fill="#FFF9F1" stroke="#3F6E8C" stroke-width="3"/><circle cx="986" cy="607" r="8" fill="#3F6E8C" stroke="none" stroke-width="2"/><circle cx="1012" cy="607" r="8" fill="#3F6E8C" stroke="none" stroke-width="2"/><line x1="984" y1="634" x2="1014" y2="634" stroke="#3F6E8C" stroke-width="3" stroke-linecap="round"/><line x1="999" y1="580" x2="999" y2="566" stroke="#3F6E8C" stroke-width="3" stroke-linecap="round"/><circle cx="999" cy="562" r="5" fill="#3F6E8C" stroke="none" stroke-width="2"/><text x="999" y="674" text-anchor="middle" font-size="22" font-weight="700" font-family="'Noto Sans SC','PingFang SC','Microsoft YaHei',sans-serif" fill="#1F2A24"><tspan x="999" y="674">视频执行者</tspan></text><rect x="1140" y="560" width="138" height="132" rx="34" ry="34" fill="#DDEAF3" stroke="#3F6E8C" stroke-width="2.5"/><rect x="1170" y="580" width="78" height="54" rx="16" ry="16" fill="#FFF9F1" stroke="#3F6E8C" stroke-width="3"/><circle cx="1196" cy="607" r="8" fill="#3F6E8C" stroke="none" stroke-width="2"/><circle cx="1222" cy="607" r="8" fill="#3F6E8C" stroke="none" stroke-width="2"/><line x1="1194" y1="634" x2="1224" y2="634" stroke="#3F6E8C" stroke-width="3" stroke-linecap="round"/><line x1="1209" y1="580" x2="1209" y2="566" stroke="#3F6E8C" stroke-width="3" stroke-linecap="round"/><circle cx="1209" cy="562" r="5" fill="#3F6E8C" stroke="none" stroke-width="2"/><text x="1209" y="674" text-anchor="middle" font-size="22" font-weight="700" font-family="'Noto Sans SC','PingFang SC','Microsoft YaHei',sans-serif" fill="#1F2A24"><tspan x="1209" y="674">邮件执行者</tspan></text><rect x="1350" y="560" width="138" height="132" rx="34" ry="34" fill="#DDEAF3" stroke="#3F6E8C" stroke-width="2.5"/><rect x="1380" y="580" width="78" height="54" rx="16" ry="16" fill="#FFF9F1" stroke="#3F6E8C" stroke-width="3"/><circle cx="1406" cy="607" r="8" fill="#3F6E8C" stroke="none" stroke-width="2"/><circle cx="1432" cy="607" r="8" fill="#3F6E8C" stroke="none" stroke-width="2"/><line x1="1404" y1="634" x2="1434" y2="634" stroke="#3F6E8C" stroke-width="3" stroke-linecap="round"/><line x1="1419" y1="580" x2="1419" y2="566" stroke="#3F6E8C" stroke-width="3" stroke-linecap="round"/><circle cx="1419" cy="562" r="5" fill="#3F6E8C" stroke="none" stroke-width="2"/><text x="1419" y="674" text-anchor="middle" font-size="22" font-weight="700" font-family="'Noto Sans SC','PingFang SC','Microsoft YaHei',sans-serif" fill="#1F2A24"><tspan x="1419" y="674">投放执行者</tspan></text><polyline points="1018,324 1140,324" fill="none" stroke="#7A9984" stroke-width="4" stroke-linecap="round" stroke-linejoin="round" marker-end="url(#arrow)"/><polyline points="1209,382 998,560" fill="none" stroke="#7A9984" stroke-width="4" stroke-linecap="round" stroke-linejoin="round" marker-end="url(#arrow)"/><polyline points="1209,382 1209,560" fill="none" stroke="#7A9984" stroke-width="4" stroke-linecap="round" stroke-linejoin="round" marker-end="url(#arrow)"/><polyline points="1209,382 1418,560" fill="none" stroke="#7A9984" stroke-width="4" stroke-linecap="round" stroke-linejoin="round" marker-end="url(#arrow)"/><rect x="1090" y="430" width="240" height="54" rx="27" ry="27" fill="#DCE9DF" stroke="#BBD2C0" stroke-width="2"/><text x="1210" y="465" text-anchor="middle" font-size="22" font-weight="600" font-family="'Noto Sans SC','PingFang SC','Microsoft YaHei',sans-serif" fill="#1F2A24"><tspan x="1210" y="465">完整上下文只进入一次</tspan></text>
</svg>
