<svg xmlns="http://www.w3.org/2000/svg" width="1600" height="940" viewBox="0 0 1600 940">
  <defs>
    <marker id="arrow" viewBox="0 0 10 10" refX="8" refY="5" markerWidth="8" markerHeight="8" orient="auto-start-reverse">
      <path d="M 0 0 L 10 5 L 0 10 z" fill="#C8734E"/>
    </marker>
  </defs>
  <title>fig09</title>
  <rect x="0" y="0" width="1600" height="940" rx="0" ry="0" fill="#F7F0E4" stroke="none" stroke-width="2"/>
  <text x="800" y="74" text-anchor="middle" font-size="46" font-weight="700" font-family="'Noto Serif SC','Source Han Serif SC','Songti SC',serif" fill="#1F2A24"><tspan x="800" y="74">哪些 APP 软件适合做成 skill？</tspan></text><line x1="520" y1="102" x2="1080" y2="102" stroke="#C8734E" stroke-width="5" stroke-linecap="round"/><rect x="170" y="190" width="1260" height="620" rx="34" ry="34" fill="#FFF9F1" stroke="#CDBDA7" stroke-width="2"/><rect x="170" y="190" width="630" height="320" rx="34" ry="34" fill="#FFF7EA" stroke="none" stroke-width="2" opacity="0.45"/><rect x="800" y="190" width="630" height="320" rx="34" ry="34" fill="#FCEFEB" stroke="none" stroke-width="2" opacity="0.55"/><rect x="170" y="510" width="630" height="300" rx="34" ry="34" fill="#EEF5F0" stroke="none" stroke-width="2" opacity="0.55"/><rect x="800" y="510" width="630" height="300" rx="34" ry="34" fill="#EEF5FB" stroke="none" stroke-width="2" opacity="0.65"/><line x1="800" y1="228" x2="800" y2="774" stroke="#1F2A24" stroke-width="4" stroke-linecap="round"/><line x1="230" y1="510" x2="1370" y2="510" stroke="#1F2A24" stroke-width="4" stroke-linecap="round"/><text x="800" y="156" text-anchor="middle" font-size="24" font-weight="500" font-family="'Noto Sans SC','PingFang SC','Microsoft YaHei',sans-serif" fill="#6E726C"><tspan x="800" y="156">上：人类亲自参与必要性更高</tspan></text><text x="800" y="850" text-anchor="middle" font-size="24" font-weight="500" font-family="'Noto Sans SC','PingFang SC','Microsoft YaHei',sans-serif" fill="#6E726C"><tspan x="800" y="850">下：人类亲自参与必要性更低</tspan></text><text x="200" y="510" text-anchor="start" font-size="24" font-weight="500" font-family="'Noto Sans SC','PingFang SC','Microsoft YaHei',sans-serif" fill="#6E726C"><tspan x="200" y="510">左：主要执行主体偏人类</tspan></text><text x="1400" y="510" text-anchor="end" font-size="24" font-weight="500" font-family="'Noto Sans SC','PingFang SC','Microsoft YaHei',sans-serif" fill="#6E726C"><tspan x="1400" y="510">右：主要执行主体偏 AI Agent</tspan></text><rect x="290" y="230" width="210" height="48" rx="24" ry="24" fill="#FFF1D4" stroke="#E0CB9A" stroke-width="2"/><text x="395" y="262" text-anchor="middle" font-size="22" font-weight="600" font-family="'Noto Sans SC','PingFang SC','Microsoft YaHei',sans-serif" fill="#1F2A24"><tspan x="395" y="262">Q1 人类直用区</tspan></text><rect x="1030" y="230" width="210" height="48" rx="24" ry="24" fill="#F9E2DD" stroke="#E4BEAF" stroke-width="2"/><text x="1135" y="262" text-anchor="middle" font-size="22" font-weight="600" font-family="'Noto Sans SC','PingFang SC','Microsoft YaHei',sans-serif" fill="#1F2A24"><tspan x="1135" y="262">Q2 人机共签区</tspan></text><rect x="300" y="548" width="210" height="48" rx="24" ry="24" fill="#E6F0E8" stroke="#BBD2C0" stroke-width="2"/><text x="405" y="580" text-anchor="middle" font-size="22" font-weight="600" font-family="'Noto Sans SC','PingFang SC','Microsoft YaHei',sans-serif" fill="#1F2A24"><tspan x="405" y="580">Q3 过程价值区</tspan></text><rect x="1040" y="548" width="240" height="48" rx="24" ry="24" fill="#E6F0FB" stroke="#BDD3E1" stroke-width="2"/><text x="1160" y="580" text-anchor="middle" font-size="22" font-weight="600" font-family="'Noto Sans SC','PingFang SC','Microsoft YaHei',sans-serif" fill="#1F2A24"><tspan x="1160" y="580">Q4 最适合 skill 化</tspan></text><circle cx="300" cy="270" r="8" fill="#FFF8EC" stroke="#D7A545" stroke-width="3"/><text x="314" y="260" text-anchor="start" font-size="22" font-weight="600" font-family="'Noto Sans SC','PingFang SC','Microsoft YaHei',sans-serif" fill="#1F2A24"><tspan x="314" y="260">电话 / 私信</tspan></text><circle cx="420" cy="320" r="8" fill="#FFF8EC" stroke="#D7A545" stroke-width="3"/><text x="434" y="310" text-anchor="start" font-size="22" font-weight="600" font-family="'Noto Sans SC','PingFang SC','Microsoft YaHei',sans-serif" fill="#1F2A24"><tspan x="434" y="310">微信 / WhatsApp</tspan></text><circle cx="700" cy="360" r="8" fill="#FFF6F2" stroke="#C8734E" stroke-width="3"/><text x="716" y="344" text-anchor="start" font-size="22" font-weight="600" font-family="'Noto Sans SC','PingFang SC','Microsoft YaHei',sans-serif" fill="#1F2A24"><tspan x="716" y="344">社交媒体平台</tspan><tspan x="716" y="371.28">过渡带</tspan></text><circle cx="980" cy="290" r="8" fill="#FFF6F2" stroke="#C8734E" stroke-width="3"/><text x="994" y="280" text-anchor="start" font-size="22" font-weight="600" font-family="'Noto Sans SC','PingFang SC','Microsoft YaHei',sans-serif" fill="#1F2A24"><tspan x="994" y="280">支付 / 银行</tspan></text><circle cx="1150" cy="340" r="8" fill="#FFF6F2" stroke="#C8734E" stroke-width="3"/><text x="1164" y="330" text-anchor="start" font-size="22" font-weight="600" font-family="'Noto Sans SC','PingFang SC','Microsoft YaHei',sans-serif" fill="#1F2A24"><tspan x="1164" y="330">DocuSign</tspan><tspan x="1164" y="357.28">报税 / 医疗</tspan></text><circle cx="360" cy="620" r="8" fill="#F5FAF6" stroke="#7A9984" stroke-width="3"/><text x="374" y="610" text-anchor="start" font-size="22" font-weight="600" font-family="'Noto Sans SC','PingFang SC','Microsoft YaHei',sans-serif" fill="#1F2A24"><tspan x="374" y="610">vlog 拍摄工具</tspan></text><circle cx="470" cy="700" r="8" fill="#F5FAF6" stroke="#7A9984" stroke-width="3"/><text x="484" y="690" text-anchor="start" font-size="22" font-weight="600" font-family="'Noto Sans SC','PingFang SC','Microsoft YaHei',sans-serif" fill="#1F2A24"><tspan x="484" y="690">音乐制作</tspan></text><circle cx="650" cy="660" r="8" fill="#F5FAF6" stroke="#7A9984" stroke-width="3"/><text x="664" y="650" text-anchor="start" font-size="22" font-weight="600" font-family="'Noto Sans SC','PingFang SC','Microsoft YaHei',sans-serif" fill="#1F2A24"><tspan x="664" y="650">Figma 灵感板</tspan></text><circle cx="1030" cy="620" r="8" fill="#F3F8FD" stroke="#3F6E8C" stroke-width="3"/><text x="1044" y="610" text-anchor="start" font-size="22" font-weight="600" font-family="'Noto Sans SC','PingFang SC','Microsoft YaHei',sans-serif" fill="#1F2A24"><tspan x="1044" y="610">Gmail / 飞书</tspan></text><circle cx="1170" cy="700" r="8" fill="#F3F8FD" stroke="#3F6E8C" stroke-width="3"/><text x="1184" y="690" text-anchor="start" font-size="22" font-weight="600" font-family="'Noto Sans SC','PingFang SC','Microsoft YaHei',sans-serif" fill="#1F2A24"><tspan x="1184" y="690">Sheets / Jira</tspan></text><circle cx="1290" cy="610" r="8" fill="#F3F8FD" stroke="#3F6E8C" stroke-width="3"/><text x="1304" y="600" text-anchor="start" font-size="22" font-weight="600" font-family="'Noto Sans SC','PingFang SC','Microsoft YaHei',sans-serif" fill="#1F2A24"><tspan x="1304" y="600">Shopify</tspan><tspan x="1304" y="627.28">商单剪辑</tspan></text><text x="1210" y="780" text-anchor="middle" font-size="22" font-weight="500" font-family="'Noto Sans SC','PingFang SC','Microsoft YaHei',sans-serif" fill="#6E726C"><tspan x="1210" y="780">每个点是一个典型类型，位置表示它在两条坐标轴上的相对倾向。</tspan></text>
</svg>
