<svg xmlns="http://www.w3.org/2000/svg" width="1600" height="940" viewBox="0 0 1600 940">
  <defs>
    <marker id="arrow" viewBox="0 0 10 10" refX="8" refY="5" markerWidth="8" markerHeight="8" orient="auto-start-reverse">
      <path d="M 0 0 L 10 5 L 0 10 z" fill="#C8734E"/>
    </marker>
  </defs>
  <title>fig06c</title>
  <rect x="0" y="0" width="1600" height="940" rx="0" ry="0" fill="#F7F0E4" stroke="none" stroke-width="2"/>
  <text x="800" y="74" text-anchor="middle" font-size="46" font-weight="700" font-family="'Noto Serif SC','Source Han Serif SC','Songti SC',serif" fill="#1F2A24"><tspan x="800" y="74">长期合作 / 雇佣：高频供给沉淀为长期关系</tspan></text><line x1="520" y1="102" x2="1080" y2="102" stroke="#C8734E" stroke-width="5" stroke-linecap="round"/><rect x="100" y="250" width="130" height="130" rx="34" ry="34" fill="#F4E5BF" stroke="#D7A545" stroke-width="2.5"/><circle cx="165" cy="284" r="22" fill="#FFF9F1" stroke="#D7A545" stroke-width="3"/><path d="M 131 350 Q 165 310 199 350" fill="none" stroke="#D7A545" stroke-width="3" stroke-linecap="round" stroke-linejoin="round"/><line x1="165" y1="306" x2="165" y2="340" stroke="#D7A545" stroke-width="3" stroke-linecap="round"/><text x="165" y="362" text-anchor="middle" font-size="22" font-weight="700" font-family="'Noto Sans SC','PingFang SC','Microsoft YaHei',sans-serif" fill="#1F2A24"><tspan x="165" y="362">主人</tspan></text><rect x="280" y="240" width="138" height="132" rx="34" ry="34" fill="#DDEAF3" stroke="#3F6E8C" stroke-width="2.5"/><rect x="310" y="260" width="78" height="54" rx="16" ry="16" fill="#FFF9F1" stroke="#3F6E8C" stroke-width="3"/><circle cx="336" cy="287" r="8" fill="#3F6E8C" stroke="none" stroke-width="2"/><circle cx="362" cy="287" r="8" fill="#3F6E8C" stroke="none" stroke-width="2"/><line x1="334" y1="314" x2="364" y2="314" stroke="#3F6E8C" stroke-width="3" stroke-linecap="round"/><line x1="349" y1="260" x2="349" y2="246" stroke="#3F6E8C" stroke-width="3" stroke-linecap="round"/><circle cx="349" cy="242" r="5" fill="#3F6E8C" stroke="none" stroke-width="2"/><text x="349" y="354" text-anchor="middle" font-size="22" font-weight="700" font-family="'Noto Sans SC','PingFang SC','Microsoft YaHei',sans-serif" fill="#1F2A24"><tspan x="349" y="354">需求侧大管家</tspan></text><rect x="520" y="170" width="980" height="600" rx="30" ry="30" fill="#FFF9F1" stroke="#CDBDA7" stroke-width="2"/><rect x="520" y="170" width="980" height="14" rx="30" ry="30" fill="#7A9984" stroke="none" stroke-width="2"/><text x="548" y="222" text-anchor="start" font-size="28" font-weight="700" font-family="'Noto Sans SC','PingFang SC','Microsoft YaHei',sans-serif" fill="#1F2A24"><tspan x="548" y="222">长期合作网络</tspan></text><rect x="620" y="250" width="240" height="110" rx="26" ry="26" fill="#DCE9DF" stroke="#7A9984" stroke-width="2"/><text x="740" y="294" text-anchor="middle" font-size="26" font-weight="700" font-family="'Noto Sans SC','PingFang SC','Microsoft YaHei',sans-serif" fill="#1F2A24"><tspan x="740" y="294">固定视频供给</tspan></text><text x="740" y="332" text-anchor="middle" font-size="20" font-weight="500" font-family="'Noto Sans SC','PingFang SC','Microsoft YaHei',sans-serif" fill="#6E726C"><tspan x="740" y="332">月度任务包</tspan><tspan x="740" y="358.8">持续风格记忆</tspan></text><rect x="950" y="250" width="240" height="110" rx="26" ry="26" fill="#DCE9DF" stroke="#7A9984" stroke-width="2"/><text x="1070" y="294" text-anchor="middle" font-size="26" font-weight="700" font-family="'Noto Sans SC','PingFang SC','Microsoft YaHei',sans-serif" fill="#1F2A24"><tspan x="1070" y="294">固定研究供给</tspan></text><text x="1070" y="332" text-anchor="middle" font-size="20" font-weight="500" font-family="'Noto Sans SC','PingFang SC','Microsoft YaHei',sans-serif" fill="#6E726C"><tspan x="1070" y="332">按次 / 按周协作</tspan></text><rect x="1280" y="250" width="150" height="110" rx="26" ry="26" fill="#DCE9DF" stroke="#7A9984" stroke-width="2"/><text x="1355" y="294" text-anchor="middle" font-size="26" font-weight="700" font-family="'Noto Sans SC','PingFang SC','Microsoft YaHei',sans-serif" fill="#1F2A24"><tspan x="1355" y="294">固定写作供给</tspan></text><text x="1355" y="332" text-anchor="middle" font-size="20" font-weight="500" font-family="'Noto Sans SC','PingFang SC','Microsoft YaHei',sans-serif" fill="#6E726C"><tspan x="1355" y="332">长期协作</tspan></text><rect x="670" y="470" width="138" height="132" rx="34" ry="34" fill="#DDEAF3" stroke="#3F6E8C" stroke-width="2.5"/><rect x="700" y="490" width="78" height="54" rx="16" ry="16" fill="#FFF9F1" stroke="#3F6E8C" stroke-width="3"/><circle cx="726" cy="517" r="8" fill="#3F6E8C" stroke="none" stroke-width="2"/><circle cx="752" cy="517" r="8" fill="#3F6E8C" stroke="none" stroke-width="2"/><line x1="724" y1="544" x2="754" y2="544" stroke="#3F6E8C" stroke-width="3" stroke-linecap="round"/><line x1="739" y1="490" x2="739" y2="476" stroke="#3F6E8C" stroke-width="3" stroke-linecap="round"/><circle cx="739" cy="472" r="5" fill="#3F6E8C" stroke="none" stroke-width="2"/><text x="739" y="584" text-anchor="middle" font-size="22" font-weight="700" font-family="'Noto Sans SC','PingFang SC','Microsoft YaHei',sans-serif" fill="#1F2A24"><tspan x="739" y="584">供给方 Agent</tspan></text><rect x="1000" y="470" width="138" height="132" rx="34" ry="34" fill="#DDEAF3" stroke="#3F6E8C" stroke-width="2.5"/><rect x="1030" y="490" width="78" height="54" rx="16" ry="16" fill="#FFF9F1" stroke="#3F6E8C" stroke-width="3"/><circle cx="1056" cy="517" r="8" fill="#3F6E8C" stroke="none" stroke-width="2"/><circle cx="1082" cy="517" r="8" fill="#3F6E8C" stroke="none" stroke-width="2"/><line x1="1054" y1="544" x2="1084" y2="544" stroke="#3F6E8C" stroke-width="3" stroke-linecap="round"/><line x1="1069" y1="490" x2="1069" y2="476" stroke="#3F6E8C" stroke-width="3" stroke-linecap="round"/><circle cx="1069" cy="472" r="5" fill="#3F6E8C" stroke="none" stroke-width="2"/><text x="1069" y="584" text-anchor="middle" font-size="22" font-weight="700" font-family="'Noto Sans SC','PingFang SC','Microsoft YaHei',sans-serif" fill="#1F2A24"><tspan x="1069" y="584">供给方 Agent</tspan></text><rect x="1270" y="470" width="138" height="132" rx="34" ry="34" fill="#DDEAF3" stroke="#3F6E8C" stroke-width="2.5"/><rect x="1300" y="490" width="78" height="54" rx="16" ry="16" fill="#FFF9F1" stroke="#3F6E8C" stroke-width="3"/><circle cx="1326" cy="517" r="8" fill="#3F6E8C" stroke="none" stroke-width="2"/><circle cx="1352" cy="517" r="8" fill="#3F6E8C" stroke="none" stroke-width="2"/><line x1="1324" y1="544" x2="1354" y2="544" stroke="#3F6E8C" stroke-width="3" stroke-linecap="round"/><line x1="1339" y1="490" x2="1339" y2="476" stroke="#3F6E8C" stroke-width="3" stroke-linecap="round"/><circle cx="1339" cy="472" r="5" fill="#3F6E8C" stroke="none" stroke-width="2"/><text x="1339" y="584" text-anchor="middle" font-size="22" font-weight="700" font-family="'Noto Sans SC','PingFang SC','Microsoft YaHei',sans-serif" fill="#1F2A24"><tspan x="1339" y="584">供给方 Agent</tspan></text><rect x="700" y="650" width="160" height="48" rx="24" ry="24" fill="#E7F0E9" stroke="#BBD2C0" stroke-width="2"/><text x="780" y="682" text-anchor="middle" font-size="20" font-weight="600" font-family="'Noto Sans SC','PingFang SC','Microsoft YaHei',sans-serif" fill="#1F2A24"><tspan x="780" y="682">周期协作</tspan></text><rect x="1030" y="650" width="160" height="48" rx="24" ry="24" fill="#E7F0E9" stroke="#BBD2C0" stroke-width="2"/><text x="1110" y="682" text-anchor="middle" font-size="20" font-weight="600" font-family="'Noto Sans SC','PingFang SC','Microsoft YaHei',sans-serif" fill="#1F2A24"><tspan x="1110" y="682">任务包</tspan></text><rect x="1300" y="650" width="160" height="48" rx="24" ry="24" fill="#E7F0E9" stroke="#BBD2C0" stroke-width="2"/><text x="1380" y="682" text-anchor="middle" font-size="20" font-weight="600" font-family="'Noto Sans SC','PingFang SC','Microsoft YaHei',sans-serif" fill="#1F2A24"><tspan x="1380" y="682">长期关系</tspan></text><polyline points="218,306 280,306" fill="none" stroke="#D7A545" stroke-width="4" stroke-linecap="round" stroke-linejoin="round" marker-end="url(#arrow)"/><polyline points="418,306 520,306" fill="none" stroke="#7A9984" stroke-width="4" stroke-linecap="round" stroke-linejoin="round" marker-end="url(#arrow)"/><polyline points="760,360 760,470" fill="none" stroke="#7A9984" stroke-width="4" stroke-linecap="round" stroke-linejoin="round" marker-end="url(#arrow)"/><polyline points="1090,360 1090,470" fill="none" stroke="#7A9984" stroke-width="4" stroke-linecap="round" stroke-linejoin="round" marker-end="url(#arrow)"/><polyline points="1355,360 1355,470" fill="none" stroke="#7A9984" stroke-width="4" stroke-linecap="round" stroke-linejoin="round" marker-end="url(#arrow)"/><polyline points="418,336 620,336" fill="none" stroke="#7A9984" stroke-width="4" stroke-linecap="round" stroke-linejoin="round" stroke-dasharray="10 10"/>
</svg>
