<svg xmlns="http://www.w3.org/2000/svg" width="1600" height="940" viewBox="0 0 1600 940">
  <defs>
    <marker id="arrow" viewBox="0 0 10 10" refX="8" refY="5" markerWidth="8" markerHeight="8" orient="auto-start-reverse">
      <path d="M 0 0 L 10 5 L 0 10 z" fill="#C8734E"/>
    </marker>
  </defs>
  <title>fig06a</title>
  <rect x="0" y="0" width="1600" height="940" rx="0" ry="0" fill="#F7F0E4" stroke="none" stroke-width="2"/>
  <text x="800" y="74" text-anchor="middle" font-size="46" font-weight="700" font-family="'Noto Serif SC','Source Han Serif SC','Songti SC',serif" fill="#1F2A24"><tspan x="800" y="74">标准货架：大管家直接搜索现成服务并下单</tspan></text><line x1="520" y1="102" x2="1080" y2="102" stroke="#C8734E" stroke-width="5" stroke-linecap="round"/><rect x="80" y="280" width="130" height="130" rx="34" ry="34" fill="#F4E5BF" stroke="#D7A545" stroke-width="2.5"/><circle cx="145" cy="314" r="22" fill="#FFF9F1" stroke="#D7A545" stroke-width="3"/><path d="M 111 380 Q 145 340 179 380" fill="none" stroke="#D7A545" stroke-width="3" stroke-linecap="round" stroke-linejoin="round"/><line x1="145" y1="336" x2="145" y2="370" stroke="#D7A545" stroke-width="3" stroke-linecap="round"/><text x="145" y="392" text-anchor="middle" font-size="22" font-weight="700" font-family="'Noto Sans SC','PingFang SC','Microsoft YaHei',sans-serif" fill="#1F2A24"><tspan x="145" y="392">主人</tspan></text><rect x="260" y="270" width="138" height="132" rx="34" ry="34" fill="#DDEAF3" stroke="#3F6E8C" stroke-width="2.5"/><rect x="290" y="290" width="78" height="54" rx="16" ry="16" fill="#FFF9F1" stroke="#3F6E8C" stroke-width="3"/><circle cx="316" cy="317" r="8" fill="#3F6E8C" stroke="none" stroke-width="2"/><circle cx="342" cy="317" r="8" fill="#3F6E8C" stroke="none" stroke-width="2"/><line x1="314" y1="344" x2="344" y2="344" stroke="#3F6E8C" stroke-width="3" stroke-linecap="round"/><line x1="329" y1="290" x2="329" y2="276" stroke="#3F6E8C" stroke-width="3" stroke-linecap="round"/><circle cx="329" cy="272" r="5" fill="#3F6E8C" stroke="none" stroke-width="2"/><text x="329" y="384" text-anchor="middle" font-size="22" font-weight="700" font-family="'Noto Sans SC','PingFang SC','Microsoft YaHei',sans-serif" fill="#1F2A24"><tspan x="329" y="384">需求侧大管家</tspan></text><rect x="520" y="180" width="360" height="520" rx="30" ry="30" fill="#FFF9F1" stroke="#CDBDA7" stroke-width="2"/><rect x="520" y="180" width="360" height="14" rx="30" ry="30" fill="#C8734E" stroke="none" stroke-width="2"/><text x="548" y="232" text-anchor="start" font-size="28" font-weight="700" font-family="'Noto Sans SC','PingFang SC','Microsoft YaHei',sans-serif" fill="#1F2A24"><tspan x="548" y="232">标准货架</tspan></text><rect x="570" y="260" width="260" height="90" rx="26" ry="26" fill="#FFF9F1" stroke="#CDBDA7" stroke-width="2"/><text x="700" y="304" text-anchor="middle" font-size="26" font-weight="700" font-family="'Noto Sans SC','PingFang SC','Microsoft YaHei',sans-serif" fill="#1F2A24"><tspan x="700" y="304">视频剪辑服务</tspan></text><text x="700" y="342" text-anchor="middle" font-size="20" font-weight="500" font-family="'Noto Sans SC','PingFang SC','Microsoft YaHei',sans-serif" fill="#6E726C"><tspan x="700" y="342">价格带</tspan><tspan x="700" y="368.8">交付时效</tspan><tspan x="700" y="395.6">历史案例</tspan></text><rect x="570" y="390" width="260" height="90" rx="26" ry="26" fill="#FFF9F1" stroke="#CDBDA7" stroke-width="2"/><text x="700" y="434" text-anchor="middle" font-size="26" font-weight="700" font-family="'Noto Sans SC','PingFang SC','Microsoft YaHei',sans-serif" fill="#1F2A24"><tspan x="700" y="434">研究包服务</tspan></text><text x="700" y="472" text-anchor="middle" font-size="20" font-weight="500" font-family="'Noto Sans SC','PingFang SC','Microsoft YaHei',sans-serif" fill="#6E726C"><tspan x="700" y="472">价格带</tspan><tspan x="700" y="498.8">交付时效</tspan><tspan x="700" y="525.6">历史案例</tspan></text><rect x="570" y="520" width="260" height="90" rx="26" ry="26" fill="#FFF9F1" stroke="#CDBDA7" stroke-width="2"/><text x="700" y="564" text-anchor="middle" font-size="26" font-weight="700" font-family="'Noto Sans SC','PingFang SC','Microsoft YaHei',sans-serif" fill="#1F2A24"><tspan x="700" y="564">设计交付服务</tspan></text><text x="700" y="602" text-anchor="middle" font-size="20" font-weight="500" font-family="'Noto Sans SC','PingFang SC','Microsoft YaHei',sans-serif" fill="#6E726C"><tspan x="700" y="602">价格带</tspan><tspan x="700" y="628.8">交付时效</tspan><tspan x="700" y="655.6">历史案例</tspan></text><rect x="1040" y="250" width="138" height="132" rx="34" ry="34" fill="#DDEAF3" stroke="#3F6E8C" stroke-width="2.5"/><rect x="1070" y="270" width="78" height="54" rx="16" ry="16" fill="#FFF9F1" stroke="#3F6E8C" stroke-width="3"/><circle cx="1096" cy="297" r="8" fill="#3F6E8C" stroke="none" stroke-width="2"/><circle cx="1122" cy="297" r="8" fill="#3F6E8C" stroke="none" stroke-width="2"/><line x1="1094" y1="324" x2="1124" y2="324" stroke="#3F6E8C" stroke-width="3" stroke-linecap="round"/><line x1="1109" y1="270" x2="1109" y2="256" stroke="#3F6E8C" stroke-width="3" stroke-linecap="round"/><circle cx="1109" cy="252" r="5" fill="#3F6E8C" stroke="none" stroke-width="2"/><text x="1109" y="364" text-anchor="middle" font-size="22" font-weight="700" font-family="'Noto Sans SC','PingFang SC','Microsoft YaHei',sans-serif" fill="#1F2A24"><tspan x="1109" y="364">供给方 Agent</tspan></text><rect x="1230" y="250" width="138" height="132" rx="34" ry="34" fill="#DDEAF3" stroke="#3F6E8C" stroke-width="2.5"/><rect x="1260" y="270" width="78" height="54" rx="16" ry="16" fill="#FFF9F1" stroke="#3F6E8C" stroke-width="3"/><circle cx="1286" cy="297" r="8" fill="#3F6E8C" stroke="none" stroke-width="2"/><circle cx="1312" cy="297" r="8" fill="#3F6E8C" stroke="none" stroke-width="2"/><line x1="1284" y1="324" x2="1314" y2="324" stroke="#3F6E8C" stroke-width="3" stroke-linecap="round"/><line x1="1299" y1="270" x2="1299" y2="256" stroke="#3F6E8C" stroke-width="3" stroke-linecap="round"/><circle cx="1299" cy="252" r="5" fill="#3F6E8C" stroke="none" stroke-width="2"/><text x="1299" y="364" text-anchor="middle" font-size="22" font-weight="700" font-family="'Noto Sans SC','PingFang SC','Microsoft YaHei',sans-serif" fill="#1F2A24"><tspan x="1299" y="364">供给方 Agent</tspan></text><rect x="1060" y="530" width="320" height="130" rx="26" ry="26" fill="#F5F1EA" stroke="#CDBDA7" stroke-width="2"/><text x="1220" y="574" text-anchor="middle" font-size="26" font-weight="700" font-family="'Noto Sans SC','PingFang SC','Microsoft YaHei',sans-serif" fill="#1F2A24"><tspan x="1220" y="574">订单流转</tspan></text><text x="1220" y="612" text-anchor="middle" font-size="20" font-weight="500" font-family="'Noto Sans SC','PingFang SC','Microsoft YaHei',sans-serif" fill="#6E726C"><tspan x="1220" y="612">搜索 -&gt; 下单 -&gt; 接单 -&gt; 交付</tspan><tspan x="1220" y="638.8">交易主角始终是 Agent</tspan></text><polyline points="218,346 260,346" fill="none" stroke="#D7A545" stroke-width="4" stroke-linecap="round" stroke-linejoin="round" marker-end="url(#arrow)"/><polyline points="398,346 520,346" fill="none" stroke="#C8734E" stroke-width="4" stroke-linecap="round" stroke-linejoin="round" marker-end="url(#arrow)"/><polyline points="880,346 1040,346" fill="none" stroke="#C8734E" stroke-width="4" stroke-linecap="round" stroke-linejoin="round" marker-end="url(#arrow)"/><polyline points="880,376 1230,376" fill="none" stroke="#C8734E" stroke-width="4" stroke-linecap="round" stroke-linejoin="round" marker-end="url(#arrow)"/><polyline points="1040,402 1040,530" fill="none" stroke="#3F6E8C" stroke-width="4" stroke-linecap="round" stroke-linejoin="round" marker-end="url(#arrow)"/>
</svg>
