<svg xmlns="http://www.w3.org/2000/svg" width="1600" height="940" viewBox="0 0 1600 940">
  <defs>
    <marker id="arrow" viewBox="0 0 10 10" refX="8" refY="5" markerWidth="8" markerHeight="8" orient="auto-start-reverse">
      <path d="M 0 0 L 10 5 L 0 10 z" fill="#C8734E"/>
    </marker>
  </defs>
  <title>fig08b</title>
  <rect x="0" y="0" width="1600" height="940" rx="0" ry="0" fill="#F7F0E4" stroke="none" stroke-width="2"/>
  <text x="800" y="74" text-anchor="middle" font-size="46" font-weight="700" font-family="'Noto Serif SC','Source Han Serif SC','Songti SC',serif" fill="#1F2A24"><tspan x="800" y="74">复杂能力更适合在结果市场里发现价格</tspan></text><line x1="520" y1="102" x2="1080" y2="102" stroke="#C8734E" stroke-width="5" stroke-linecap="round"/><rect x="610" y="165" width="380" height="68" rx="34" ry="34" fill="#F4E5BF" stroke="#D7A545" stroke-width="2"/><text x="800" y="207" text-anchor="middle" font-size="30" font-weight="600" font-family="'Noto Sans SC','PingFang SC','Microsoft YaHei',sans-serif" fill="#1F2A24"><tspan x="800" y="207">同一个复杂任务：交付结果</tspan></text><rect x="90" y="280" width="520" height="430" rx="30" ry="30" fill="#FFF9F1" stroke="#CDBDA7" stroke-width="2"/><rect x="90" y="280" width="520" height="14" rx="30" ry="30" fill="#B9645D" stroke="none" stroke-width="2"/><text x="118" y="332" text-anchor="start" font-size="28" font-weight="700" font-family="'Noto Sans SC','PingFang SC','Microsoft YaHei',sans-serif" fill="#1F2A24"><tspan x="118" y="332">简单 API / token 计价</tspan></text><text x="118" y="372" text-anchor="start" font-size="22" font-weight="500" font-family="'Noto Sans SC','PingFang SC','Microsoft YaHei',sans-serif" fill="#6E726C"><tspan x="118" y="372">按 token / 次数 / 算力计费</tspan><tspan x="118" y="401.92">更像底层成本</tspan><tspan x="118" y="431.84000000000003">难覆盖 workflow 与审核</tspan></text><rect x="990" y="280" width="520" height="430" rx="30" ry="30" fill="#FFF9F1" stroke="#CDBDA7" stroke-width="2"/><rect x="990" y="280" width="520" height="14" rx="30" ry="30" fill="#7A9984" stroke="none" stroke-width="2"/><text x="1018" y="332" text-anchor="start" font-size="28" font-weight="700" font-family="'Noto Sans SC','PingFang SC','Microsoft YaHei',sans-serif" fill="#1F2A24"><tspan x="1018" y="332">结果服务市场定价</tspan></text><text x="1018" y="372" text-anchor="start" font-size="22" font-weight="500" font-family="'Noto Sans SC','PingFang SC','Microsoft YaHei',sans-serif" fill="#6E726C"><tspan x="1018" y="372">多个供给方给出结果报价</tspan><tspan x="1018" y="401.92">价格与交付责任一起比较</tspan><tspan x="1018" y="431.84000000000003">由市场发现价格带</tspan></text><rect x="200" y="450" width="300" height="120" rx="26" ry="26" fill="#F0D4D1" stroke="#DCA8A1" stroke-width="2"/><text x="350" y="494" text-anchor="middle" font-size="26" font-weight="700" font-family="'Noto Sans SC','PingFang SC','Microsoft YaHei',sans-serif" fill="#1F2A24"><tspan x="350" y="494">API 成本</tspan></text><text x="350" y="532" text-anchor="middle" font-size="20" font-weight="500" font-family="'Noto Sans SC','PingFang SC','Microsoft YaHei',sans-serif" fill="#6E726C"><tspan x="350" y="532">token</tspan><tspan x="350" y="558.8">调用次数</tspan><tspan x="350" y="585.6">基础算力</tspan></text><rect x="1100" y="390" width="300" height="90" rx="26" ry="26" fill="#DCE9DF" stroke="#7A9984" stroke-width="2"/><text x="1250" y="434" text-anchor="middle" font-size="26" font-weight="700" font-family="'Noto Sans SC','PingFang SC','Microsoft YaHei',sans-serif" fill="#1F2A24"><tspan x="1250" y="434">供应商 A</tspan></text><text x="1250" y="472" text-anchor="middle" font-size="20" font-weight="500" font-family="'Noto Sans SC','PingFang SC','Microsoft YaHei',sans-serif" fill="#6E726C"><tspan x="1250" y="472">结果报价：80 LobCoin</tspan></text><rect x="1100" y="510" width="300" height="90" rx="26" ry="26" fill="#DCE9DF" stroke="#7A9984" stroke-width="2"/><text x="1250" y="554" text-anchor="middle" font-size="26" font-weight="700" font-family="'Noto Sans SC','PingFang SC','Microsoft YaHei',sans-serif" fill="#1F2A24"><tspan x="1250" y="554">供应商 B</tspan></text><text x="1250" y="592" text-anchor="middle" font-size="20" font-weight="500" font-family="'Noto Sans SC','PingFang SC','Microsoft YaHei',sans-serif" fill="#6E726C"><tspan x="1250" y="592">结果报价：110 LobCoin</tspan></text><rect x="1100" y="630" width="300" height="90" rx="26" ry="26" fill="#DCE9DF" stroke="#7A9984" stroke-width="2"/><text x="1250" y="674" text-anchor="middle" font-size="26" font-weight="700" font-family="'Noto Sans SC','PingFang SC','Microsoft YaHei',sans-serif" fill="#1F2A24"><tspan x="1250" y="674">供应商 C</tspan></text><text x="1250" y="712" text-anchor="middle" font-size="20" font-weight="500" font-family="'Noto Sans SC','PingFang SC','Microsoft YaHei',sans-serif" fill="#6E726C"><tspan x="1250" y="712">结果报价：95 LobCoin</tspan></text><polyline points="800,233 800,245 350,245 350,280" fill="none" stroke="#B9645D" stroke-width="4" stroke-linecap="round" stroke-linejoin="round" marker-end="url(#arrow)"/><polyline points="800,233 800,245 1250,245 1250,280" fill="none" stroke="#7A9984" stroke-width="4" stroke-linecap="round" stroke-linejoin="round" marker-end="url(#arrow)"/>
</svg>
