<svg xmlns="http://www.w3.org/2000/svg" width="1600" height="940" viewBox="0 0 1600 940">
  <defs>
    <marker id="arrow" viewBox="0 0 10 10" refX="8" refY="5" markerWidth="8" markerHeight="8" orient="auto-start-reverse">
      <path d="M 0 0 L 10 5 L 0 10 z" fill="#C8734E"/>
    </marker>
  </defs>
  <title>fig03b</title>
  <rect x="0" y="0" width="1600" height="940" rx="0" ry="0" fill="#F7F0E4" stroke="none" stroke-width="2"/>
  <text x="800" y="74" text-anchor="middle" font-size="46" font-weight="700" font-family="'Noto Serif SC','Source Han Serif SC','Songti SC',serif" fill="#1F2A24"><tspan x="800" y="74">Money 是一套市场协议</tspan></text><line x1="520" y1="102" x2="1080" y2="102" stroke="#C8734E" stroke-width="5" stroke-linecap="round"/><rect x="35" y="390" width="190" height="92" rx="28" ry="28" fill="#F4E5BF" stroke="#D7A545" stroke-width="2"/><text x="130" y="444" text-anchor="middle" font-size="28" font-weight="700" font-family="'Noto Sans SC','PingFang SC','Microsoft YaHei',sans-serif" fill="#1F2A24"><tspan x="130" y="444">预算授权</tspan></text><line x1="225" y1="436" x2="285" y2="436" stroke="#C8734E" stroke-width="5" stroke-linecap="round" marker-end="url(#arrow)"/><rect x="285" y="390" width="190" height="92" rx="28" ry="28" fill="#DDEAF3" stroke="#7EA8C8" stroke-width="2"/><text x="380" y="444" text-anchor="middle" font-size="28" font-weight="700" font-family="'Noto Sans SC','PingFang SC','Microsoft YaHei',sans-serif" fill="#1F2A24"><tspan x="380" y="444">价格发现</tspan></text><line x1="475" y1="436" x2="535" y2="436" stroke="#C8734E" stroke-width="5" stroke-linecap="round" marker-end="url(#arrow)"/><rect x="535" y="390" width="190" height="92" rx="28" ry="28" fill="#F4E5BF" stroke="#D7A545" stroke-width="2"/><text x="630" y="444" text-anchor="middle" font-size="28" font-weight="700" font-family="'Noto Sans SC','PingFang SC','Microsoft YaHei',sans-serif" fill="#1F2A24"><tspan x="630" y="444">履约边界</tspan></text><line x1="725" y1="436" x2="785" y2="436" stroke="#C8734E" stroke-width="5" stroke-linecap="round" marker-end="url(#arrow)"/><rect x="785" y="390" width="190" height="92" rx="28" ry="28" fill="#DDEAF3" stroke="#7EA8C8" stroke-width="2"/><text x="880" y="444" text-anchor="middle" font-size="28" font-weight="700" font-family="'Noto Sans SC','PingFang SC','Microsoft YaHei',sans-serif" fill="#1F2A24"><tspan x="880" y="444">验收证据</tspan></text><line x1="975" y1="436" x2="1035" y2="436" stroke="#C8734E" stroke-width="5" stroke-linecap="round" marker-end="url(#arrow)"/><rect x="1035" y="390" width="190" height="92" rx="28" ry="28" fill="#F4E5BF" stroke="#D7A545" stroke-width="2"/><text x="1130" y="444" text-anchor="middle" font-size="28" font-weight="700" font-family="'Noto Sans SC','PingFang SC','Microsoft YaHei',sans-serif" fill="#1F2A24"><tspan x="1130" y="444">信用沉淀</tspan></text><line x1="1225" y1="436" x2="1285" y2="436" stroke="#C8734E" stroke-width="5" stroke-linecap="round" marker-end="url(#arrow)"/><rect x="1285" y="390" width="190" height="92" rx="28" ry="28" fill="#DDEAF3" stroke="#7EA8C8" stroke-width="2"/><text x="1380" y="444" text-anchor="middle" font-size="28" font-weight="700" font-family="'Noto Sans SC','PingFang SC','Microsoft YaHei',sans-serif" fill="#1F2A24"><tspan x="1380" y="444">再交易</tspan></text><text x="800" y="585" text-anchor="middle" font-size="24" font-weight="500" font-family="'Noto Sans SC','PingFang SC','Microsoft YaHei',sans-serif" fill="#6E726C"><tspan x="800" y="585">预算并不是最后一步，而是从授权到复用的一整套交易结构。</tspan></text>
</svg>
