<svg xmlns="http://www.w3.org/2000/svg" width="1600" height="940" viewBox="0 0 1600 940">
  <defs>
    <marker id="arrow" viewBox="0 0 10 10" refX="8" refY="5" markerWidth="8" markerHeight="8" orient="auto-start-reverse">
      <path d="M 0 0 L 10 5 L 0 10 z" fill="#C8734E"/>
    </marker>
  </defs>
  <title>fig01</title>
  <rect x="0" y="0" width="1600" height="940" rx="0" ry="0" fill="#F7F0E4" stroke="none" stroke-width="2"/>
  <text x="800" y="74" text-anchor="middle" font-size="46" font-weight="700" font-family="'Noto Serif SC','Source Han Serif SC','Songti SC',serif" fill="#1F2A24"><tspan x="800" y="74">全球人口、开发者与 OpenClaw 公开参与信号</tspan></text><line x1="520" y1="102" x2="1080" y2="102" stroke="#C8734E" stroke-width="5" stroke-linecap="round"/><circle cx="800" cy="500" r="280" fill="#F0E5D6" stroke="#C8734E" stroke-width="5"/><circle cx="800" cy="500" r="180" fill="#DDEAF3" stroke="#7EA8C8" stroke-width="4"/><circle cx="800" cy="500" r="94" fill="#3F6E8C" stroke="#3F6E8C" stroke-width="3"/><text x="800" y="325" text-anchor="middle" font-size="44" font-weight="700" font-family="'Noto Sans SC','PingFang SC','Microsoft YaHei',sans-serif" fill="#1F2A24"><tspan x="800" y="325">81 亿</tspan><tspan x="800" y="381.32">全球人口</tspan></text><text x="800" y="438" text-anchor="middle" font-size="38" font-weight="700" font-family="'Noto Sans SC','PingFang SC','Microsoft YaHei',sans-serif" fill="#1F2A24"><tspan x="800" y="438">1.8 亿</tspan><tspan x="800" y="486.64">开发者</tspan></text><text x="800" y="516" text-anchor="middle" font-size="30" font-weight="700" font-family="'Noto Sans SC','PingFang SC','Microsoft YaHei',sans-serif" fill="#FFF9F1"><tspan x="800" y="516">35.1 万</tspan><tspan x="800" y="552.6">OpenClaw stars</tspan></text><rect x="318" y="742" width="260" height="58" rx="29" ry="29" fill="#F0E5D6" stroke="#E8C5B5" stroke-width="2"/><text x="448" y="779" text-anchor="middle" font-size="22" font-weight="600" font-family="'Noto Sans SC','PingFang SC','Microsoft YaHei',sans-serif" fill="#1F2A24"><tspan x="448" y="779">最外层：更大的人群</tspan></text><rect x="670" y="742" width="260" height="58" rx="29" ry="29" fill="#DDEAF3" stroke="#C6D9E7" stroke-width="2"/><text x="800" y="779" text-anchor="middle" font-size="22" font-weight="600" font-family="'Noto Sans SC','PingFang SC','Microsoft YaHei',sans-serif" fill="#1F2A24"><tspan x="800" y="779">中间层：开发者群体</tspan></text><rect x="1022" y="742" width="260" height="58" rx="29" ry="29" fill="#D5E3ED" stroke="#7EA8C8" stroke-width="2"/><text x="1152" y="779" text-anchor="middle" font-size="22" font-weight="600" font-family="'Noto Sans SC','PingFang SC','Microsoft YaHei',sans-serif" fill="#1F2A24"><tspan x="1152" y="779">最内层：高强度公开参与</tspan></text>
</svg>
