<?xml version="1.0" encoding="UTF-8"?>
<svg xmlns="http://www.w3.org/2000/svg" width="1616" height="968" viewBox="0 0 1616 968">
  <defs>

    <marker id="canvasArrowExport-_3f6e8c" viewBox="0 0 8 8" refX="6.2" refY="4" markerWidth="6" markerHeight="6" orient="auto-start-reverse">
      <path d="M 0 0 L 8 4 L 0 8 z" fill="#3f6e8c"></path>
    </marker>
  </defs>
  <rect x="0" y="0" width="1616" height="968" fill="#f7f0e4"></rect>
  <g transform="translate(-96, -96.79999923706055)">
  
  <svg xmlns="http://www.w3.org/2000/svg" width="1568" height="920" viewBox="16 10 1568 920" x="120" y="120.79999923706055" preserveAspectRatio="xMidYMid meet"><defs xmlns="http://www.w3.org/2000/svg">
    <marker id="arrow" viewBox="0 0 8 8" refX="6.2" refY="4" markerWidth="6" markerHeight="6" orient="auto-start-reverse">
      <path d="M 0 0 L 8 4 L 0 8 z" fill="#C8734E"/>
    </marker>
  </defs><g xmlns="http://www.w3.org/2000/svg" data-editor-group="component" data-editor-name="export-frame"><rect x="28" y="22" width="1544" height="896" rx="28" ry="28" fill="none" stroke="#CDBDA7" stroke-width="2" opacity="0.45"/></g></svg>
<svg xmlns="http://www.w3.org/2000/svg" width="966" height="105" viewBox="317 9 966 105" x="421.2541809082031" y="120" preserveAspectRatio="xMidYMid meet"><defs xmlns="http://www.w3.org/2000/svg">
    <marker id="arrow" viewBox="0 0 8 8" refX="6.2" refY="4" markerWidth="6" markerHeight="6" orient="auto-start-reverse">
      <path d="M 0 0 L 8 4 L 0 8 z" fill="#C8734E"/>
    </marker>
  </defs><g xmlns="http://www.w3.org/2000/svg" data-editor-group="component" data-editor-name="title-block"><g data-editor-subitem="true" data-editor-subitem-name="title"><text x="800" y="74" text-anchor="middle" font-size="46" font-weight="700" font-family="'Noto Serif SC','Source Han Serif SC','Songti SC',serif" fill="#1F2A24"><tspan x="800" y="74" text-anchor="middle">多入口专用 Agent 与单一大管家的上下文差异</tspan></text></g><g data-editor-subitem="true" data-editor-subitem-name="underline"><line x1="520" y1="102" x2="1080" y2="102" stroke="#C8734E" stroke-width="5" stroke-linecap="round"/></g></g></svg>
<svg xmlns="http://www.w3.org/2000/svg" width="724" height="644" viewBox="48 148 724 644" x="152" y="258.79999923706055" preserveAspectRatio="xMidYMid meet"><defs xmlns="http://www.w3.org/2000/svg">
    <marker id="arrow" viewBox="0 0 8 8" refX="6.2" refY="4" markerWidth="6" markerHeight="6" orient="auto-start-reverse">
      <path d="M 0 0 L 8 4 L 0 8 z" fill="#C8734E"/>
    </marker>
  </defs><g xmlns="http://www.w3.org/2000/svg" data-editor-group="component" data-editor-name="card:左侧：多个专用入口"><g data-editor-subitem="true" data-editor-subitem-name="card-shell"><rect x="60" y="160" width="700" height="620" rx="30" ry="30" fill="#FFF9F1" stroke="#CDBDA7" stroke-width="2"/></g><g data-editor-subitem="true" data-editor-subitem-name="card-header"><rect x="60" y="160" width="700" height="14" rx="30" ry="30" fill="#B9645D" stroke="none" stroke-width="2"/></g><g data-editor-subitem="true" data-editor-subitem-name="card-title"><text x="88" y="212" text-anchor="start" font-size="28" font-weight="700" font-family="'Noto Sans SC','PingFang SC','Microsoft YaHei',sans-serif" fill="#1F2A24"><tspan x="88" y="212" text-anchor="start">左侧：多个专用入口</tspan></text></g></g></svg>
<svg xmlns="http://www.w3.org/2000/svg" width="724" height="644" viewBox="828 148 724 644" x="932" y="258.79999923706055" preserveAspectRatio="xMidYMid meet"><defs xmlns="http://www.w3.org/2000/svg">
    <marker id="arrow" viewBox="0 0 8 8" refX="6.2" refY="4" markerWidth="6" markerHeight="6" orient="auto-start-reverse">
      <path d="M 0 0 L 8 4 L 0 8 z" fill="#C8734E"/>
    </marker>
  </defs><g xmlns="http://www.w3.org/2000/svg" data-editor-group="component" data-editor-name="card:右侧：一个大管家统一调度"><g data-editor-subitem="true" data-editor-subitem-name="card-shell"><rect x="840" y="160" width="700" height="620" rx="30" ry="30" fill="#FFF9F1" stroke="#CDBDA7" stroke-width="2"/></g><g data-editor-subitem="true" data-editor-subitem-name="card-header"><rect x="840" y="160" width="700" height="14" rx="30" ry="30" fill="#7A9984" stroke="none" stroke-width="2"/></g><g data-editor-subitem="true" data-editor-subitem-name="card-title"><text x="868" y="212" text-anchor="start" font-size="28" font-weight="700" font-family="'Noto Sans SC','PingFang SC','Microsoft YaHei',sans-serif" fill="#1F2A24"><tspan x="868" y="212" text-anchor="start">右侧：一个大管家统一调度</tspan></text></g></g></svg>
<svg xmlns="http://www.w3.org/2000/svg" width="154" height="154" viewBox="318 228 154 154" x="422" y="338.79999923706055" preserveAspectRatio="xMidYMid meet"><defs xmlns="http://www.w3.org/2000/svg">
    <marker id="arrow" viewBox="0 0 8 8" refX="6.2" refY="4" markerWidth="6" markerHeight="6" orient="auto-start-reverse">
      <path d="M 0 0 L 8 4 L 0 8 z" fill="#C8734E"/>
    </marker>
  </defs><g xmlns="http://www.w3.org/2000/svg" data-editor-group="component" data-editor-name="actor:主人"><g data-editor-subitem="true" data-editor-subitem-name="actor-shell"><rect x="330" y="240" width="130" height="130" rx="34" ry="34" fill="#F4E5BF" stroke="#D7A545" stroke-width="2.5"/></g><g data-editor-subitem="true" data-editor-subitem-name="actor-icon"><circle cx="395" cy="274" r="22" fill="#FFF9F1" stroke="#D7A545" stroke-width="3"/><path d="M 361 340 Q 395 300 429 340" fill="none" stroke="#D7A545" stroke-width="3" stroke-linecap="round" stroke-linejoin="round"/><line x1="395" y1="296" x2="395" y2="330" stroke="#D7A545" stroke-width="3" stroke-linecap="round"/></g><g data-editor-subitem="true" data-editor-subitem-name="actor-label"><text x="395" y="352" text-anchor="middle" font-size="22" font-weight="700" font-family="'Noto Sans SC','PingFang SC','Microsoft YaHei',sans-serif" fill="#1F2A24"><tspan x="395" y="352" text-anchor="middle">主人</tspan></text></g></g></svg>
<svg xmlns="http://www.w3.org/2000/svg" width="162" height="159" viewBox="118 455 162 159" x="201.33331298828125" y="658.4666862487793" preserveAspectRatio="xMidYMid meet"><defs xmlns="http://www.w3.org/2000/svg">
    <marker id="arrow" viewBox="0 0 8 8" refX="6.2" refY="4" markerWidth="6" markerHeight="6" orient="auto-start-reverse">
      <path d="M 0 0 L 8 4 L 0 8 z" fill="#C8734E"/>
    </marker>
  </defs><g xmlns="http://www.w3.org/2000/svg" data-editor-group="component" data-editor-name="agent:视频 Agent"><g data-editor-subitem="true" data-editor-subitem-name="agent-shell"><rect x="130" y="470" width="138" height="132" rx="34" ry="34" fill="#DDEAF3" stroke="#3F6E8C" stroke-width="2.5"/></g><g data-editor-subitem="true" data-editor-subitem-name="agent-icon"><rect x="160" y="490" width="78" height="54" rx="16" ry="16" fill="#FFF9F1" stroke="#3F6E8C" stroke-width="3"/><circle cx="186" cy="517" r="8" fill="#3F6E8C" stroke="none" stroke-width="2"/><circle cx="212" cy="517" r="8" fill="#3F6E8C" stroke="none" stroke-width="2"/><line x1="184" y1="544" x2="214" y2="544" stroke="#3F6E8C" stroke-width="3" stroke-linecap="round"/><line x1="199" y1="490" x2="199" y2="476" stroke="#3F6E8C" stroke-width="3" stroke-linecap="round"/><circle cx="199" cy="472" r="5" fill="#3F6E8C" stroke="none" stroke-width="2"/></g><g data-editor-subitem="true" data-editor-subitem-name="agent-label"><text x="199" y="584" text-anchor="middle" font-size="22" font-weight="700" font-family="'Noto Sans SC','PingFang SC','Microsoft YaHei',sans-serif" fill="#1F2A24"><tspan x="199" y="584" text-anchor="middle">视频 Agent</tspan></text></g></g></svg>
<svg xmlns="http://www.w3.org/2000/svg" width="162" height="159" viewBox="298 455 162 159" x="418.66668701171875" y="657.1333122253418" preserveAspectRatio="xMidYMid meet"><defs xmlns="http://www.w3.org/2000/svg">
    <marker id="arrow" viewBox="0 0 8 8" refX="6.2" refY="4" markerWidth="6" markerHeight="6" orient="auto-start-reverse">
      <path d="M 0 0 L 8 4 L 0 8 z" fill="#C8734E"/>
    </marker>
  </defs><g xmlns="http://www.w3.org/2000/svg" data-editor-group="component" data-editor-name="agent:邮件 Agent"><g data-editor-subitem="true" data-editor-subitem-name="agent-shell"><rect x="310" y="470" width="138" height="132" rx="34" ry="34" fill="#DDEAF3" stroke="#3F6E8C" stroke-width="2.5"/></g><g data-editor-subitem="true" data-editor-subitem-name="agent-icon"><rect x="340" y="490" width="78" height="54" rx="16" ry="16" fill="#FFF9F1" stroke="#3F6E8C" stroke-width="3"/><circle cx="366" cy="517" r="8" fill="#3F6E8C" stroke="none" stroke-width="2"/><circle cx="392" cy="517" r="8" fill="#3F6E8C" stroke="none" stroke-width="2"/><line x1="364" y1="544" x2="394" y2="544" stroke="#3F6E8C" stroke-width="3" stroke-linecap="round"/><line x1="379" y1="490" x2="379" y2="476" stroke="#3F6E8C" stroke-width="3" stroke-linecap="round"/><circle cx="379" cy="472" r="5" fill="#3F6E8C" stroke="none" stroke-width="2"/></g><g data-editor-subitem="true" data-editor-subitem-name="agent-label"><text x="379" y="584" text-anchor="middle" font-size="22" font-weight="700" font-family="'Noto Sans SC','PingFang SC','Microsoft YaHei',sans-serif" fill="#1F2A24"><tspan x="379" y="584" text-anchor="middle">邮件 Agent</tspan></text></g></g></svg>
<svg xmlns="http://www.w3.org/2000/svg" width="162" height="159" viewBox="478 455 162 159" x="644.6666259765625" y="657.7999992370605" preserveAspectRatio="xMidYMid meet"><defs xmlns="http://www.w3.org/2000/svg">
    <marker id="arrow" viewBox="0 0 8 8" refX="6.2" refY="4" markerWidth="6" markerHeight="6" orient="auto-start-reverse">
      <path d="M 0 0 L 8 4 L 0 8 z" fill="#C8734E"/>
    </marker>
  </defs><g xmlns="http://www.w3.org/2000/svg" data-editor-group="component" data-editor-name="agent:投放 Agent"><g data-editor-subitem="true" data-editor-subitem-name="agent-shell"><rect x="490" y="470" width="138" height="132" rx="34" ry="34" fill="#DDEAF3" stroke="#3F6E8C" stroke-width="2.5"/></g><g data-editor-subitem="true" data-editor-subitem-name="agent-icon"><rect x="520" y="490" width="78" height="54" rx="16" ry="16" fill="#FFF9F1" stroke="#3F6E8C" stroke-width="3"/><circle cx="546" cy="517" r="8" fill="#3F6E8C" stroke="none" stroke-width="2"/><circle cx="572" cy="517" r="8" fill="#3F6E8C" stroke="none" stroke-width="2"/><line x1="544" y1="544" x2="574" y2="544" stroke="#3F6E8C" stroke-width="3" stroke-linecap="round"/><line x1="559" y1="490" x2="559" y2="476" stroke="#3F6E8C" stroke-width="3" stroke-linecap="round"/><circle cx="559" cy="472" r="5" fill="#3F6E8C" stroke="none" stroke-width="2"/></g><g data-editor-subitem="true" data-editor-subitem-name="agent-label"><text x="559" y="584" text-anchor="middle" font-size="22" font-weight="700" font-family="'Noto Sans SC','PingFang SC','Microsoft YaHei',sans-serif" fill="#1F2A24"><tspan x="559" y="584" text-anchor="middle">投放 Agent</tspan></text></g></g></svg>
<svg xmlns="http://www.w3.org/2000/svg" width="174" height="70" viewBox="108 368 174 70" x="235.33331298828125" y="462.13337326049805" preserveAspectRatio="xMidYMid meet"><defs xmlns="http://www.w3.org/2000/svg">
    <marker id="arrow" viewBox="0 0 8 8" refX="6.2" refY="4" markerWidth="6" markerHeight="6" orient="auto-start-reverse">
      <path d="M 0 0 L 8 4 L 0 8 z" fill="#C8734E"/>
    </marker>
  </defs><g xmlns="http://www.w3.org/2000/svg" data-editor-group="component" data-editor-name="chip:重复喂素材"><g data-editor-subitem="true" data-editor-subitem-name="chip-shell"><rect x="120" y="380" width="150" height="46" rx="23" ry="23" fill="#F0D4D1" stroke="#DDA9A2" stroke-width="2"/></g><g data-editor-subitem="true" data-editor-subitem-name="chip-label"><text x="195" y="411" text-anchor="middle" font-size="20" font-weight="600" font-family="'Noto Sans SC','PingFang SC','Microsoft YaHei',sans-serif" fill="#1F2A24"><tspan x="195" y="411" text-anchor="middle">重复喂素材</tspan></text></g></g></svg>
<svg xmlns="http://www.w3.org/2000/svg" width="174" height="70" viewBox="468 368 174 70" x="601.3333740234375" y="430.1333122253418" preserveAspectRatio="xMidYMid meet"><defs xmlns="http://www.w3.org/2000/svg">
    <marker id="arrow" viewBox="0 0 8 8" refX="6.2" refY="4" markerWidth="6" markerHeight="6" orient="auto-start-reverse">
      <path d="M 0 0 L 8 4 L 0 8 z" fill="#C8734E"/>
    </marker>
  </defs><g xmlns="http://www.w3.org/2000/svg" data-editor-group="component" data-editor-name="chip:重复同步规则"><g data-editor-subitem="true" data-editor-subitem-name="chip-shell"><rect x="480" y="380" width="150" height="46" rx="23" ry="23" fill="#F0D4D1" stroke="#DDA9A2" stroke-width="2"/></g><g data-editor-subitem="true" data-editor-subitem-name="chip-label"><text x="555" y="411" text-anchor="middle" font-size="20" font-weight="600" font-family="'Noto Sans SC','PingFang SC','Microsoft YaHei',sans-serif" fill="#1F2A24"><tspan x="555" y="411" text-anchor="middle">重复同步规则</tspan></text></g></g></svg>
<svg xmlns="http://www.w3.org/2000/svg" width="154" height="154" viewBox="928 248 154 154" x="982.6666259765625" y="358.1333122253418" preserveAspectRatio="xMidYMid meet"><defs xmlns="http://www.w3.org/2000/svg">
    <marker id="arrow" viewBox="0 0 8 8" refX="6.2" refY="4" markerWidth="6" markerHeight="6" orient="auto-start-reverse">
      <path d="M 0 0 L 8 4 L 0 8 z" fill="#C8734E"/>
    </marker>
  </defs><g xmlns="http://www.w3.org/2000/svg" data-editor-group="component" data-editor-name="actor:主人"><g data-editor-subitem="true" data-editor-subitem-name="actor-shell"><rect x="940" y="260" width="130" height="130" rx="34" ry="34" fill="#F4E5BF" stroke="#D7A545" stroke-width="2.5"/></g><g data-editor-subitem="true" data-editor-subitem-name="actor-icon"><circle cx="1005" cy="294" r="22" fill="#FFF9F1" stroke="#D7A545" stroke-width="3"/><path d="M 971 360 Q 1005 320 1039 360" fill="none" stroke="#D7A545" stroke-width="3" stroke-linecap="round" stroke-linejoin="round"/><line x1="1005" y1="316" x2="1005" y2="350" stroke="#D7A545" stroke-width="3" stroke-linecap="round"/></g><g data-editor-subitem="true" data-editor-subitem-name="actor-label"><text x="1005" y="372" text-anchor="middle" font-size="22" font-weight="700" font-family="'Noto Sans SC','PingFang SC','Microsoft YaHei',sans-serif" fill="#1F2A24"><tspan x="1005" y="372" text-anchor="middle">主人</tspan></text></g></g></svg>
<svg xmlns="http://www.w3.org/2000/svg" width="162" height="159" viewBox="1128 235 162 159" x="1442" y="355.8000602722168" preserveAspectRatio="xMidYMid meet"><defs xmlns="http://www.w3.org/2000/svg">
    <marker id="arrow" viewBox="0 0 8 8" refX="6.2" refY="4" markerWidth="6" markerHeight="6" orient="auto-start-reverse">
      <path d="M 0 0 L 8 4 L 0 8 z" fill="#C8734E"/>
    </marker>
  </defs><g xmlns="http://www.w3.org/2000/svg" data-editor-group="component" data-editor-name="agent:大管家"><g data-editor-subitem="true" data-editor-subitem-name="agent-shell"><rect x="1140" y="250" width="138" height="132" rx="34" ry="34" fill="#DDEAF3" stroke="#3F6E8C" stroke-width="2.5"/></g><g data-editor-subitem="true" data-editor-subitem-name="agent-icon"><rect x="1170" y="270" width="78" height="54" rx="16" ry="16" fill="#FFF9F1" stroke="#3F6E8C" stroke-width="3"/><circle cx="1196" cy="297" r="8" fill="#3F6E8C" stroke="none" stroke-width="2"/><circle cx="1222" cy="297" r="8" fill="#3F6E8C" stroke="none" stroke-width="2"/><line x1="1194" y1="324" x2="1224" y2="324" stroke="#3F6E8C" stroke-width="3" stroke-linecap="round"/><line x1="1209" y1="270" x2="1209" y2="256" stroke="#3F6E8C" stroke-width="3" stroke-linecap="round"/><circle cx="1209" cy="252" r="5" fill="#3F6E8C" stroke="none" stroke-width="2"/></g><g data-editor-subitem="true" data-editor-subitem-name="agent-label"><text x="1209" y="364" text-anchor="middle" font-size="22" font-weight="700" font-family="'Noto Sans SC','PingFang SC','Microsoft YaHei',sans-serif" fill="#1F2A24"><tspan x="1209" y="364" text-anchor="middle">Agent管家</tspan></text></g></g></svg>
<svg xmlns="http://www.w3.org/2000/svg" width="162" height="159" viewBox="918 545 162 159" x="1022" y="655.7999992370605" preserveAspectRatio="xMidYMid meet"><defs xmlns="http://www.w3.org/2000/svg">
    <marker id="arrow" viewBox="0 0 8 8" refX="6.2" refY="4" markerWidth="6" markerHeight="6" orient="auto-start-reverse">
      <path d="M 0 0 L 8 4 L 0 8 z" fill="#C8734E"/>
    </marker>
  </defs><g xmlns="http://www.w3.org/2000/svg" data-editor-group="component" data-editor-name="agent:视频执行者"><g data-editor-subitem="true" data-editor-subitem-name="agent-shell"><rect x="930" y="560" width="138" height="132" rx="34" ry="34" fill="#DDEAF3" stroke="#3F6E8C" stroke-width="2.5"/></g><g data-editor-subitem="true" data-editor-subitem-name="agent-icon"><rect x="960" y="580" width="78" height="54" rx="16" ry="16" fill="#FFF9F1" stroke="#3F6E8C" stroke-width="3"/><circle cx="986" cy="607" r="8" fill="#3F6E8C" stroke="none" stroke-width="2"/><circle cx="1012" cy="607" r="8" fill="#3F6E8C" stroke="none" stroke-width="2"/><line x1="984" y1="634" x2="1014" y2="634" stroke="#3F6E8C" stroke-width="3" stroke-linecap="round"/><line x1="999" y1="580" x2="999" y2="566" stroke="#3F6E8C" stroke-width="3" stroke-linecap="round"/><circle cx="999" cy="562" r="5" fill="#3F6E8C" stroke="none" stroke-width="2"/></g><g data-editor-subitem="true" data-editor-subitem-name="agent-label"><text x="999" y="674" text-anchor="middle" font-size="22" font-weight="700" font-family="'Noto Sans SC','PingFang SC','Microsoft YaHei',sans-serif" fill="#1F2A24"><tspan x="999" y="674" text-anchor="middle">视频Agent</tspan></text></g></g></svg>
<svg xmlns="http://www.w3.org/2000/svg" width="162" height="159" viewBox="1128 545 162 159" x="1232" y="655.7999992370605" preserveAspectRatio="xMidYMid meet"><defs xmlns="http://www.w3.org/2000/svg">
    <marker id="arrow" viewBox="0 0 8 8" refX="6.2" refY="4" markerWidth="6" markerHeight="6" orient="auto-start-reverse">
      <path d="M 0 0 L 8 4 L 0 8 z" fill="#C8734E"/>
    </marker>
  </defs><g xmlns="http://www.w3.org/2000/svg" data-editor-group="component" data-editor-name="agent:邮件执行者"><g data-editor-subitem="true" data-editor-subitem-name="agent-shell"><rect x="1140" y="560" width="138" height="132" rx="34" ry="34" fill="#DDEAF3" stroke="#3F6E8C" stroke-width="2.5"/></g><g data-editor-subitem="true" data-editor-subitem-name="agent-icon"><rect x="1170" y="580" width="78" height="54" rx="16" ry="16" fill="#FFF9F1" stroke="#3F6E8C" stroke-width="3"/><circle cx="1196" cy="607" r="8" fill="#3F6E8C" stroke="none" stroke-width="2"/><circle cx="1222" cy="607" r="8" fill="#3F6E8C" stroke="none" stroke-width="2"/><line x1="1194" y1="634" x2="1224" y2="634" stroke="#3F6E8C" stroke-width="3" stroke-linecap="round"/><line x1="1209" y1="580" x2="1209" y2="566" stroke="#3F6E8C" stroke-width="3" stroke-linecap="round"/><circle cx="1209" cy="562" r="5" fill="#3F6E8C" stroke="none" stroke-width="2"/></g><g data-editor-subitem="true" data-editor-subitem-name="agent-label"><text x="1209" y="674" text-anchor="middle" font-size="22" font-weight="700" font-family="'Noto Sans SC','PingFang SC','Microsoft YaHei',sans-serif" fill="#1F2A24"><tspan x="1209" y="674" text-anchor="middle">邮件Agent</tspan></text></g></g></svg>
<svg xmlns="http://www.w3.org/2000/svg" width="162" height="159" viewBox="1338 545 162 159" x="1442" y="655.7999992370605" preserveAspectRatio="xMidYMid meet"><defs xmlns="http://www.w3.org/2000/svg">
    <marker id="arrow" viewBox="0 0 8 8" refX="6.2" refY="4" markerWidth="6" markerHeight="6" orient="auto-start-reverse">
      <path d="M 0 0 L 8 4 L 0 8 z" fill="#C8734E"/>
    </marker>
  </defs><g xmlns="http://www.w3.org/2000/svg" data-editor-group="component" data-editor-name="agent:投放执行者"><g data-editor-subitem="true" data-editor-subitem-name="agent-shell"><rect x="1350" y="560" width="138" height="132" rx="34" ry="34" fill="#DDEAF3" stroke="#3F6E8C" stroke-width="2.5"/></g><g data-editor-subitem="true" data-editor-subitem-name="agent-icon"><rect x="1380" y="580" width="78" height="54" rx="16" ry="16" fill="#FFF9F1" stroke="#3F6E8C" stroke-width="3"/><circle cx="1406" cy="607" r="8" fill="#3F6E8C" stroke="none" stroke-width="2"/><circle cx="1432" cy="607" r="8" fill="#3F6E8C" stroke="none" stroke-width="2"/><line x1="1404" y1="634" x2="1434" y2="634" stroke="#3F6E8C" stroke-width="3" stroke-linecap="round"/><line x1="1419" y1="580" x2="1419" y2="566" stroke="#3F6E8C" stroke-width="3" stroke-linecap="round"/><circle cx="1419" cy="562" r="5" fill="#3F6E8C" stroke="none" stroke-width="2"/></g><g data-editor-subitem="true" data-editor-subitem-name="agent-label"><text x="1419" y="674" text-anchor="middle" font-size="22" font-weight="700" font-family="'Noto Sans SC','PingFang SC','Microsoft YaHei',sans-serif" fill="#1F2A24"><tspan x="1419" y="674" text-anchor="middle">投放Agent</tspan></text></g></g></svg>
<svg xmlns="http://www.w3.org/2000/svg" width="264" height="78" viewBox="1078 418 264 78" x="1139.3333740234375" y="360.79999923706055" preserveAspectRatio="xMidYMid meet"><defs xmlns="http://www.w3.org/2000/svg">
    <marker id="arrow" viewBox="0 0 8 8" refX="6.2" refY="4" markerWidth="6" markerHeight="6" orient="auto-start-reverse">
      <path d="M 0 0 L 8 4 L 0 8 z" fill="#C8734E"/>
    </marker>
  </defs><g xmlns="http://www.w3.org/2000/svg" data-editor-group="component" data-editor-name="chip:完整上下文只进入一次"><g data-editor-subitem="true" data-editor-subitem-name="chip-shell" transform="translate(2.68 -1.36)"><rect x="1090" y="430" width="240" height="54" rx="27" ry="27" fill="#DCE9DF" stroke="#BBD2C0" stroke-width="2"/></g><g data-editor-subitem="true" data-editor-subitem-name="chip-label"><text x="1210" y="465" text-anchor="middle" font-size="22" font-weight="600" font-family="'Noto Sans SC','PingFang SC','Microsoft YaHei',sans-serif" fill="#1F2A24"><tspan x="1210" y="465" text-anchor="middle">完整上下文只进入一次</tspan></text></g></g></svg>
<svg xmlns="http://www.w3.org/2000/svg" width="174" height="70" viewBox="288 368 174 70" x="231.3333740234375" y="389.4666862487793" preserveAspectRatio="xMidYMid meet"><defs xmlns="http://www.w3.org/2000/svg">
    <marker id="arrow" viewBox="0 0 8 8" refX="6.2" refY="4" markerWidth="6" markerHeight="6" orient="auto-start-reverse">
      <path d="M 0 0 L 8 4 L 0 8 z" fill="#C8734E"/>
    </marker>
  </defs><g xmlns="http://www.w3.org/2000/svg" data-editor-group="component" data-editor-name="chip:重复同步预算"><g data-editor-subitem="true" data-editor-subitem-name="chip-shell"><rect x="300" y="380" width="150" height="46" rx="23" ry="23" fill="#F0D4D1" stroke="#DDA9A2" stroke-width="2"/></g><g data-editor-subitem="true" data-editor-subitem-name="chip-label"><text x="375" y="411" text-anchor="middle" font-size="20" font-weight="600" font-family="'Noto Sans SC','PingFang SC','Microsoft YaHei',sans-serif" fill="#1F2A24"><tspan x="375" y="411" text-anchor="middle">重复同步预算</tspan></text></g></g></svg>
  <polyline points="499,492.79999923706055 499,520.7999992370605 499,575.6333427429199 282.33331298828125,575.6333427429199 282.33331298828125,630.4666862487793 282.33331298828125,658.4666862487793" fill="none" stroke="#3f6e8c" stroke-width="4" stroke-linecap="round" stroke-linejoin="round" stroke-dasharray="" marker-end="url(#canvasArrowExport-_3f6e8c)"></polyline>
<polyline points="499,492.79999923706055 499,520.7999992370605 499,574.9666557312012 499.66668701171875,574.9666557312012 499.66668701171875,629.1333122253418 499.66668701171875,657.1333122253418" fill="none" stroke="#3f6e8c" stroke-width="4" stroke-linecap="round" stroke-linejoin="round" stroke-dasharray="" marker-end="url(#canvasArrowExport-_3f6e8c)"></polyline>
<polyline points="499,492.79999923706055 499,520.7999992370605 499,575.2999992370605 725.6666259765625,575.2999992370605 725.6666259765625,629.7999992370605 725.6666259765625,657.7999992370605" fill="none" stroke="#3f6e8c" stroke-width="4" stroke-linecap="round" stroke-linejoin="round" stroke-dasharray="" marker-end="url(#canvasArrowExport-_3f6e8c)"></polyline>
<polyline points="1136.6666259765625,435.1333122253418 1164.6666259765625,435.1333122253418 1289.3333129882812,435.1333122253418 1289.3333129882812,435.3000602722168 1414,435.3000602722168 1442,435.3000602722168" fill="none" stroke="#3f6e8c" stroke-width="4" stroke-linecap="round" stroke-linejoin="round" stroke-dasharray="" marker-end="url(#canvasArrowExport-_3f6e8c)"></polyline>
<polyline points="1523,514.8000602722168 1523,542.8000602722168 1523,585.3000297546387 1103,585.3000297546387 1103,627.7999992370605 1103,655.7999992370605" fill="none" stroke="#3f6e8c" stroke-width="4" stroke-linecap="round" stroke-linejoin="round" stroke-dasharray="" marker-end="url(#canvasArrowExport-_3f6e8c)"></polyline>
<polyline points="1523,514.8000602722168 1523,542.8000602722168 1523,585.3000297546387 1313,585.3000297546387 1313,627.7999992370605 1313,655.7999992370605" fill="none" stroke="#3f6e8c" stroke-width="4" stroke-linecap="round" stroke-linejoin="round" stroke-dasharray="" marker-end="url(#canvasArrowExport-_3f6e8c)"></polyline>
<polyline points="1523,514.8000602722168 1523,542.8000602722168 1523,585.3000297546387 1523,585.3000297546387 1523,627.7999992370605 1523,655.7999992370605" fill="none" stroke="#3f6e8c" stroke-width="4" stroke-linecap="round" stroke-linejoin="round" stroke-dasharray="" marker-end="url(#canvasArrowExport-_3f6e8c)"></polyline>
  </g>
</svg>