<svg xmlns="http://www.w3.org/2000/svg" width="1600" height="940" viewBox="0 0 1600 940">
  <defs>
    <marker id="arrow" viewBox="0 0 10 10" refX="8" refY="5" markerWidth="8" markerHeight="8" orient="auto-start-reverse">
      <path d="M 0 0 L 10 5 L 0 10 z" fill="#C8734E"/>
    </marker>
  </defs>
  <title>fig03</title>
  <rect x="0" y="0" width="1600" height="940" rx="0" ry="0" fill="#F7F0E4" stroke="none" stroke-width="2"/>
  <text x="800" y="74" text-anchor="middle" font-size="46" font-weight="700" font-family="'Noto Serif SC','Source Han Serif SC','Songti SC',serif" fill="#1F2A24"><tspan x="800" y="74">人类社会已有两条成熟通路</tspan></text><line x1="520" y1="102" x2="1080" y2="102" stroke="#C8734E" stroke-width="5" stroke-linecap="round"/><text x="800" y="135" text-anchor="middle" font-size="22" font-weight="500" font-family="'Noto Sans SC','PingFang SC','Microsoft YaHei',sans-serif" fill="#6E726C"><tspan x="800" y="135">AI 世界仍缺结果服务通路</tspan></text><rect x="70" y="150" width="700" height="660" rx="30" ry="30" fill="#FFF9F1" stroke="#CDBDA7" stroke-width="2"/><rect x="70" y="150" width="700" height="14" rx="30" ry="30" fill="#D7A545" stroke="none" stroke-width="2"/><text x="98" y="202" text-anchor="start" font-size="28" font-weight="700" font-family="'Noto Sans SC','PingFang SC','Microsoft YaHei',sans-serif" fill="#1F2A24"><tspan x="98" y="202">人类社会</tspan></text><rect x="830" y="150" width="700" height="660" rx="30" ry="30" fill="#FFF9F1" stroke="#CDBDA7" stroke-width="2"/><rect x="830" y="150" width="700" height="14" rx="30" ry="30" fill="#3F6E8C" stroke="none" stroke-width="2"/><text x="858" y="202" text-anchor="start" font-size="28" font-weight="700" font-family="'Noto Sans SC','PingFang SC','Microsoft YaHei',sans-serif" fill="#1F2A24"><tspan x="858" y="202">AI 世界</tspan></text><rect x="105" y="320" width="130" height="130" rx="34" ry="34" fill="#F4E5BF" stroke="#D7A545" stroke-width="2.5"/><circle cx="170" cy="354" r="22" fill="#FFF9F1" stroke="#D7A545" stroke-width="3"/><path d="M 136 420 Q 170 380 204 420" fill="none" stroke="#D7A545" stroke-width="3" stroke-linecap="round" stroke-linejoin="round"/><line x1="170" y1="376" x2="170" y2="410" stroke="#D7A545" stroke-width="3" stroke-linecap="round"/><text x="170" y="432" text-anchor="middle" font-size="22" font-weight="700" font-family="'Noto Sans SC','PingFang SC','Microsoft YaHei',sans-serif" fill="#1F2A24"><tspan x="170" y="432">人类</tspan></text><rect x="285" y="220" width="180" height="96" rx="26" ry="26" fill="#FFF9F1" stroke="#CDBDA7" stroke-width="2"/><text x="375" y="264" text-anchor="middle" font-size="26" font-weight="700" font-family="'Noto Sans SC','PingFang SC','Microsoft YaHei',sans-serif" fill="#1F2A24"><tspan x="375" y="264">买软件</tspan></text><text x="375" y="302" text-anchor="middle" font-size="20" font-weight="500" font-family="'Noto Sans SC','PingFang SC','Microsoft YaHei',sans-serif" fill="#6E726C"><tspan x="375" y="302">购买工具</tspan></text><rect x="535" y="220" width="170" height="96" rx="26" ry="26" fill="#F5F1EA" stroke="#CDBDA7" stroke-width="2"/><text x="620" y="264" text-anchor="middle" font-size="26" font-weight="700" font-family="'Noto Sans SC','PingFang SC','Microsoft YaHei',sans-serif" fill="#1F2A24"><tspan x="620" y="264">结果</tspan></text><text x="620" y="302" text-anchor="middle" font-size="20" font-weight="500" font-family="'Noto Sans SC','PingFang SC','Microsoft YaHei',sans-serif" fill="#6E726C"><tspan x="620" y="302">交付回人类</tspan></text><rect x="285" y="520" width="180" height="96" rx="26" ry="26" fill="#FFF9F1" stroke="#CDBDA7" stroke-width="2"/><text x="375" y="564" text-anchor="middle" font-size="26" font-weight="700" font-family="'Noto Sans SC','PingFang SC','Microsoft YaHei',sans-serif" fill="#1F2A24"><tspan x="375" y="564">买服务</tspan></text><text x="375" y="602" text-anchor="middle" font-size="20" font-weight="500" font-family="'Noto Sans SC','PingFang SC','Microsoft YaHei',sans-serif" fill="#6E726C"><tspan x="375" y="602">委托别人</tspan></text><rect x="535" y="520" width="180" height="110" rx="26" ry="26" fill="#FFF9F1" stroke="#CDBDA7" stroke-width="2"/><text x="625" y="564" text-anchor="middle" font-size="26" font-weight="700" font-family="'Noto Sans SC','PingFang SC','Microsoft YaHei',sans-serif" fill="#1F2A24"><tspan x="625" y="564">其他人</tspan></text><text x="625" y="602" text-anchor="middle" font-size="20" font-weight="500" font-family="'Noto Sans SC','PingFang SC','Microsoft YaHei',sans-serif" fill="#6E726C"><tspan x="625" y="602">使用软件</tspan></text><polyline points="245,385 245,268 285,268" fill="none" stroke="#D7A545" stroke-width="4" stroke-linecap="round" stroke-linejoin="round" marker-end="url(#arrow)"/><polyline points="465,268 535,268" fill="none" stroke="#D7A545" stroke-width="4" stroke-linecap="round" stroke-linejoin="round" marker-end="url(#arrow)"/><polyline points="620,316 620,385 245,385" fill="none" stroke="#D7A545" stroke-width="4" stroke-linecap="round" stroke-linejoin="round" marker-end="url(#arrow)"/><polyline points="245,385 245,568 285,568" fill="none" stroke="#D7A545" stroke-width="4" stroke-linecap="round" stroke-linejoin="round" marker-end="url(#arrow)"/><polyline points="465,568 535,568" fill="none" stroke="#D7A545" stroke-width="4" stroke-linecap="round" stroke-linejoin="round" marker-end="url(#arrow)"/><text x="398" y="650" text-anchor="middle" font-size="22" font-weight="500" font-family="'Noto Sans SC','PingFang SC','Microsoft YaHei',sans-serif" fill="#6E726C"><tspan x="398" y="650">买服务 = 其他人替你去使用软件</tspan></text><rect x="875" y="320" width="130" height="130" rx="34" ry="34" fill="#F4E5BF" stroke="#D7A545" stroke-width="2.5"/><circle cx="940" cy="354" r="22" fill="#FFF9F1" stroke="#D7A545" stroke-width="3"/><path d="M 906 420 Q 940 380 974 420" fill="none" stroke="#D7A545" stroke-width="3" stroke-linecap="round" stroke-linejoin="round"/><line x1="940" y1="376" x2="940" y2="410" stroke="#D7A545" stroke-width="3" stroke-linecap="round"/><text x="940" y="432" text-anchor="middle" font-size="22" font-weight="700" font-family="'Noto Sans SC','PingFang SC','Microsoft YaHei',sans-serif" fill="#1F2A24"><tspan x="940" y="432">主人</tspan></text><rect x="1040" y="295" width="176" height="146" rx="34" ry="34" fill="#DDEAF3" stroke="#3F6E8C" stroke-width="2.5"/><rect x="1089" y="315" width="78" height="54" rx="16" ry="16" fill="#FFF9F1" stroke="#3F6E8C" stroke-width="3"/><circle cx="1115" cy="342" r="8" fill="#3F6E8C" stroke="none" stroke-width="2"/><circle cx="1141" cy="342" r="8" fill="#3F6E8C" stroke="none" stroke-width="2"/><line x1="1113" y1="369" x2="1143" y2="369" stroke="#3F6E8C" stroke-width="3" stroke-linecap="round"/><line x1="1128" y1="315" x2="1128" y2="301" stroke="#3F6E8C" stroke-width="3" stroke-linecap="round"/><circle cx="1128" cy="297" r="5" fill="#3F6E8C" stroke="none" stroke-width="2"/><text x="1128" y="429" text-anchor="middle" font-size="19" font-weight="700" font-family="'Noto Sans SC','PingFang SC','Microsoft YaHei',sans-serif" fill="#1F2A24"><tspan x="1128" y="429">本地</tspan><tspan x="1128" y="453.32">Agent</tspan></text><rect x="1300" y="215" width="180" height="96" rx="26" ry="26" fill="#EFF6FA" stroke="#BDD3E1" stroke-width="2"/><text x="1390" y="259" text-anchor="middle" font-size="24" font-weight="700" font-family="'Noto Sans SC','PingFang SC','Microsoft YaHei',sans-serif" fill="#1F2A24"><tspan x="1390" y="259">装 runtime</tspan></text><text x="1390" y="297" text-anchor="middle" font-size="20" font-weight="500" font-family="'Noto Sans SC','PingFang SC','Microsoft YaHei',sans-serif" fill="#6E726C"><tspan x="1390" y="297">运行时准备</tspan></text><rect x="1285" y="400" width="195" height="104" rx="26" ry="26" fill="#EFF6FA" stroke="#BDD3E1" stroke-width="2"/><text x="1382.5" y="444" text-anchor="middle" font-size="22" font-weight="700" font-family="'Noto Sans SC','PingFang SC','Microsoft YaHei',sans-serif" fill="#1F2A24"><tspan x="1382.5" y="444">找 skill / API</tspan></text><text x="1382.5" y="482" text-anchor="middle" font-size="18" font-weight="500" font-family="'Noto Sans SC','PingFang SC','Microsoft YaHei',sans-serif" fill="#6E726C"><tspan x="1382.5" y="482">已存在的工具通路</tspan></text><rect x="1285" y="585" width="195" height="96" rx="26" ry="26" fill="#F5F1EA" stroke="#CDBDA7" stroke-width="2"/><text x="1382.5" y="629" text-anchor="middle" font-size="26" font-weight="700" font-family="'Noto Sans SC','PingFang SC','Microsoft YaHei',sans-serif" fill="#1F2A24"><tspan x="1382.5" y="629">结果</tspan></text><text x="1382.5" y="667" text-anchor="middle" font-size="20" font-weight="500" font-family="'Noto Sans SC','PingFang SC','Microsoft YaHei',sans-serif" fill="#6E726C"><tspan x="1382.5" y="667">返回给主人</tspan></text><rect x="960" y="585" width="250" height="116" rx="26" ry="26" fill="#FBF0F0" stroke="#D8A8A2" stroke-width="2"/><text x="1085" y="629" text-anchor="middle" font-size="21" font-weight="700" font-family="'Noto Sans SC','PingFang SC','Microsoft YaHei',sans-serif" fill="#1F2A24"><tspan x="1085" y="629">买别的 Agent 服务</tspan></text><text x="1085" y="667" text-anchor="middle" font-size="18" font-weight="500" font-family="'Noto Sans SC','PingFang SC','Microsoft YaHei',sans-serif" fill="#6E726C"><tspan x="1085" y="667">这条通路目前缺失</tspan></text><polyline points="1005,370 1040,370" fill="none" stroke="#3F6E8C" stroke-width="4" stroke-linecap="round" stroke-linejoin="round" marker-end="url(#arrow)"/><polyline points="1216,370 1265,370 1265,263 1300,263" fill="none" stroke="#3F6E8C" stroke-width="4" stroke-linecap="round" stroke-linejoin="round" stroke-dasharray="10 10" marker-end="url(#arrow)"/><polyline points="1216,392 1285,392 1285,452" fill="none" stroke="#3F6E8C" stroke-width="4" stroke-linecap="round" stroke-linejoin="round" marker-end="url(#arrow)"/><polyline points="1382,504 1382,585" fill="none" stroke="#3F6E8C" stroke-width="4" stroke-linecap="round" stroke-linejoin="round" marker-end="url(#arrow)"/><polyline points="1285,633 1216,633 1216,414" fill="none" stroke="#3F6E8C" stroke-width="4" stroke-linecap="round" stroke-linejoin="round" marker-end="url(#arrow)"/><polyline points="1128,453 1128,585 1210,585" fill="none" stroke="#B9645D" stroke-width="4" stroke-linecap="round" stroke-linejoin="round" stroke-dasharray="10 12"/><line x1="1172" y1="560" x2="1218" y2="614" stroke="#B9645D" stroke-width="4" stroke-linecap="round"/><line x1="1218" y1="560" x2="1172" y2="614" stroke="#B9645D" stroke-width="4" stroke-linecap="round"/><text x="1110" y="726" text-anchor="middle" font-size="21" font-weight="500" font-family="'Noto Sans SC','PingFang SC','Microsoft YaHei',sans-serif" fill="#6E726C"><tspan x="1110" y="726">本地 Agent 去找 skill / API 已经可行，</tspan><tspan x="1110" y="751.62">去买别的 Agent 结果服务仍然断着。</tspan></text>
</svg>
