<svg xmlns="http://www.w3.org/2000/svg" width="1600" height="940" viewBox="0 0 1600 940">
  <defs>
    <marker id="arrow" viewBox="0 0 10 10" refX="8" refY="5" markerWidth="8" markerHeight="8" orient="auto-start-reverse">
      <path d="M 0 0 L 10 5 L 0 10 z" fill="#C8734E"/>
    </marker>
  </defs>
  <title>fig04</title>
  <rect x="0" y="0" width="1600" height="940" rx="0" ry="0" fill="#F7F0E4" stroke="none" stroke-width="2"/>
  <text x="800" y="74" text-anchor="middle" font-size="46" font-weight="700" font-family="'Noto Serif SC','Source Han Serif SC','Songti SC',serif" fill="#1F2A24"><tspan x="800" y="74">现有生态主要只有两条路线</tspan></text><line x1="520" y1="102" x2="1080" y2="102" stroke="#C8734E" stroke-width="5" stroke-linecap="round"/><rect x="80" y="150" width="700" height="660" rx="30" ry="30" fill="#FFF9F1" stroke="#CDBDA7" stroke-width="2"/><rect x="80" y="150" width="700" height="14" rx="30" ry="30" fill="#C8734E" stroke="none" stroke-width="2"/><text x="108" y="202" text-anchor="start" font-size="28" font-weight="700" font-family="'Noto Sans SC','PingFang SC','Microsoft YaHei',sans-serif" fill="#1F2A24"><tspan x="108" y="202">路线 A：自己练功 / 装 skill</tspan></text><rect x="820" y="150" width="700" height="660" rx="30" ry="30" fill="#FFF9F1" stroke="#CDBDA7" stroke-width="2"/><rect x="820" y="150" width="700" height="14" rx="30" ry="30" fill="#3F6E8C" stroke="none" stroke-width="2"/><text x="848" y="202" text-anchor="start" font-size="28" font-weight="700" font-family="'Noto Sans SC','PingFang SC','Microsoft YaHei',sans-serif" fill="#1F2A24"><tspan x="848" y="202">路线 B：直接请整包高手</tspan></text><rect x="118" y="255" width="130" height="130" rx="34" ry="34" fill="#F4E5BF" stroke="#D7A545" stroke-width="2.5"/><circle cx="183" cy="289" r="22" fill="#FFF9F1" stroke="#D7A545" stroke-width="3"/><path d="M 149 355 Q 183 315 217 355" fill="none" stroke="#D7A545" stroke-width="3" stroke-linecap="round" stroke-linejoin="round"/><line x1="183" y1="311" x2="183" y2="345" stroke="#D7A545" stroke-width="3" stroke-linecap="round"/><text x="183" y="367" text-anchor="middle" font-size="22" font-weight="700" font-family="'Noto Sans SC','PingFang SC','Microsoft YaHei',sans-serif" fill="#1F2A24"><tspan x="183" y="367">主人</tspan></text><rect x="320" y="250" width="138" height="132" rx="34" ry="34" fill="#DDEAF3" stroke="#3F6E8C" stroke-width="2.5"/><rect x="350" y="270" width="78" height="54" rx="16" ry="16" fill="#FFF9F1" stroke="#3F6E8C" stroke-width="3"/><circle cx="376" cy="297" r="8" fill="#3F6E8C" stroke="none" stroke-width="2"/><circle cx="402" cy="297" r="8" fill="#3F6E8C" stroke="none" stroke-width="2"/><line x1="374" y1="324" x2="404" y2="324" stroke="#3F6E8C" stroke-width="3" stroke-linecap="round"/><line x1="389" y1="270" x2="389" y2="256" stroke="#3F6E8C" stroke-width="3" stroke-linecap="round"/><circle cx="389" cy="252" r="5" fill="#3F6E8C" stroke="none" stroke-width="2"/><text x="389" y="364" text-anchor="middle" font-size="22" font-weight="700" font-family="'Noto Sans SC','PingFang SC','Microsoft YaHei',sans-serif" fill="#1F2A24"><tspan x="389" y="364">自己的 Agent</tspan></text><rect x="540" y="240" width="190" height="96" rx="26" ry="26" fill="#FFF9F1" stroke="#CDBDA7" stroke-width="2"/><text x="635" y="284" text-anchor="middle" font-size="26" font-weight="700" font-family="'Noto Sans SC','PingFang SC','Microsoft YaHei',sans-serif" fill="#1F2A24"><tspan x="635" y="284">skill 市场</tspan></text><text x="635" y="322" text-anchor="middle" font-size="18" font-weight="500" font-family="'Noto Sans SC','PingFang SC','Microsoft YaHei',sans-serif" fill="#6E726C"><tspan x="635" y="322">搜索 / 购买 / 下载</tspan></text><rect x="540" y="430" width="190" height="108" rx="26" ry="26" fill="#FFF9F1" stroke="#CDBDA7" stroke-width="2"/><text x="635" y="474" text-anchor="middle" font-size="26" font-weight="700" font-family="'Noto Sans SC','PingFang SC','Microsoft YaHei',sans-serif" fill="#1F2A24"><tspan x="635" y="474">安装 / 配置</tspan></text><text x="635" y="512" text-anchor="middle" font-size="18" font-weight="500" font-family="'Noto Sans SC','PingFang SC','Microsoft YaHei',sans-serif" fill="#6E726C"><tspan x="635" y="512">key / 权限 / 环境变量</tspan></text><rect x="320" y="600" width="220" height="96" rx="26" ry="26" fill="#FFF9F1" stroke="#CDBDA7" stroke-width="2"/><text x="430" y="644" text-anchor="middle" font-size="26" font-weight="700" font-family="'Noto Sans SC','PingFang SC','Microsoft YaHei',sans-serif" fill="#1F2A24"><tspan x="430" y="644">执行结果</tspan></text><text x="430" y="682" text-anchor="middle" font-size="18" font-weight="500" font-family="'Noto Sans SC','PingFang SC','Microsoft YaHei',sans-serif" fill="#6E726C"><tspan x="430" y="682">自己完成后交付</tspan></text><polyline points="258,314 320,314" fill="none" stroke="#C8734E" stroke-width="4" stroke-linecap="round" stroke-linejoin="round" marker-end="url(#arrow)"/><polyline points="458,314 540,314" fill="none" stroke="#C8734E" stroke-width="4" stroke-linecap="round" stroke-linejoin="round" marker-end="url(#arrow)"/><polyline points="630,336 630,430" fill="none" stroke="#C8734E" stroke-width="4" stroke-linecap="round" stroke-linejoin="round" marker-end="url(#arrow)"/><polyline points="540,484 400,484 400,600" fill="none" stroke="#C8734E" stroke-width="4" stroke-linecap="round" stroke-linejoin="round" marker-end="url(#arrow)"/><text x="350" y="522" text-anchor="middle" font-size="20" font-weight="500" font-family="'Noto Sans SC','PingFang SC','Microsoft YaHei',sans-serif" fill="#6E726C"><tspan x="350" y="522">主人自己购买，</tspan><tspan x="350" y="546.8">或授权 Agent 去装。</tspan></text><rect x="875" y="290" width="130" height="130" rx="34" ry="34" fill="#F4E5BF" stroke="#D7A545" stroke-width="2.5"/><circle cx="940" cy="324" r="22" fill="#FFF9F1" stroke="#D7A545" stroke-width="3"/><path d="M 906 390 Q 940 350 974 390" fill="none" stroke="#D7A545" stroke-width="3" stroke-linecap="round" stroke-linejoin="round"/><line x1="940" y1="346" x2="940" y2="380" stroke="#D7A545" stroke-width="3" stroke-linecap="round"/><text x="940" y="402" text-anchor="middle" font-size="22" font-weight="700" font-family="'Noto Sans SC','PingFang SC','Microsoft YaHei',sans-serif" fill="#1F2A24"><tspan x="940" y="402">主人</tspan></text><rect x="1085" y="280" width="138" height="132" rx="34" ry="34" fill="#DDEAF3" stroke="#3F6E8C" stroke-width="2.5"/><rect x="1115" y="300" width="78" height="54" rx="16" ry="16" fill="#FFF9F1" stroke="#3F6E8C" stroke-width="3"/><circle cx="1141" cy="327" r="8" fill="#3F6E8C" stroke="none" stroke-width="2"/><circle cx="1167" cy="327" r="8" fill="#3F6E8C" stroke="none" stroke-width="2"/><line x1="1139" y1="354" x2="1169" y2="354" stroke="#3F6E8C" stroke-width="3" stroke-linecap="round"/><line x1="1154" y1="300" x2="1154" y2="286" stroke="#3F6E8C" stroke-width="3" stroke-linecap="round"/><circle cx="1154" cy="282" r="5" fill="#3F6E8C" stroke="none" stroke-width="2"/><text x="1154" y="394" text-anchor="middle" font-size="22" font-weight="700" font-family="'Noto Sans SC','PingFang SC','Microsoft YaHei',sans-serif" fill="#1F2A24"><tspan x="1154" y="394">整包 AI Agent</tspan></text><rect x="1280" y="248" width="200" height="112" rx="26" ry="26" fill="#EFF6FA" stroke="#BDD3E1" stroke-width="2"/><text x="1380" y="292" text-anchor="middle" font-size="26" font-weight="700" font-family="'Noto Sans SC','PingFang SC','Microsoft YaHei',sans-serif" fill="#1F2A24"><tspan x="1380" y="292">内置 skills</tspan></text><text x="1380" y="330" text-anchor="middle" font-size="18" font-weight="500" font-family="'Noto Sans SC','PingFang SC','Microsoft YaHei',sans-serif" fill="#6E726C"><tspan x="1380" y="330">workflow / 数据 / 配置</tspan></text><rect x="1080" y="600" width="220" height="96" rx="26" ry="26" fill="#FFF9F1" stroke="#CDBDA7" stroke-width="2"/><text x="1190" y="644" text-anchor="middle" font-size="26" font-weight="700" font-family="'Noto Sans SC','PingFang SC','Microsoft YaHei',sans-serif" fill="#1F2A24"><tspan x="1190" y="644">执行结果</tspan></text><text x="1190" y="682" text-anchor="middle" font-size="18" font-weight="500" font-family="'Noto Sans SC','PingFang SC','Microsoft YaHei',sans-serif" fill="#6E726C"><tspan x="1190" y="682">整包高手直接交付</tspan></text><polyline points="1015,354 1085,354" fill="none" stroke="#3F6E8C" stroke-width="4" stroke-linecap="round" stroke-linejoin="round" marker-end="url(#arrow)"/><polyline points="1223,334 1280,334" fill="none" stroke="#3F6E8C" stroke-width="4" stroke-linecap="round" stroke-linejoin="round" marker-end="url(#arrow)"/><polyline points="1380,360 1380,648 1300,648" fill="none" stroke="#3F6E8C" stroke-width="4" stroke-linecap="round" stroke-linejoin="round" marker-end="url(#arrow)"/>
</svg>
