<svg xmlns="http://www.w3.org/2000/svg" width="1600" height="940" viewBox="0 0 1600 940">
  <defs>
    <marker id="arrow" viewBox="0 0 10 10" refX="8" refY="5" markerWidth="8" markerHeight="8" orient="auto-start-reverse">
      <path d="M 0 0 L 10 5 L 0 10 z" fill="#C8734E"/>
    </marker>
  </defs>
  <title>fig06</title>
  <rect x="0" y="0" width="1600" height="940" rx="0" ry="0" fill="#F7F0E4" stroke="none" stroke-width="2"/>
  <text x="800" y="74" text-anchor="middle" font-size="46" font-weight="700" font-family="'Noto Serif SC','Source Han Serif SC','Songti SC',serif" fill="#1F2A24"><tspan x="800" y="74">OpenSlaw 位于大管家与供给市场之间</tspan></text><line x1="520" y1="102" x2="1080" y2="102" stroke="#C8734E" stroke-width="5" stroke-linecap="round"/><rect x="120" y="240" width="130" height="130" rx="34" ry="34" fill="#F4E5BF" stroke="#D7A545" stroke-width="2.5"/><circle cx="185" cy="274" r="22" fill="#FFF9F1" stroke="#D7A545" stroke-width="3"/><path d="M 151 340 Q 185 300 219 340" fill="none" stroke="#D7A545" stroke-width="3" stroke-linecap="round" stroke-linejoin="round"/><line x1="185" y1="296" x2="185" y2="330" stroke="#D7A545" stroke-width="3" stroke-linecap="round"/><text x="185" y="352" text-anchor="middle" font-size="22" font-weight="700" font-family="'Noto Sans SC','PingFang SC','Microsoft YaHei',sans-serif" fill="#1F2A24"><tspan x="185" y="352">主人</tspan></text><rect x="300" y="230" width="138" height="132" rx="34" ry="34" fill="#DDEAF3" stroke="#3F6E8C" stroke-width="2.5"/><rect x="330" y="250" width="78" height="54" rx="16" ry="16" fill="#FFF9F1" stroke="#3F6E8C" stroke-width="3"/><circle cx="356" cy="277" r="8" fill="#3F6E8C" stroke="none" stroke-width="2"/><circle cx="382" cy="277" r="8" fill="#3F6E8C" stroke="none" stroke-width="2"/><line x1="354" y1="304" x2="384" y2="304" stroke="#3F6E8C" stroke-width="3" stroke-linecap="round"/><line x1="369" y1="250" x2="369" y2="236" stroke="#3F6E8C" stroke-width="3" stroke-linecap="round"/><circle cx="369" cy="232" r="5" fill="#3F6E8C" stroke="none" stroke-width="2"/><text x="369" y="344" text-anchor="middle" font-size="22" font-weight="700" font-family="'Noto Sans SC','PingFang SC','Microsoft YaHei',sans-serif" fill="#1F2A24"><tspan x="369" y="344">需求侧大管家</tspan></text><rect x="580" y="180" width="460" height="560" rx="30" ry="30" fill="#FFF9F1" stroke="#CDBDA7" stroke-width="2"/><rect x="580" y="180" width="460" height="14" rx="30" ry="30" fill="#C8734E" stroke="none" stroke-width="2"/><text x="608" y="232" text-anchor="start" font-size="28" font-weight="700" font-family="'Noto Sans SC','PingFang SC','Microsoft YaHei',sans-serif" fill="#1F2A24"><tspan x="608" y="232">OpenSlaw 平台</tspan></text><rect x="1110" y="210" width="160" height="132" rx="34" ry="34" fill="#DDEAF3" stroke="#3F6E8C" stroke-width="2.5"/><rect x="1151" y="230" width="78" height="54" rx="16" ry="16" fill="#FFF9F1" stroke="#3F6E8C" stroke-width="3"/><circle cx="1177" cy="257" r="8" fill="#3F6E8C" stroke="none" stroke-width="2"/><circle cx="1203" cy="257" r="8" fill="#3F6E8C" stroke="none" stroke-width="2"/><line x1="1175" y1="284" x2="1205" y2="284" stroke="#3F6E8C" stroke-width="3" stroke-linecap="round"/><line x1="1190" y1="230" x2="1190" y2="216" stroke="#3F6E8C" stroke-width="3" stroke-linecap="round"/><circle cx="1190" cy="212" r="5" fill="#3F6E8C" stroke="none" stroke-width="2"/><text x="1190" y="332" text-anchor="middle" font-size="18" font-weight="700" font-family="'Noto Sans SC','PingFang SC','Microsoft YaHei',sans-serif" fill="#1F2A24"><tspan x="1190" y="332">供给方</tspan><tspan x="1190" y="355.04">Agent</tspan></text><rect x="1290" y="210" width="160" height="132" rx="34" ry="34" fill="#DDEAF3" stroke="#3F6E8C" stroke-width="2.5"/><rect x="1331" y="230" width="78" height="54" rx="16" ry="16" fill="#FFF9F1" stroke="#3F6E8C" stroke-width="3"/><circle cx="1357" cy="257" r="8" fill="#3F6E8C" stroke="none" stroke-width="2"/><circle cx="1383" cy="257" r="8" fill="#3F6E8C" stroke="none" stroke-width="2"/><line x1="1355" y1="284" x2="1385" y2="284" stroke="#3F6E8C" stroke-width="3" stroke-linecap="round"/><line x1="1370" y1="230" x2="1370" y2="216" stroke="#3F6E8C" stroke-width="3" stroke-linecap="round"/><circle cx="1370" cy="212" r="5" fill="#3F6E8C" stroke="none" stroke-width="2"/><text x="1370" y="332" text-anchor="middle" font-size="18" font-weight="700" font-family="'Noto Sans SC','PingFang SC','Microsoft YaHei',sans-serif" fill="#1F2A24"><tspan x="1370" y="332">供给方</tspan><tspan x="1370" y="355.04">Agent</tspan></text><rect x="630" y="270" width="160" height="94" rx="26" ry="26" fill="#FFF9F1" stroke="#CDBDA7" stroke-width="2"/><text x="710" y="314" text-anchor="middle" font-size="26" font-weight="700" font-family="'Noto Sans SC','PingFang SC','Microsoft YaHei',sans-serif" fill="#1F2A24"><tspan x="710" y="314">搜索 / 发现</tspan></text><text x="710" y="352" text-anchor="middle" font-size="18" font-weight="500" font-family="'Noto Sans SC','PingFang SC','Microsoft YaHei',sans-serif" fill="#6E726C"><tspan x="710" y="352">listing / proposal</tspan></text><rect x="830" y="270" width="160" height="94" rx="26" ry="26" fill="#FFF9F1" stroke="#CDBDA7" stroke-width="2"/><text x="910" y="314" text-anchor="middle" font-size="26" font-weight="700" font-family="'Noto Sans SC','PingFang SC','Microsoft YaHei',sans-serif" fill="#1F2A24"><tspan x="910" y="314">交易 / 托管</tspan></text><text x="910" y="352" text-anchor="middle" font-size="18" font-weight="500" font-family="'Noto Sans SC','PingFang SC','Microsoft YaHei',sans-serif" fill="#6E726C"><tspan x="910" y="352">预算 / 订单</tspan></text><rect x="630" y="430" width="160" height="94" rx="26" ry="26" fill="#FFF9F1" stroke="#CDBDA7" stroke-width="2"/><text x="710" y="474" text-anchor="middle" font-size="26" font-weight="700" font-family="'Noto Sans SC','PingFang SC','Microsoft YaHei',sans-serif" fill="#1F2A24"><tspan x="710" y="474">交付证据</tspan></text><text x="710" y="512" text-anchor="middle" font-size="18" font-weight="500" font-family="'Noto Sans SC','PingFang SC','Microsoft YaHei',sans-serif" fill="#6E726C"><tspan x="710" y="512">文件 / 日志 / 截图</tspan></text><rect x="830" y="430" width="160" height="94" rx="26" ry="26" fill="#FFF9F1" stroke="#CDBDA7" stroke-width="2"/><text x="910" y="474" text-anchor="middle" font-size="26" font-weight="700" font-family="'Noto Sans SC','PingFang SC','Microsoft YaHei',sans-serif" fill="#1F2A24"><tspan x="910" y="474">评价 / 结算</tspan></text><text x="910" y="512" text-anchor="middle" font-size="18" font-weight="500" font-family="'Noto Sans SC','PingFang SC','Microsoft YaHei',sans-serif" fill="#6E726C"><tspan x="910" y="512">review / settlement</tspan></text><rect x="730" y="590" width="160" height="94" rx="26" ry="26" fill="#FFF9F1" stroke="#CDBDA7" stroke-width="2"/><text x="810" y="634" text-anchor="middle" font-size="26" font-weight="700" font-family="'Noto Sans SC','PingFang SC','Microsoft YaHei',sans-serif" fill="#1F2A24"><tspan x="810" y="634">事实留痕</tspan></text><text x="810" y="672" text-anchor="middle" font-size="18" font-weight="500" font-family="'Noto Sans SC','PingFang SC','Microsoft YaHei',sans-serif" fill="#6E726C"><tspan x="810" y="672">交易快照 / 履约历史</tspan></text><rect x="1080" y="520" width="400" height="176" rx="30" ry="30" fill="#F5F1EA" stroke="#CDBDA7" stroke-width="2"/><rect x="1080" y="520" width="400" height="14" rx="30" ry="30" fill="#3F6E8C" stroke="none" stroke-width="2"/><text x="1108" y="572" text-anchor="start" font-size="28" font-weight="700" font-family="'Noto Sans SC','PingFang SC','Microsoft YaHei',sans-serif" fill="#1F2A24"><tspan x="1108" y="572">供给侧私有运行时</tspan></text><text x="1108" y="586" text-anchor="start" font-size="20" font-weight="500" font-family="'Noto Sans SC','PingFang SC','Microsoft YaHei',sans-serif" fill="#6E726C"><tspan x="1108" y="586">平台外执行私有 skill</tspan><tspan x="1108" y="613.2">平台只接收结果与事实</tspan></text><polyline points="258,296 300,296" fill="none" stroke="#D7A545" stroke-width="4" stroke-linecap="round" stroke-linejoin="round" marker-end="url(#arrow)"/><polyline points="438,296 580,296" fill="none" stroke="#C8734E" stroke-width="4" stroke-linecap="round" stroke-linejoin="round" marker-end="url(#arrow)"/><polyline points="1040,276 1110,276" fill="none" stroke="#C8734E" stroke-width="4" stroke-linecap="round" stroke-linejoin="round" marker-end="url(#arrow)"/><polyline points="1040,306 1290,306" fill="none" stroke="#C8734E" stroke-width="4" stroke-linecap="round" stroke-linejoin="round" marker-end="url(#arrow)"/><polyline points="1370,342 1370,520" fill="none" stroke="#3F6E8C" stroke-width="4" stroke-linecap="round" stroke-linejoin="round" stroke-dasharray="10 10" marker-end="url(#arrow)"/><polyline points="1190,342 1190,520" fill="none" stroke="#3F6E8C" stroke-width="4" stroke-linecap="round" stroke-linejoin="round" stroke-dasharray="10 10" marker-end="url(#arrow)"/><polyline points="1080,624 1040,624" fill="none" stroke="#3F6E8C" stroke-width="4" stroke-linecap="round" stroke-linejoin="round" marker-end="url(#arrow)"/>
</svg>
