<svg xmlns="http://www.w3.org/2000/svg" width="1600" height="940" viewBox="0 0 1600 940">
  <defs>
    <marker id="arrow" viewBox="0 0 10 10" refX="8" refY="5" markerWidth="8" markerHeight="8" orient="auto-start-reverse">
      <path d="M 0 0 L 10 5 L 0 10 z" fill="#C8734E"/>
    </marker>
  </defs>
  <title>fig10</title>
  <rect x="0" y="0" width="1600" height="940" rx="0" ry="0" fill="#F7F0E4" stroke="none" stroke-width="2"/>
  <text x="800" y="74" text-anchor="middle" font-size="46" font-weight="700" font-family="'Noto Serif SC','Source Han Serif SC','Songti SC',serif" fill="#1F2A24"><tspan x="800" y="74">短期：同一个需求会先长出两条入口</tspan></text><line x1="520" y1="102" x2="1080" y2="102" stroke="#C8734E" stroke-width="5" stroke-linecap="round"/><rect x="560" y="160" width="480" height="68" rx="34" ry="34" fill="#F4E5BF" stroke="#D7A545" stroke-width="2"/><text x="800" y="202" text-anchor="middle" font-size="30" font-weight="600" font-family="'Noto Sans SC','PingFang SC','Microsoft YaHei',sans-serif" fill="#1F2A24"><tspan x="800" y="202">共同需求：把 CEO 口播剪成短视频</tspan></text><rect x="90" y="250" width="650" height="520" rx="30" ry="30" fill="#FFF9F1" stroke="#CDBDA7" stroke-width="2"/><rect x="90" y="250" width="650" height="14" rx="30" ry="30" fill="#B9645D" stroke="none" stroke-width="2"/><text x="118" y="302" text-anchor="start" font-size="28" font-weight="700" font-family="'Noto Sans SC','PingFang SC','Microsoft YaHei',sans-serif" fill="#1F2A24"><tspan x="118" y="302">路线 A：找真人完成</tspan></text><rect x="860" y="250" width="650" height="520" rx="30" ry="30" fill="#FFF9F1" stroke="#CDBDA7" stroke-width="2"/><rect x="860" y="250" width="650" height="14" rx="30" ry="30" fill="#3F6E8C" stroke="none" stroke-width="2"/><text x="888" y="302" text-anchor="start" font-size="28" font-weight="700" font-family="'Noto Sans SC','PingFang SC','Microsoft YaHei',sans-serif" fill="#1F2A24"><tspan x="888" y="302">路线 B：找 AI Agent 完成</tspan></text><rect x="150" y="390" width="130" height="130" rx="34" ry="34" fill="#F4E5BF" stroke="#D7A545" stroke-width="2.5"/><circle cx="215" cy="424" r="22" fill="#FFF9F1" stroke="#D7A545" stroke-width="3"/><path d="M 181 490 Q 215 450 249 490" fill="none" stroke="#D7A545" stroke-width="3" stroke-linecap="round" stroke-linejoin="round"/><line x1="215" y1="446" x2="215" y2="480" stroke="#D7A545" stroke-width="3" stroke-linecap="round"/><text x="215" y="502" text-anchor="middle" font-size="22" font-weight="700" font-family="'Noto Sans SC','PingFang SC','Microsoft YaHei',sans-serif" fill="#1F2A24"><tspan x="215" y="502">主人</tspan></text><rect x="340" y="350" width="170" height="96" rx="26" ry="26" fill="#FFF9F1" stroke="#CDBDA7" stroke-width="2"/><text x="425" y="394" text-anchor="middle" font-size="26" font-weight="700" font-family="'Noto Sans SC','PingFang SC','Microsoft YaHei',sans-serif" fill="#1F2A24"><tspan x="425" y="394">找真人剪辑师</tspan></text><text x="425" y="432" text-anchor="middle" font-size="20" font-weight="500" font-family="'Noto Sans SC','PingFang SC','Microsoft YaHei',sans-serif" fill="#6E726C"><tspan x="425" y="432">外包 / 工作室</tspan></text><rect x="560" y="350" width="140" height="96" rx="26" ry="26" fill="#FFF9F1" stroke="#CDBDA7" stroke-width="2"/><text x="630" y="394" text-anchor="middle" font-size="26" font-weight="700" font-family="'Noto Sans SC','PingFang SC','Microsoft YaHei',sans-serif" fill="#1F2A24"><tspan x="630" y="394">剪映 GUI</tspan></text><text x="630" y="432" text-anchor="middle" font-size="20" font-weight="500" font-family="'Noto Sans SC','PingFang SC','Microsoft YaHei',sans-serif" fill="#6E726C"><tspan x="630" y="432">给人类的界面</tspan></text><rect x="450" y="560" width="190" height="96" rx="26" ry="26" fill="#F5F1EA" stroke="#CDBDA7" stroke-width="2"/><text x="545" y="604" text-anchor="middle" font-size="26" font-weight="700" font-family="'Noto Sans SC','PingFang SC','Microsoft YaHei',sans-serif" fill="#1F2A24"><tspan x="545" y="604">成片</tspan></text><text x="545" y="642" text-anchor="middle" font-size="20" font-weight="500" font-family="'Noto Sans SC','PingFang SC','Microsoft YaHei',sans-serif" fill="#6E726C"><tspan x="545" y="642">结果交回给主人</tspan></text><polyline points="248,456 340,398" fill="none" stroke="#B9645D" stroke-width="4" stroke-linecap="round" stroke-linejoin="round" marker-end="url(#arrow)"/><polyline points="510,398 560,398" fill="none" stroke="#B9645D" stroke-width="4" stroke-linecap="round" stroke-linejoin="round" marker-end="url(#arrow)"/><polyline points="630,446 630,560 640,560" fill="none" stroke="#B9645D" stroke-width="4" stroke-linecap="round" stroke-linejoin="round" marker-end="url(#arrow)"/><rect x="920" y="390" width="130" height="130" rx="34" ry="34" fill="#F4E5BF" stroke="#D7A545" stroke-width="2.5"/><circle cx="985" cy="424" r="22" fill="#FFF9F1" stroke="#D7A545" stroke-width="3"/><path d="M 951 490 Q 985 450 1019 490" fill="none" stroke="#D7A545" stroke-width="3" stroke-linecap="round" stroke-linejoin="round"/><line x1="985" y1="446" x2="985" y2="480" stroke="#D7A545" stroke-width="3" stroke-linecap="round"/><text x="985" y="502" text-anchor="middle" font-size="22" font-weight="700" font-family="'Noto Sans SC','PingFang SC','Microsoft YaHei',sans-serif" fill="#1F2A24"><tspan x="985" y="502">主人</tspan></text><rect x="1110" y="350" width="138" height="132" rx="34" ry="34" fill="#DDEAF3" stroke="#3F6E8C" stroke-width="2.5"/><rect x="1140" y="370" width="78" height="54" rx="16" ry="16" fill="#FFF9F1" stroke="#3F6E8C" stroke-width="3"/><circle cx="1166" cy="397" r="8" fill="#3F6E8C" stroke="none" stroke-width="2"/><circle cx="1192" cy="397" r="8" fill="#3F6E8C" stroke="none" stroke-width="2"/><line x1="1164" y1="424" x2="1194" y2="424" stroke="#3F6E8C" stroke-width="3" stroke-linecap="round"/><line x1="1179" y1="370" x2="1179" y2="356" stroke="#3F6E8C" stroke-width="3" stroke-linecap="round"/><circle cx="1179" cy="352" r="5" fill="#3F6E8C" stroke="none" stroke-width="2"/><text x="1179" y="464" text-anchor="middle" font-size="22" font-weight="700" font-family="'Noto Sans SC','PingFang SC','Microsoft YaHei',sans-serif" fill="#1F2A24"><tspan x="1179" y="464">AI Agent</tspan></text><rect x="1320" y="350" width="140" height="96" rx="26" ry="26" fill="#EFF6FA" stroke="#BDD3E1" stroke-width="2"/><text x="1390" y="394" text-anchor="middle" font-size="26" font-weight="700" font-family="'Noto Sans SC','PingFang SC','Microsoft YaHei',sans-serif" fill="#1F2A24"><tspan x="1390" y="394">剪映 CLI</tspan></text><text x="1390" y="432" text-anchor="middle" font-size="20" font-weight="500" font-family="'Noto Sans SC','PingFang SC','Microsoft YaHei',sans-serif" fill="#6E726C"><tspan x="1390" y="432">给 Agent 的通路</tspan></text><rect x="1140" y="560" width="190" height="96" rx="26" ry="26" fill="#F5F1EA" stroke="#CDBDA7" stroke-width="2"/><text x="1235" y="604" text-anchor="middle" font-size="26" font-weight="700" font-family="'Noto Sans SC','PingFang SC','Microsoft YaHei',sans-serif" fill="#1F2A24"><tspan x="1235" y="604">成片</tspan></text><text x="1235" y="642" text-anchor="middle" font-size="20" font-weight="500" font-family="'Noto Sans SC','PingFang SC','Microsoft YaHei',sans-serif" fill="#6E726C"><tspan x="1235" y="642">结果交回给主人</tspan></text><polyline points="1018,456 1110,414" fill="none" stroke="#3F6E8C" stroke-width="4" stroke-linecap="round" stroke-linejoin="round" marker-end="url(#arrow)"/><polyline points="1248,398 1320,398" fill="none" stroke="#3F6E8C" stroke-width="4" stroke-linecap="round" stroke-linejoin="round" marker-end="url(#arrow)"/><polyline points="1390,446 1390,560 1330,560" fill="none" stroke="#3F6E8C" stroke-width="4" stroke-linecap="round" stroke-linejoin="round" marker-end="url(#arrow)"/>
</svg>
