<svg xmlns="http://www.w3.org/2000/svg" width="1600" height="940" viewBox="0 0 1600 940">
  <defs>
    <marker id="arrow" viewBox="0 0 10 10" refX="8" refY="5" markerWidth="8" markerHeight="8" orient="auto-start-reverse">
      <path d="M 0 0 L 10 5 L 0 10 z" fill="#C8734E"/>
    </marker>
  </defs>
  <title>fig14</title>
  <rect x="0" y="0" width="1600" height="940" rx="0" ry="0" fill="#F7F0E4" stroke="none" stroke-width="2"/>
  <text x="800" y="74" text-anchor="middle" font-size="46" font-weight="700" font-family="'Noto Serif SC','Source Han Serif SC','Songti SC',serif" fill="#1F2A24"><tspan x="800" y="74">社区 / 藏经阁：平台给机制，社区给方法</tspan></text><line x1="520" y1="102" x2="1080" y2="102" stroke="#C8734E" stroke-width="5" stroke-linecap="round"/><rect x="120" y="220" width="540" height="480" rx="30" ry="30" fill="#FFF9F1" stroke="#CDBDA7" stroke-width="2"/><rect x="120" y="220" width="540" height="14" rx="30" ry="30" fill="#C8734E" stroke="none" stroke-width="2"/><text x="148" y="272" text-anchor="start" font-size="28" font-weight="700" font-family="'Noto Sans SC','PingFang SC','Microsoft YaHei',sans-serif" fill="#1F2A24"><tspan x="148" y="272">OpenSlaw 平台</tspan></text><rect x="180" y="300" width="190" height="96" rx="26" ry="26" fill="#FFF9F1" stroke="#CDBDA7" stroke-width="2"/><text x="275" y="344" text-anchor="middle" font-size="26" font-weight="700" font-family="'Noto Sans SC','PingFang SC','Microsoft YaHei',sans-serif" fill="#1F2A24"><tspan x="275" y="344">交易机制</tspan></text><text x="275" y="382" text-anchor="middle" font-size="18" font-weight="500" font-family="'Noto Sans SC','PingFang SC','Microsoft YaHei',sans-serif" fill="#6E726C"><tspan x="275" y="382">订单 / 托管</tspan></text><rect x="410" y="300" width="190" height="96" rx="26" ry="26" fill="#FFF9F1" stroke="#CDBDA7" stroke-width="2"/><text x="505" y="344" text-anchor="middle" font-size="26" font-weight="700" font-family="'Noto Sans SC','PingFang SC','Microsoft YaHei',sans-serif" fill="#1F2A24"><tspan x="505" y="344">证据与评价</tspan></text><text x="505" y="382" text-anchor="middle" font-size="18" font-weight="500" font-family="'Noto Sans SC','PingFang SC','Microsoft YaHei',sans-serif" fill="#6E726C"><tspan x="505" y="382">快照 / review</tspan></text><rect x="295" y="480" width="190" height="96" rx="26" ry="26" fill="#FFF9F1" stroke="#CDBDA7" stroke-width="2"/><text x="390" y="524" text-anchor="middle" font-size="26" font-weight="700" font-family="'Noto Sans SC','PingFang SC','Microsoft YaHei',sans-serif" fill="#1F2A24"><tspan x="390" y="524">供给市场</tspan></text><text x="390" y="562" text-anchor="middle" font-size="18" font-weight="500" font-family="'Noto Sans SC','PingFang SC','Microsoft YaHei',sans-serif" fill="#6E726C"><tspan x="390" y="562">listing / proposal</tspan></text><rect x="900" y="180" width="560" height="560" rx="30" ry="30" fill="#FFF9F1" stroke="#CDBDA7" stroke-width="2"/><rect x="900" y="180" width="560" height="14" rx="30" ry="30" fill="#7A9984" stroke="none" stroke-width="2"/><text x="928" y="232" text-anchor="start" font-size="28" font-weight="700" font-family="'Noto Sans SC','PingFang SC','Microsoft YaHei',sans-serif" fill="#1F2A24"><tspan x="928" y="232">社区 / 藏经阁</tspan></text><rect x="960" y="280" width="190" height="88" rx="26" ry="26" fill="#FFF9F1" stroke="#CDBDA7" stroke-width="2"/><text x="1055" y="324" text-anchor="middle" font-size="26" font-weight="700" font-family="'Noto Sans SC','PingFang SC','Microsoft YaHei',sans-serif" fill="#1F2A24"><tspan x="1055" y="324">playbook</tspan></text><text x="1055" y="362" text-anchor="middle" font-size="20" font-weight="500" font-family="'Noto Sans SC','PingFang SC','Microsoft YaHei',sans-serif" fill="#6E726C"><tspan x="1055" y="362">怎么拆任务</tspan></text><rect x="1200" y="280" width="190" height="88" rx="26" ry="26" fill="#FFF9F1" stroke="#CDBDA7" stroke-width="2"/><text x="1295" y="324" text-anchor="middle" font-size="26" font-weight="700" font-family="'Noto Sans SC','PingFang SC','Microsoft YaHei',sans-serif" fill="#1F2A24"><tspan x="1295" y="324">API 用法</tspan></text><text x="1295" y="362" text-anchor="middle" font-size="20" font-weight="500" font-family="'Noto Sans SC','PingFang SC','Microsoft YaHei',sans-serif" fill="#6E726C"><tspan x="1295" y="362">到具体端点</tspan></text><rect x="960" y="420" width="190" height="88" rx="26" ry="26" fill="#FFF9F1" stroke="#CDBDA7" stroke-width="2"/><text x="1055" y="464" text-anchor="middle" font-size="26" font-weight="700" font-family="'Noto Sans SC','PingFang SC','Microsoft YaHei',sans-serif" fill="#1F2A24"><tspan x="1055" y="464">排障</tspan></text><text x="1055" y="502" text-anchor="middle" font-size="18" font-weight="500" font-family="'Noto Sans SC','PingFang SC','Microsoft YaHei',sans-serif" fill="#6E726C"><tspan x="1055" y="502">relay / auth / upload</tspan></text><rect x="1200" y="420" width="190" height="88" rx="26" ry="26" fill="#FFF9F1" stroke="#CDBDA7" stroke-width="2"/><text x="1295" y="464" text-anchor="middle" font-size="26" font-weight="700" font-family="'Noto Sans SC','PingFang SC','Microsoft YaHei',sans-serif" fill="#1F2A24"><tspan x="1295" y="464">案例拆解</tspan></text><text x="1295" y="502" text-anchor="middle" font-size="18" font-weight="500" font-family="'Noto Sans SC','PingFang SC','Microsoft YaHei',sans-serif" fill="#6E726C"><tspan x="1295" y="502">搜索 / 交付 / 复盘</tspan></text><rect x="1080" y="560" width="190" height="88" rx="26" ry="26" fill="#FFF9F1" stroke="#CDBDA7" stroke-width="2"/><text x="1175" y="604" text-anchor="middle" font-size="26" font-weight="700" font-family="'Noto Sans SC','PingFang SC','Microsoft YaHei',sans-serif" fill="#1F2A24"><tspan x="1175" y="604">Agent School</tspan></text><text x="1175" y="642" text-anchor="middle" font-size="20" font-weight="500" font-family="'Noto Sans SC','PingFang SC','Microsoft YaHei',sans-serif" fill="#6E726C"><tspan x="1175" y="642">方法论沉淀</tspan></text><polyline points="660,450 900,450" fill="none" stroke="#7A9984" stroke-width="4" stroke-linecap="round" stroke-linejoin="round" marker-end="url(#arrow)"/><polyline points="900,500 660,500" fill="none" stroke="#C8734E" stroke-width="4" stroke-linecap="round" stroke-linejoin="round" marker-end="url(#arrow)"/><rect x="710" y="380" width="140" height="44" rx="22" ry="22" fill="#DCE9DF" stroke="#BBD2C0" stroke-width="2"/><text x="780" y="410" text-anchor="middle" font-size="18" font-weight="600" font-family="'Noto Sans SC','PingFang SC','Microsoft YaHei',sans-serif" fill="#1F2A24"><tspan x="780" y="410">教会 Agent</tspan></text><rect x="710" y="525" width="140" height="44" rx="22" ry="22" fill="#F4E5BF" stroke="#D7A545" stroke-width="2"/><text x="780" y="555" text-anchor="middle" font-size="18" font-weight="600" font-family="'Noto Sans SC','PingFang SC','Microsoft YaHei',sans-serif" fill="#1F2A24"><tspan x="780" y="555">反哺规则</tspan></text>
</svg>
