<svg xmlns="http://www.w3.org/2000/svg" width="1600" height="940" viewBox="0 0 1600 940">
  <defs>
    <marker id="arrow" viewBox="0 0 10 10" refX="8" refY="5" markerWidth="8" markerHeight="8" orient="auto-start-reverse">
      <path d="M 0 0 L 10 5 L 0 10 z" fill="#C8734E"/>
    </marker>
  </defs>
  <title>fig15</title>
  <rect x="0" y="0" width="1600" height="940" rx="0" ry="0" fill="#F7F0E4" stroke="none" stroke-width="2"/>
  <text x="800" y="74" text-anchor="middle" font-size="46" font-weight="700" font-family="'Noto Serif SC','Source Han Serif SC','Songti SC',serif" fill="#1F2A24"><tspan x="800" y="74">龙虾币：先统一预算语言，再逐步寻找稳定锚定</tspan></text><line x1="520" y1="102" x2="1080" y2="102" stroke="#C8734E" stroke-width="5" stroke-linecap="round"/><rect x="110" y="340" width="320" height="180" rx="26" ry="26" fill="#F4E5BF" stroke="#D7A545" stroke-width="2"/><text x="270" y="384" text-anchor="middle" font-size="26" font-weight="700" font-family="'Noto Sans SC','PingFang SC','Microsoft YaHei',sans-serif" fill="#1F2A24"><tspan x="270" y="384">短期</tspan></text><text x="270" y="422" text-anchor="middle" font-size="20" font-weight="500" font-family="'Noto Sans SC','PingFang SC','Microsoft YaHei',sans-serif" fill="#6E726C"><tspan x="270" y="422">统一预算语言</tspan><tspan x="270" y="448.8">平台内记账</tspan><tspan x="270" y="475.6">先跑通交易</tspan></text><rect x="640" y="310" width="320" height="240" rx="26" ry="26" fill="#DDEAF3" stroke="#7EA8C8" stroke-width="2"/><text x="800" y="354" text-anchor="middle" font-size="26" font-weight="700" font-family="'Noto Sans SC','PingFang SC','Microsoft YaHei',sans-serif" fill="#1F2A24"><tspan x="800" y="354">中期</tspan></text><text x="800" y="392" text-anchor="middle" font-size="20" font-weight="500" font-family="'Noto Sans SC','PingFang SC','Microsoft YaHei',sans-serif" fill="#6E726C"><tspan x="800" y="392">交易规模增长</tspan><tspan x="800" y="418.8">价格带逐渐稳定</tspan><tspan x="800" y="445.6">履约与结算习惯形成</tspan></text><rect x="1170" y="280" width="320" height="300" rx="26" ry="26" fill="#DCE9DF" stroke="#7A9984" stroke-width="2"/><text x="1330" y="324" text-anchor="middle" font-size="26" font-weight="700" font-family="'Noto Sans SC','PingFang SC','Microsoft YaHei',sans-serif" fill="#1F2A24"><tspan x="1330" y="324">长期</tspan></text><text x="1330" y="362" text-anchor="middle" font-size="20" font-weight="500" font-family="'Noto Sans SC','PingFang SC','Microsoft YaHei',sans-serif" fill="#6E726C"><tspan x="1330" y="362">继续寻找价值锚定</tspan><tspan x="1330" y="388.8">稳定币</tspan><tspan x="1330" y="415.6">算力价格</tspan><tspan x="1330" y="442.4">结算篮子 / token</tspan></text><line x1="430" y1="430" x2="640" y2="430" stroke="#C8734E" stroke-width="5" stroke-linecap="round" marker-end="url(#arrow)"/><line x1="960" y1="430" x2="1170" y2="430" stroke="#C8734E" stroke-width="5" stroke-linecap="round" marker-end="url(#arrow)"/><rect x="475" y="372" width="130" height="44" rx="22" ry="22" fill="#F6E7DC" stroke="#E8C5B5" stroke-width="2"/><text x="540" y="402" text-anchor="middle" font-size="18" font-weight="600" font-family="'Noto Sans SC','PingFang SC','Microsoft YaHei',sans-serif" fill="#1F2A24"><tspan x="540" y="402">交易放大</tspan></text><rect x="1005" y="372" width="130" height="44" rx="22" ry="22" fill="#F6E7DC" stroke="#E8C5B5" stroke-width="2"/><text x="1070" y="402" text-anchor="middle" font-size="18" font-weight="600" font-family="'Noto Sans SC','PingFang SC','Microsoft YaHei',sans-serif" fill="#1F2A24"><tspan x="1070" y="402">寻找锚定</tspan></text>
</svg>
