<svg xmlns="http://www.w3.org/2000/svg" width="1600" height="940" viewBox="0 0 1600 940">
  <defs>
    <marker id="arrow" viewBox="0 0 10 10" refX="8" refY="5" markerWidth="8" markerHeight="8" orient="auto-start-reverse">
      <path d="M 0 0 L 10 5 L 0 10 z" fill="#C8734E"/>
    </marker>
  </defs>
  <title>fig11</title>
  <rect x="0" y="0" width="1600" height="940" rx="0" ry="0" fill="#F7F0E4" stroke="none" stroke-width="2"/>
  <text x="800" y="74" text-anchor="middle" font-size="46" font-weight="700" font-family="'Noto Serif SC','Source Han Serif SC','Songti SC',serif" fill="#1F2A24"><tspan x="800" y="74">中期：差异化会转向搜索、比较、选供给</tspan></text><line x1="520" y1="102" x2="1080" y2="102" stroke="#C8734E" stroke-width="5" stroke-linecap="round"/><rect x="70" y="230" width="470" height="520" rx="30" ry="30" fill="#FFF9F1" stroke="#CDBDA7" stroke-width="2"/><rect x="70" y="230" width="470" height="14" rx="30" ry="30" fill="#B9645D" stroke="none" stroke-width="2"/><text x="98" y="282" text-anchor="start" font-size="28" font-weight="700" font-family="'Noto Sans SC','PingFang SC','Microsoft YaHei',sans-serif" fill="#1F2A24"><tspan x="98" y="282">人类常见路径</tspan></text><rect x="600" y="170" width="930" height="640" rx="30" ry="30" fill="#FFF9F1" stroke="#CDBDA7" stroke-width="2"/><rect x="600" y="170" width="930" height="14" rx="30" ry="30" fill="#3F6E8C" stroke="none" stroke-width="2"/><text x="628" y="222" text-anchor="start" font-size="28" font-weight="700" font-family="'Noto Sans SC','PingFang SC','Microsoft YaHei',sans-serif" fill="#1F2A24"><tspan x="628" y="222">AI Agent 路径</tspan></text><rect x="120" y="360" width="130" height="130" rx="34" ry="34" fill="#F4E5BF" stroke="#D7A545" stroke-width="2.5"/><circle cx="185" cy="394" r="22" fill="#FFF9F1" stroke="#D7A545" stroke-width="3"/><path d="M 151 460 Q 185 420 219 460" fill="none" stroke="#D7A545" stroke-width="3" stroke-linecap="round" stroke-linejoin="round"/><line x1="185" y1="416" x2="185" y2="450" stroke="#D7A545" stroke-width="3" stroke-linecap="round"/><text x="185" y="472" text-anchor="middle" font-size="22" font-weight="700" font-family="'Noto Sans SC','PingFang SC','Microsoft YaHei',sans-serif" fill="#1F2A24"><tspan x="185" y="472">人类需求</tspan></text><rect x="300" y="330" width="180" height="96" rx="26" ry="26" fill="#FFF9F1" stroke="#CDBDA7" stroke-width="2"/><text x="390" y="374" text-anchor="middle" font-size="26" font-weight="700" font-family="'Noto Sans SC','PingFang SC','Microsoft YaHei',sans-serif" fill="#1F2A24"><tspan x="390" y="374">视频剪辑</tspan></text><text x="390" y="412" text-anchor="middle" font-size="20" font-weight="500" font-family="'Noto Sans SC','PingFang SC','Microsoft YaHei',sans-serif" fill="#6E726C"><tspan x="390" y="412">搜一个大类</tspan><tspan x="390" y="438.8">慢慢挑</tspan></text><polyline points="248,426 300,378" fill="none" stroke="#B9645D" stroke-width="4" stroke-linecap="round" stroke-linejoin="round" marker-end="url(#arrow)"/><rect x="660" y="250" width="130" height="130" rx="34" ry="34" fill="#F4E5BF" stroke="#D7A545" stroke-width="2.5"/><circle cx="725" cy="284" r="22" fill="#FFF9F1" stroke="#D7A545" stroke-width="3"/><path d="M 691 350 Q 725 310 759 350" fill="none" stroke="#D7A545" stroke-width="3" stroke-linecap="round" stroke-linejoin="round"/><line x1="725" y1="306" x2="725" y2="340" stroke="#D7A545" stroke-width="3" stroke-linecap="round"/><text x="725" y="362" text-anchor="middle" font-size="22" font-weight="700" font-family="'Noto Sans SC','PingFang SC','Microsoft YaHei',sans-serif" fill="#1F2A24"><tspan x="725" y="362">主人需求</tspan></text><rect x="860" y="240" width="138" height="132" rx="34" ry="34" fill="#DDEAF3" stroke="#3F6E8C" stroke-width="2.5"/><rect x="890" y="260" width="78" height="54" rx="16" ry="16" fill="#FFF9F1" stroke="#3F6E8C" stroke-width="3"/><circle cx="916" cy="287" r="8" fill="#3F6E8C" stroke="none" stroke-width="2"/><circle cx="942" cy="287" r="8" fill="#3F6E8C" stroke="none" stroke-width="2"/><line x1="914" y1="314" x2="944" y2="314" stroke="#3F6E8C" stroke-width="3" stroke-linecap="round"/><line x1="929" y1="260" x2="929" y2="246" stroke="#3F6E8C" stroke-width="3" stroke-linecap="round"/><circle cx="929" cy="242" r="5" fill="#3F6E8C" stroke="none" stroke-width="2"/><text x="929" y="354" text-anchor="middle" font-size="22" font-weight="700" font-family="'Noto Sans SC','PingFang SC','Microsoft YaHei',sans-serif" fill="#1F2A24"><tspan x="929" y="354">AI Agent</tspan></text><rect x="1080" y="220" width="220" height="120" rx="26" ry="26" fill="#EFF6FA" stroke="#BDD3E1" stroke-width="2"/><text x="1190" y="264" text-anchor="middle" font-size="26" font-weight="700" font-family="'Noto Sans SC','PingFang SC','Microsoft YaHei',sans-serif" fill="#1F2A24"><tspan x="1190" y="264">先细化需求</tspan></text><text x="1190" y="302" text-anchor="middle" font-size="20" font-weight="500" font-family="'Noto Sans SC','PingFang SC','Microsoft YaHei',sans-serif" fill="#6E726C"><tspan x="1190" y="302">融资路演口播剪辑</tspan><tspan x="1190" y="328.8">科技 CEO 商务短视频</tspan><tspan x="1190" y="355.6">投放转化导向短视频</tspan></text><rect x="780" y="530" width="180" height="110" rx="26" ry="26" fill="#FFF9F1" stroke="#CDBDA7" stroke-width="2"/><text x="870" y="574" text-anchor="middle" font-size="26" font-weight="700" font-family="'Noto Sans SC','PingFang SC','Microsoft YaHei',sans-serif" fill="#1F2A24"><tspan x="870" y="574">供应商 A</tspan></text><text x="870" y="612" text-anchor="middle" font-size="20" font-weight="500" font-family="'Noto Sans SC','PingFang SC','Microsoft YaHei',sans-serif" fill="#6E726C"><tspan x="870" y="612">偏商务融资风格</tspan></text><rect x="1030" y="530" width="180" height="110" rx="26" ry="26" fill="#F6E7DC" stroke="#E8C5B5" stroke-width="2"/><text x="1120" y="574" text-anchor="middle" font-size="26" font-weight="700" font-family="'Noto Sans SC','PingFang SC','Microsoft YaHei',sans-serif" fill="#1F2A24"><tspan x="1120" y="574">供应商 B</tspan></text><text x="1120" y="612" text-anchor="middle" font-size="20" font-weight="500" font-family="'Noto Sans SC','PingFang SC','Microsoft YaHei',sans-serif" fill="#6E726C"><tspan x="1120" y="612">偏科技行业表达</tspan></text><rect x="1280" y="530" width="180" height="110" rx="26" ry="26" fill="#FFF9F1" stroke="#CDBDA7" stroke-width="2"/><text x="1370" y="574" text-anchor="middle" font-size="26" font-weight="700" font-family="'Noto Sans SC','PingFang SC','Microsoft YaHei',sans-serif" fill="#1F2A24"><tspan x="1370" y="574">供应商 C</tspan></text><text x="1370" y="612" text-anchor="middle" font-size="20" font-weight="500" font-family="'Noto Sans SC','PingFang SC','Microsoft YaHei',sans-serif" fill="#6E726C"><tspan x="1370" y="612">偏投放转化导向</tspan></text><rect x="1050" y="680" width="140" height="50" rx="25" ry="25" fill="#F4E5BF" stroke="#D7A545" stroke-width="2"/><text x="1120" y="713" text-anchor="middle" font-size="22" font-weight="600" font-family="'Noto Sans SC','PingFang SC','Microsoft YaHei',sans-serif" fill="#1F2A24"><tspan x="1120" y="713">中选</tspan></text><polyline points="758,316 860,316" fill="none" stroke="#D7A545" stroke-width="4" stroke-linecap="round" stroke-linejoin="round" marker-end="url(#arrow)"/><polyline points="998,302 1080,302" fill="none" stroke="#3F6E8C" stroke-width="4" stroke-linecap="round" stroke-linejoin="round" marker-end="url(#arrow)"/><polyline points="1190,340 870,530" fill="none" stroke="#3F6E8C" stroke-width="4" stroke-linecap="round" stroke-linejoin="round" marker-end="url(#arrow)"/><polyline points="1190,340 1120,530" fill="none" stroke="#C8734E" stroke-width="5" stroke-linecap="round" stroke-linejoin="round" marker-end="url(#arrow)"/><polyline points="1190,340 1370,530" fill="none" stroke="#3F6E8C" stroke-width="4" stroke-linecap="round" stroke-linejoin="round" marker-end="url(#arrow)"/>
</svg>
