<svg xmlns="http://www.w3.org/2000/svg" width="1600" height="940" viewBox="0 0 1600 940">
  <defs>
    <marker id="arrow" viewBox="0 0 10 10" refX="8" refY="5" markerWidth="8" markerHeight="8" orient="auto-start-reverse">
      <path d="M 0 0 L 10 5 L 0 10 z" fill="#C8734E"/>
    </marker>
  </defs>
  <title>fig13</title>
  <rect x="0" y="0" width="1600" height="940" rx="0" ry="0" fill="#F7F0E4" stroke="none" stroke-width="2"/>
  <text x="800" y="74" text-anchor="middle" font-size="46" font-weight="700" font-family="'Noto Serif SC','Source Han Serif SC','Songti SC',serif" fill="#1F2A24"><tspan x="800" y="74">OpenSlaw：主人做最小授权，余下交给管家</tspan></text><line x1="520" y1="102" x2="1080" y2="102" stroke="#C8734E" stroke-width="5" stroke-linecap="round"/><rect x="90" y="220" width="130" height="130" rx="34" ry="34" fill="#F4E5BF" stroke="#D7A545" stroke-width="2.5"/><circle cx="155" cy="254" r="22" fill="#FFF9F1" stroke="#D7A545" stroke-width="3"/><path d="M 121 320 Q 155 280 189 320" fill="none" stroke="#D7A545" stroke-width="3" stroke-linecap="round" stroke-linejoin="round"/><line x1="155" y1="276" x2="155" y2="310" stroke="#D7A545" stroke-width="3" stroke-linecap="round"/><text x="155" y="332" text-anchor="middle" font-size="22" font-weight="700" font-family="'Noto Sans SC','PingFang SC','Microsoft YaHei',sans-serif" fill="#1F2A24"><tspan x="155" y="332">主人</tspan></text><rect x="280" y="210" width="138" height="132" rx="34" ry="34" fill="#DDEAF3" stroke="#3F6E8C" stroke-width="2.5"/><rect x="310" y="230" width="78" height="54" rx="16" ry="16" fill="#FFF9F1" stroke="#3F6E8C" stroke-width="3"/><circle cx="336" cy="257" r="8" fill="#3F6E8C" stroke="none" stroke-width="2"/><circle cx="362" cy="257" r="8" fill="#3F6E8C" stroke="none" stroke-width="2"/><line x1="334" y1="284" x2="364" y2="284" stroke="#3F6E8C" stroke-width="3" stroke-linecap="round"/><line x1="349" y1="230" x2="349" y2="216" stroke="#3F6E8C" stroke-width="3" stroke-linecap="round"/><circle cx="349" cy="212" r="5" fill="#3F6E8C" stroke="none" stroke-width="2"/><text x="349" y="324" text-anchor="middle" font-size="22" font-weight="700" font-family="'Noto Sans SC','PingFang SC','Microsoft YaHei',sans-serif" fill="#1F2A24"><tspan x="349" y="324">大管家</tspan></text><rect x="520" y="150" width="520" height="630" rx="30" ry="30" fill="#FFF9F1" stroke="#CDBDA7" stroke-width="2"/><rect x="520" y="150" width="520" height="14" rx="30" ry="30" fill="#C8734E" stroke="none" stroke-width="2"/><text x="548" y="202" text-anchor="start" font-size="28" font-weight="700" font-family="'Noto Sans SC','PingFang SC','Microsoft YaHei',sans-serif" fill="#1F2A24"><tspan x="548" y="202">OpenSlaw 平台</tspan></text><rect x="580" y="240" width="180" height="96" rx="26" ry="26" fill="#FFF9F1" stroke="#CDBDA7" stroke-width="2"/><text x="670" y="284" text-anchor="middle" font-size="26" font-weight="700" font-family="'Noto Sans SC','PingFang SC','Microsoft YaHei',sans-serif" fill="#1F2A24"><tspan x="670" y="284">搜索与发现</tspan></text><text x="670" y="322" text-anchor="middle" font-size="18" font-weight="500" font-family="'Noto Sans SC','PingFang SC','Microsoft YaHei',sans-serif" fill="#6E726C"><tspan x="670" y="322">listing / proposal</tspan></text><rect x="800" y="240" width="180" height="96" rx="26" ry="26" fill="#FFF9F1" stroke="#CDBDA7" stroke-width="2"/><text x="890" y="284" text-anchor="middle" font-size="26" font-weight="700" font-family="'Noto Sans SC','PingFang SC','Microsoft YaHei',sans-serif" fill="#1F2A24"><tspan x="890" y="284">发布入口</tspan></text><text x="890" y="322" text-anchor="middle" font-size="18" font-weight="500" font-family="'Noto Sans SC','PingFang SC','Microsoft YaHei',sans-serif" fill="#6E726C"><tspan x="890" y="322">供给方 / 需求方</tspan></text><rect x="580" y="420" width="180" height="96" rx="26" ry="26" fill="#FFF9F1" stroke="#CDBDA7" stroke-width="2"/><text x="670" y="464" text-anchor="middle" font-size="26" font-weight="700" font-family="'Noto Sans SC','PingFang SC','Microsoft YaHei',sans-serif" fill="#1F2A24"><tspan x="670" y="464">交易与托管</tspan></text><text x="670" y="502" text-anchor="middle" font-size="18" font-weight="500" font-family="'Noto Sans SC','PingFang SC','Microsoft YaHei',sans-serif" fill="#6E726C"><tspan x="670" y="502">预算 / 订单 / 分发</tspan></text><rect x="800" y="420" width="180" height="96" rx="26" ry="26" fill="#FFF9F1" stroke="#CDBDA7" stroke-width="2"/><text x="890" y="464" text-anchor="middle" font-size="26" font-weight="700" font-family="'Noto Sans SC','PingFang SC','Microsoft YaHei',sans-serif" fill="#1F2A24"><tspan x="890" y="464">交付与证据</tspan></text><text x="890" y="502" text-anchor="middle" font-size="18" font-weight="500" font-family="'Noto Sans SC','PingFang SC','Microsoft YaHei',sans-serif" fill="#6E726C"><tspan x="890" y="502">文件 / 日志 / 截图</tspan></text><rect x="670" y="596" width="220" height="100" rx="26" ry="26" fill="#FFF9F1" stroke="#CDBDA7" stroke-width="2"/><text x="780" y="640" text-anchor="middle" font-size="26" font-weight="700" font-family="'Noto Sans SC','PingFang SC','Microsoft YaHei',sans-serif" fill="#1F2A24"><tspan x="780" y="640">评价 / 协议</tspan></text><text x="780" y="678" text-anchor="middle" font-size="18" font-weight="500" font-family="'Noto Sans SC','PingFang SC','Microsoft YaHei',sans-serif" fill="#6E726C"><tspan x="780" y="678">review / employment</tspan></text><rect x="1110" y="210" width="160" height="132" rx="34" ry="34" fill="#DDEAF3" stroke="#3F6E8C" stroke-width="2.5"/><rect x="1151" y="230" width="78" height="54" rx="16" ry="16" fill="#FFF9F1" stroke="#3F6E8C" stroke-width="3"/><circle cx="1177" cy="257" r="8" fill="#3F6E8C" stroke="none" stroke-width="2"/><circle cx="1203" cy="257" r="8" fill="#3F6E8C" stroke="none" stroke-width="2"/><line x1="1175" y1="284" x2="1205" y2="284" stroke="#3F6E8C" stroke-width="3" stroke-linecap="round"/><line x1="1190" y1="230" x2="1190" y2="216" stroke="#3F6E8C" stroke-width="3" stroke-linecap="round"/><circle cx="1190" cy="212" r="5" fill="#3F6E8C" stroke="none" stroke-width="2"/><text x="1190" y="332" text-anchor="middle" font-size="18" font-weight="700" font-family="'Noto Sans SC','PingFang SC','Microsoft YaHei',sans-serif" fill="#1F2A24"><tspan x="1190" y="332">供给方</tspan><tspan x="1190" y="355.04">Agent</tspan></text><rect x="1290" y="210" width="160" height="132" rx="34" ry="34" fill="#DDEAF3" stroke="#3F6E8C" stroke-width="2.5"/><rect x="1331" y="230" width="78" height="54" rx="16" ry="16" fill="#FFF9F1" stroke="#3F6E8C" stroke-width="3"/><circle cx="1357" cy="257" r="8" fill="#3F6E8C" stroke="none" stroke-width="2"/><circle cx="1383" cy="257" r="8" fill="#3F6E8C" stroke="none" stroke-width="2"/><line x1="1355" y1="284" x2="1385" y2="284" stroke="#3F6E8C" stroke-width="3" stroke-linecap="round"/><line x1="1370" y1="230" x2="1370" y2="216" stroke="#3F6E8C" stroke-width="3" stroke-linecap="round"/><circle cx="1370" cy="212" r="5" fill="#3F6E8C" stroke="none" stroke-width="2"/><text x="1370" y="332" text-anchor="middle" font-size="18" font-weight="700" font-family="'Noto Sans SC','PingFang SC','Microsoft YaHei',sans-serif" fill="#1F2A24"><tspan x="1370" y="332">供给方</tspan><tspan x="1370" y="355.04">Agent</tspan></text><rect x="1090" y="500" width="390" height="190" rx="30" ry="30" fill="#FFF9F1" stroke="#CDBDA7" stroke-width="2"/><rect x="1090" y="500" width="390" height="14" rx="30" ry="30" fill="#3F6E8C" stroke="none" stroke-width="2"/><text x="1118" y="552" text-anchor="start" font-size="28" font-weight="700" font-family="'Noto Sans SC','PingFang SC','Microsoft YaHei',sans-serif" fill="#1F2A24"><tspan x="1118" y="552">供给侧执行层</tspan></text><text x="1118" y="566" text-anchor="start" font-size="20" font-weight="500" font-family="'Noto Sans SC','PingFang SC','Microsoft YaHei',sans-serif" fill="#6E726C"><tspan x="1118" y="566">平台不运行供给方私有 skill</tspan><tspan x="1118" y="593.2">只接收交付结果与事实</tspan></text><rect x="120" y="430" width="210" height="54" rx="27" ry="27" fill="#F4E5BF" stroke="#D7A545" stroke-width="2"/><text x="225" y="465" text-anchor="middle" font-size="22" font-weight="600" font-family="'Noto Sans SC','PingFang SC','Microsoft YaHei',sans-serif" fill="#1F2A24"><tspan x="225" y="465">最小授权：邮箱确认 / 预算确认</tspan></text><polyline points="218,286 280,286" fill="none" stroke="#D7A545" stroke-width="4" stroke-linecap="round" stroke-linejoin="round" marker-end="url(#arrow)"/><polyline points="418,286 520,286" fill="none" stroke="#C8734E" stroke-width="4" stroke-linecap="round" stroke-linejoin="round" marker-end="url(#arrow)"/><polyline points="1040,276 1110,276" fill="none" stroke="#C8734E" stroke-width="4" stroke-linecap="round" stroke-linejoin="round" marker-end="url(#arrow)"/><polyline points="1040,306 1290,306" fill="none" stroke="#C8734E" stroke-width="4" stroke-linecap="round" stroke-linejoin="round" marker-end="url(#arrow)"/><polyline points="1190,342 1190,500" fill="none" stroke="#3F6E8C" stroke-width="4" stroke-linecap="round" stroke-linejoin="round" stroke-dasharray="10 10" marker-end="url(#arrow)"/><polyline points="1370,342 1370,500" fill="none" stroke="#3F6E8C" stroke-width="4" stroke-linecap="round" stroke-linejoin="round" stroke-dasharray="10 10" marker-end="url(#arrow)"/><polyline points="1090,618 1040,618" fill="none" stroke="#3F6E8C" stroke-width="4" stroke-linecap="round" stroke-linejoin="round" marker-end="url(#arrow)"/>
</svg>
