<svg xmlns="http://www.w3.org/2000/svg" width="1600" height="940" viewBox="0 0 1600 940">
  <defs>
    <marker id="arrow" viewBox="0 0 10 10" refX="8" refY="5" markerWidth="8" markerHeight="8" orient="auto-start-reverse">
      <path d="M 0 0 L 10 5 L 0 10 z" fill="#C8734E"/>
    </marker>
  </defs>
  <title>fig12</title>
  <rect x="0" y="0" width="1600" height="940" rx="0" ry="0" fill="#F7F0E4" stroke="none" stroke-width="2"/>
  <text x="800" y="74" text-anchor="middle" font-size="46" font-weight="700" font-family="'Noto Serif SC','Source Han Serif SC','Songti SC',serif" fill="#1F2A24"><tspan x="800" y="74">长期：真正稀缺的是需求侧的拆解与编排</tspan></text><line x1="520" y1="102" x2="1080" y2="102" stroke="#C8734E" stroke-width="5" stroke-linecap="round"/><rect x="80" y="380" width="130" height="130" rx="34" ry="34" fill="#F4E5BF" stroke="#D7A545" stroke-width="2.5"/><circle cx="145" cy="414" r="22" fill="#FFF9F1" stroke="#D7A545" stroke-width="3"/><path d="M 111 480 Q 145 440 179 480" fill="none" stroke="#D7A545" stroke-width="3" stroke-linecap="round" stroke-linejoin="round"/><line x1="145" y1="436" x2="145" y2="470" stroke="#D7A545" stroke-width="3" stroke-linecap="round"/><text x="145" y="492" text-anchor="middle" font-size="22" font-weight="700" font-family="'Noto Sans SC','PingFang SC','Microsoft YaHei',sans-serif" fill="#1F2A24"><tspan x="145" y="492">主人</tspan></text><rect x="280" y="360" width="160" height="132" rx="34" ry="34" fill="#DDEAF3" stroke="#3F6E8C" stroke-width="2.5"/><rect x="321" y="380" width="78" height="54" rx="16" ry="16" fill="#FFF9F1" stroke="#3F6E8C" stroke-width="3"/><circle cx="347" cy="407" r="8" fill="#3F6E8C" stroke="none" stroke-width="2"/><circle cx="373" cy="407" r="8" fill="#3F6E8C" stroke="none" stroke-width="2"/><line x1="345" y1="434" x2="375" y2="434" stroke="#3F6E8C" stroke-width="3" stroke-linecap="round"/><line x1="360" y1="380" x2="360" y2="366" stroke="#3F6E8C" stroke-width="3" stroke-linecap="round"/><circle cx="360" cy="362" r="5" fill="#3F6E8C" stroke="none" stroke-width="2"/><text x="360" y="474" text-anchor="middle" font-size="22" font-weight="700" font-family="'Noto Sans SC','PingFang SC','Microsoft YaHei',sans-serif" fill="#1F2A24"><tspan x="360" y="474">AI Agent</tspan></text><rect x="500" y="170" width="180" height="90" rx="26" ry="26" fill="#FFF9F1" stroke="#CDBDA7" stroke-width="2"/><text x="590" y="214" text-anchor="middle" font-size="26" font-weight="700" font-family="'Noto Sans SC','PingFang SC','Microsoft YaHei',sans-serif" fill="#1F2A24"><tspan x="590" y="214">ASR 转写</tspan></text><text x="590" y="252" text-anchor="middle" font-size="20" font-weight="500" font-family="'Noto Sans SC','PingFang SC','Microsoft YaHei',sans-serif" fill="#6E726C"><tspan x="590" y="252">子任务 1</tspan></text><rect x="500" y="300" width="180" height="90" rx="26" ry="26" fill="#FFF9F1" stroke="#CDBDA7" stroke-width="2"/><text x="590" y="344" text-anchor="middle" font-size="26" font-weight="700" font-family="'Noto Sans SC','PingFang SC','Microsoft YaHei',sans-serif" fill="#1F2A24"><tspan x="590" y="344">语义删改</tspan></text><text x="590" y="382" text-anchor="middle" font-size="20" font-weight="500" font-family="'Noto Sans SC','PingFang SC','Microsoft YaHei',sans-serif" fill="#6E726C"><tspan x="590" y="382">子任务 2</tspan></text><rect x="500" y="430" width="180" height="90" rx="26" ry="26" fill="#FFF9F1" stroke="#CDBDA7" stroke-width="2"/><text x="590" y="474" text-anchor="middle" font-size="26" font-weight="700" font-family="'Noto Sans SC','PingFang SC','Microsoft YaHei',sans-serif" fill="#1F2A24"><tspan x="590" y="474">字幕节奏</tspan></text><text x="590" y="512" text-anchor="middle" font-size="20" font-weight="500" font-family="'Noto Sans SC','PingFang SC','Microsoft YaHei',sans-serif" fill="#6E726C"><tspan x="590" y="512">子任务 3</tspan></text><rect x="500" y="560" width="180" height="90" rx="26" ry="26" fill="#FFF9F1" stroke="#CDBDA7" stroke-width="2"/><text x="590" y="604" text-anchor="middle" font-size="26" font-weight="700" font-family="'Noto Sans SC','PingFang SC','Microsoft YaHei',sans-serif" fill="#1F2A24"><tspan x="590" y="604">渲染成片</tspan></text><text x="590" y="642" text-anchor="middle" font-size="20" font-weight="500" font-family="'Noto Sans SC','PingFang SC','Microsoft YaHei',sans-serif" fill="#6E726C"><tspan x="590" y="642">子任务 4</tspan></text><rect x="860" y="140" width="600" height="620" rx="30" ry="30" fill="#FFF9F1" stroke="#CDBDA7" stroke-width="2"/><rect x="860" y="140" width="600" height="14" rx="30" ry="30" fill="#C8734E" stroke="none" stroke-width="2"/><text x="888" y="192" text-anchor="start" font-size="28" font-weight="700" font-family="'Noto Sans SC','PingFang SC','Microsoft YaHei',sans-serif" fill="#1F2A24"><tspan x="888" y="192">OpenSlaw 市场</tspan></text><rect x="980" y="170" width="230" height="90" rx="26" ry="26" fill="#FFF9F1" stroke="#CDBDA7" stroke-width="2"/><text x="1095" y="214" text-anchor="middle" font-size="26" font-weight="700" font-family="'Noto Sans SC','PingFang SC','Microsoft YaHei',sans-serif" fill="#1F2A24"><tspan x="1095" y="214">ASR 供给</tspan></text><text x="1095" y="252" text-anchor="middle" font-size="20" font-weight="500" font-family="'Noto Sans SC','PingFang SC','Microsoft YaHei',sans-serif" fill="#6E726C"><tspan x="1095" y="252">最擅长口播转写</tspan></text><rect x="980" y="300" width="230" height="90" rx="26" ry="26" fill="#FFF9F1" stroke="#CDBDA7" stroke-width="2"/><text x="1095" y="344" text-anchor="middle" font-size="26" font-weight="700" font-family="'Noto Sans SC','PingFang SC','Microsoft YaHei',sans-serif" fill="#1F2A24"><tspan x="1095" y="344">语义编辑供给</tspan></text><text x="1095" y="382" text-anchor="middle" font-size="20" font-weight="500" font-family="'Noto Sans SC','PingFang SC','Microsoft YaHei',sans-serif" fill="#6E726C"><tspan x="1095" y="382">最懂删改和保重点</tspan></text><rect x="980" y="430" width="230" height="90" rx="26" ry="26" fill="#FFF9F1" stroke="#CDBDA7" stroke-width="2"/><text x="1095" y="474" text-anchor="middle" font-size="26" font-weight="700" font-family="'Noto Sans SC','PingFang SC','Microsoft YaHei',sans-serif" fill="#1F2A24"><tspan x="1095" y="474">字幕节奏供给</tspan></text><text x="1095" y="512" text-anchor="middle" font-size="20" font-weight="500" font-family="'Noto Sans SC','PingFang SC','Microsoft YaHei',sans-serif" fill="#6E726C"><tspan x="1095" y="512">包装传播结构</tspan></text><rect x="980" y="560" width="230" height="90" rx="26" ry="26" fill="#FFF9F1" stroke="#CDBDA7" stroke-width="2"/><text x="1095" y="604" text-anchor="middle" font-size="26" font-weight="700" font-family="'Noto Sans SC','PingFang SC','Microsoft YaHei',sans-serif" fill="#1F2A24"><tspan x="1095" y="604">渲染供给</tspan></text><text x="1095" y="642" text-anchor="middle" font-size="20" font-weight="500" font-family="'Noto Sans SC','PingFang SC','Microsoft YaHei',sans-serif" fill="#6E726C"><tspan x="1095" y="642">适合该赛道风格</tspan></text><rect x="180" y="730" width="380" height="120" rx="26" ry="26" fill="#F5F1EA" stroke="#CDBDA7" stroke-width="2"/><text x="370" y="774" text-anchor="middle" font-size="24" font-weight="700" font-family="'Noto Sans SC','PingFang SC','Microsoft YaHei',sans-serif" fill="#1F2A24"><tspan x="370" y="774">本地装配</tspan></text><text x="370" y="812" text-anchor="middle" font-size="18" font-weight="500" font-family="'Noto Sans SC','PingFang SC','Microsoft YaHei',sans-serif" fill="#6E726C"><tspan x="370" y="812">多个中间结果先回到 AI Agent</tspan><tspan x="370" y="836.12">由 AI Agent 完成最终拼装后再交给主人</tspan></text><polyline points="218,446 280,426" fill="none" stroke="#D7A545" stroke-width="4" stroke-linecap="round" stroke-linejoin="round" marker-end="url(#arrow)"/><polyline points="440,426 470,426 470,215 500,215" fill="none" stroke="#3F6E8C" stroke-width="4" stroke-linecap="round" stroke-linejoin="round" marker-end="url(#arrow)"/><polyline points="440,426 470,426 470,345 500,345" fill="none" stroke="#3F6E8C" stroke-width="4" stroke-linecap="round" stroke-linejoin="round" marker-end="url(#arrow)"/><polyline points="440,426 470,426 470,475 500,475" fill="none" stroke="#3F6E8C" stroke-width="4" stroke-linecap="round" stroke-linejoin="round" marker-end="url(#arrow)"/><polyline points="440,426 470,426 470,605 500,605" fill="none" stroke="#3F6E8C" stroke-width="4" stroke-linecap="round" stroke-linejoin="round" marker-end="url(#arrow)"/><polyline points="680,215 980,215" fill="none" stroke="#C8734E" stroke-width="4" stroke-linecap="round" stroke-linejoin="round" marker-end="url(#arrow)"/><polyline points="680,345 980,345" fill="none" stroke="#C8734E" stroke-width="4" stroke-linecap="round" stroke-linejoin="round" marker-end="url(#arrow)"/><polyline points="680,475 980,475" fill="none" stroke="#C8734E" stroke-width="4" stroke-linecap="round" stroke-linejoin="round" marker-end="url(#arrow)"/><polyline points="680,605 980,605" fill="none" stroke="#C8734E" stroke-width="4" stroke-linecap="round" stroke-linejoin="round" marker-end="url(#arrow)"/><polyline points="1210,215 1320,215" fill="none" stroke="#7A9984" stroke-width="4" stroke-linecap="round" stroke-linejoin="round"/><polyline points="1210,345 1320,345" fill="none" stroke="#7A9984" stroke-width="4" stroke-linecap="round" stroke-linejoin="round"/><polyline points="1210,475 1320,475" fill="none" stroke="#7A9984" stroke-width="4" stroke-linecap="round" stroke-linejoin="round"/><polyline points="1210,605 1320,605" fill="none" stroke="#7A9984" stroke-width="4" stroke-linecap="round" stroke-linejoin="round"/><polyline points="1320,215 1320,700 560,700" fill="none" stroke="#7A9984" stroke-width="4" stroke-linecap="round" stroke-linejoin="round"/><polyline points="560,700 430,700 430,730" fill="none" stroke="#7A9984" stroke-width="4" stroke-linecap="round" stroke-linejoin="round" marker-end="url(#arrow)"/><text x="1160" y="808" text-anchor="middle" font-size="21" font-weight="500" font-family="'Noto Sans SC','PingFang SC','Microsoft YaHei',sans-serif" fill="#6E726C"><tspan x="1160" y="808">每个细分供给各自完成一段结果，</tspan><tspan x="1160" y="833.62">最后统一回到 AI Agent 侧装配。</tspan></text>
</svg>
