<svg xmlns="http://www.w3.org/2000/svg" width="1600" height="940" viewBox="0 0 1600 940">
  <defs>
    <marker id="arrow" viewBox="0 0 10 10" refX="8" refY="5" markerWidth="8" markerHeight="8" orient="auto-start-reverse">
      <path d="M 0 0 L 10 5 L 0 10 z" fill="#C8734E"/>
    </marker>
  </defs>
  <title>fig13b</title>
  <rect x="0" y="0" width="1600" height="940" rx="0" ry="0" fill="#F7F0E4" stroke="none" stroke-width="2"/>
  <text x="800" y="74" text-anchor="middle" font-size="46" font-weight="700" font-family="'Noto Serif SC','Source Han Serif SC','Songti SC',serif" fill="#1F2A24"><tspan x="800" y="74">人类评价与 AI Agent 公允评价的差异</tspan></text><line x1="520" y1="102" x2="1080" y2="102" stroke="#C8734E" stroke-width="5" stroke-linecap="round"/><rect x="100" y="190" width="620" height="560" rx="30" ry="30" fill="#FFF9F1" stroke="#CDBDA7" stroke-width="2"/><rect x="100" y="190" width="620" height="14" rx="30" ry="30" fill="#B9645D" stroke="none" stroke-width="2"/><text x="128" y="242" text-anchor="start" font-size="28" font-weight="700" font-family="'Noto Sans SC','PingFang SC','Microsoft YaHei',sans-serif" fill="#1F2A24"><tspan x="128" y="242">人类平台侧</tspan></text><rect x="880" y="190" width="620" height="560" rx="30" ry="30" fill="#FFF9F1" stroke="#CDBDA7" stroke-width="2"/><rect x="880" y="190" width="620" height="14" rx="30" ry="30" fill="#3F6E8C" stroke="none" stroke-width="2"/><text x="908" y="242" text-anchor="start" font-size="28" font-weight="700" font-family="'Noto Sans SC','PingFang SC','Microsoft YaHei',sans-serif" fill="#1F2A24"><tspan x="908" y="242">AI Agent 平台侧</tspan></text><rect x="320" y="260" width="180" height="58" rx="29" ry="29" fill="#F0D4D1" stroke="#DCA8A1" stroke-width="2"/><text x="410" y="297" text-anchor="middle" font-size="26" font-weight="600" font-family="'Noto Sans SC','PingFang SC','Microsoft YaHei',sans-serif" fill="#1F2A24"><tspan x="410" y="297">评价必要</tspan></text><rect x="180" y="350" width="220" height="110" rx="26" ry="26" fill="#FFF9F1" stroke="#CDBDA7" stroke-width="2"/><text x="290" y="394" text-anchor="middle" font-size="26" font-weight="700" font-family="'Noto Sans SC','PingFang SC','Microsoft YaHei',sans-serif" fill="#1F2A24"><tspan x="290" y="394">原始材料太多</tspan></text><text x="290" y="432" text-anchor="middle" font-size="20" font-weight="500" font-family="'Noto Sans SC','PingFang SC','Microsoft YaHei',sans-serif" fill="#6E726C"><tspan x="290" y="432">读不完全部输入输出</tspan></text><rect x="430" y="350" width="220" height="110" rx="26" ry="26" fill="#FFF9F1" stroke="#CDBDA7" stroke-width="2"/><text x="540" y="394" text-anchor="middle" font-size="26" font-weight="700" font-family="'Noto Sans SC','PingFang SC','Microsoft YaHei',sans-serif" fill="#1F2A24"><tspan x="540" y="394">只能看摘要</tspan></text><text x="540" y="432" text-anchor="middle" font-size="20" font-weight="500" font-family="'Noto Sans SC','PingFang SC','Microsoft YaHei',sans-serif" fill="#6E726C"><tspan x="540" y="432">评分 / 评论是压缩信息</tspan></text><rect x="305" y="520" width="240" height="110" rx="26" ry="26" fill="#FBF1ED" stroke="#E4BEAF" stroke-width="2"/><text x="425" y="564" text-anchor="middle" font-size="26" font-weight="700" font-family="'Noto Sans SC','PingFang SC','Microsoft YaHei',sans-serif" fill="#1F2A24"><tspan x="425" y="564">所以需要评价</tspan></text><text x="425" y="602" text-anchor="middle" font-size="20" font-weight="500" font-family="'Noto Sans SC','PingFang SC','Microsoft YaHei',sans-serif" fill="#6E726C"><tspan x="425" y="602">否则难以比较多个供给方</tspan></text><polyline points="290,460 290,520 425,520" fill="none" stroke="#B9645D" stroke-width="4" stroke-linecap="round" stroke-linejoin="round" marker-end="url(#arrow)"/><polyline points="540,460 540,520 425,520" fill="none" stroke="#B9645D" stroke-width="4" stroke-linecap="round" stroke-linejoin="round" marker-end="url(#arrow)"/><rect x="1110" y="260" width="260" height="58" rx="29" ry="29" fill="#DDEAF3" stroke="#BDD3E1" stroke-width="2"/><text x="1240" y="297" text-anchor="middle" font-size="24" font-weight="600" font-family="'Noto Sans SC','PingFang SC','Microsoft YaHei',sans-serif" fill="#1F2A24"><tspan x="1240" y="297">评价不是唯一必要入口</tspan></text><rect x="950" y="350" width="220" height="86" rx="26" ry="26" fill="#FFF9F1" stroke="#CDBDA7" stroke-width="2"/><text x="1060" y="394" text-anchor="middle" font-size="26" font-weight="700" font-family="'Noto Sans SC','PingFang SC','Microsoft YaHei',sans-serif" fill="#1F2A24"><tspan x="1060" y="394">需求摘要</tspan></text><text x="1060" y="432" text-anchor="middle" font-size="20" font-weight="500" font-family="'Noto Sans SC','PingFang SC','Microsoft YaHei',sans-serif" fill="#6E726C"><tspan x="1060" y="432">订单目标</tspan></text><rect x="1210" y="350" width="220" height="86" rx="26" ry="26" fill="#FFF9F1" stroke="#CDBDA7" stroke-width="2"/><text x="1320" y="394" text-anchor="middle" font-size="26" font-weight="700" font-family="'Noto Sans SC','PingFang SC','Microsoft YaHei',sans-serif" fill="#1F2A24"><tspan x="1320" y="394">正式输入</tspan></text><text x="1320" y="432" text-anchor="middle" font-size="20" font-weight="500" font-family="'Noto Sans SC','PingFang SC','Microsoft YaHei',sans-serif" fill="#6E726C"><tspan x="1320" y="432">材料包 / 输入附件</tspan></text><rect x="950" y="470" width="220" height="86" rx="26" ry="26" fill="#FFF9F1" stroke="#CDBDA7" stroke-width="2"/><text x="1060" y="514" text-anchor="middle" font-size="26" font-weight="700" font-family="'Noto Sans SC','PingFang SC','Microsoft YaHei',sans-serif" fill="#1F2A24"><tspan x="1060" y="514">交付摘要</tspan></text><text x="1060" y="552" text-anchor="middle" font-size="20" font-weight="500" font-family="'Noto Sans SC','PingFang SC','Microsoft YaHei',sans-serif" fill="#6E726C"><tspan x="1060" y="552">完成内容</tspan></text><rect x="1210" y="470" width="220" height="86" rx="26" ry="26" fill="#FFF9F1" stroke="#CDBDA7" stroke-width="2"/><text x="1320" y="514" text-anchor="middle" font-size="26" font-weight="700" font-family="'Noto Sans SC','PingFang SC','Microsoft YaHei',sans-serif" fill="#1F2A24"><tspan x="1320" y="514">正式输出</tspan></text><text x="1320" y="552" text-anchor="middle" font-size="20" font-weight="500" font-family="'Noto Sans SC','PingFang SC','Microsoft YaHei',sans-serif" fill="#6E726C"><tspan x="1320" y="552">结果文件 / 日志</tspan></text><rect x="1080" y="600" width="240" height="86" rx="26" ry="26" fill="#FFF9F1" stroke="#CDBDA7" stroke-width="2"/><text x="1200" y="644" text-anchor="middle" font-size="26" font-weight="700" font-family="'Noto Sans SC','PingFang SC','Microsoft YaHei',sans-serif" fill="#1F2A24"><tspan x="1200" y="644">评价快照</tspan></text><text x="1200" y="682" text-anchor="middle" font-size="20" font-weight="500" font-family="'Noto Sans SC','PingFang SC','Microsoft YaHei',sans-serif" fill="#6E726C"><tspan x="1200" y="682">仍可保留，但不再是唯一依据</tspan></text><polyline points="1060,436 1110,436 1110,600" fill="none" stroke="#3F6E8C" stroke-width="4" stroke-linecap="round" stroke-linejoin="round" marker-end="url(#arrow)"/><polyline points="1320,436 1320,600 1300,600" fill="none" stroke="#3F6E8C" stroke-width="4" stroke-linecap="round" stroke-linejoin="round" marker-end="url(#arrow)"/><polyline points="1060,556 1110,556 1110,600" fill="none" stroke="#3F6E8C" stroke-width="4" stroke-linecap="round" stroke-linejoin="round" marker-end="url(#arrow)"/><polyline points="1320,556 1320,600 1300,600" fill="none" stroke="#3F6E8C" stroke-width="4" stroke-linecap="round" stroke-linejoin="round" marker-end="url(#arrow)"/>
</svg>
